<?xml version="1.0" standalone="no"?>
<!DOCTYPE svg PUBLIC "-//W3C//DTD SVG 1.1//EN" "http://www.w3.org/Graphics/SVG/1.1/DTD/svg11.dtd" >
<svg xmlns="http://www.w3.org/2000/svg">
<metadata></metadata>
<defs>
<font id="rawengulkpcsregular" horiz-adv-x="364" >
<font-face units-per-em="2048" ascent="1610" descent="-438" />
<missing-glyph horiz-adv-x="731" />
<glyph horiz-adv-x="0" />
<glyph unicode="&#xd;" horiz-adv-x="663" />
<glyph unicode=" "  horiz-adv-x="731" />
<glyph unicode="&#x09;" horiz-adv-x="731" />
<glyph unicode="&#xa0;" horiz-adv-x="731" />
<glyph unicode="!" d="M119 45q0 27 18.5 46.5t44.5 19.5t46 -20t20 -46t-19.5 -44.5t-46.5 -18.5q-26 0 -44.5 18.5t-18.5 44.5zM145 293v805h111v-74h-37v-731h-74z" />
<glyph unicode="&#x22;" horiz-adv-x="512" d="M92 1104l17 55q18 67 18 162q0 52 -4 68l72 12q6 -25 6 -80q0 -101 -21 -180l-18 -58zM293 1104l16 55q21 79 21 162q0 44 -6 68l71 12q6 -25 6 -80q0 -104 -20 -180l-16 -58z" />
<glyph unicode="#" horiz-adv-x="802" d="M59 293l9 74h145l18 219h-145l8 71h144l16 185h74l-17 -185h219l17 185h74l-17 -185h146l-9 -71h-143l-20 -219h147l-8 -74h-146l-16 -182h-72l17 182h-219l-17 -182h-74l17 182h-148zM285 367h219l20 219h-219z" />
<glyph unicode="$" horiz-adv-x="876" d="M74 195v61h71v-31q41 -37 113 -71.5t143 -42.5v364q-52 13 -88.5 24.5t-77.5 31.5t-66 43t-41.5 57.5t-16.5 77.5q0 84 86 142t204 64v109h74v-111q149 -17 246 -114l10 -11v-57h-74v27q-75 69 -182 82v-308q60 -15 97.5 -26.5t87 -33.5t77.5 -47.5t48 -65t20 -89.5 q0 -99 -88 -163.5t-242 -71.5v-109h-74v111q-95 8 -184 54.5t-133 92.5zM182 709q0 -32 16.5 -57.5t49.5 -44t67.5 -31t85.5 -25.5v291q-93 -6 -156 -47t-63 -86zM475 109q118 6 187 49.5t69 111.5q0 41 -19.5 72t-60 53t-78 35t-98.5 29v-350z" />
<glyph unicode="%" horiz-adv-x="1095" d="M74 768q0 74 46 128t136 54t136 -54t46 -128q0 -70 -43.5 -126t-138.5 -56q-50 0 -87.5 17.5t-57 46t-28.5 58.5t-9 60zM145 768q0 -41 24.5 -76t86.5 -35t86.5 35t24.5 76q0 44 -26 77.5t-85 33.5q-58 0 -84.5 -34t-26.5 -77zM156 96l704 805l53 -47l-702 -805zM657 182 q0 74 47.5 129.5t137.5 55.5t136 -55.5t46 -129.5q0 -70 -43.5 -126t-138.5 -56q-50 0 -88 17.5t-58 46t-29.5 58.5t-9.5 60zM731 182q0 -41 24.5 -74.5t86.5 -33.5t85 33.5t23 74.5q0 44 -24.5 77.5t-83.5 33.5q-58 0 -84.5 -34t-26.5 -77z" />
<glyph unicode="&#x26;" horiz-adv-x="1058" d="M74 272q0 83 50.5 158.5t139.5 122.5q-45 73 -45 141q0 114 80.5 194.5t194.5 80.5q111 0 192.5 -69t81.5 -169v-37h-111v74h33q-15 54 -69.5 91.5t-126.5 37.5q-83 0 -142 -60t-59 -143q0 -56 36 -107t165 -192l241 -260q127 91 127 250q0 48 -26.5 85.5t-67.5 49.5v-26 h-74v106h37q84 0 143.5 -63.5t59.5 -151.5q0 -189 -146 -301q13 -10 37 -10h162v-74h-162q-53 0 -102 43q-116 -61 -242 -61q-101 0 -181.5 24.5t-128.5 66t-72.5 92.5t-24.5 107zM145 272q0 -39 18.5 -75.5t56 -69.5t105 -52.5t156.5 -19.5q106 0 189 41l-232 248 q-61 63 -135 154q-72 -38 -115 -99.5t-43 -126.5z" />
<glyph unicode="'" horiz-adv-x="290" d="M92 1104l17 55q18 67 18 162q0 52 -4 68l72 12q6 -25 6 -80q0 -101 -21 -180l-18 -58z" />
<glyph unicode="(" horiz-adv-x="512" d="M74 528v2q0 149 20.5 299t60.5 291t108 252.5t155 163.5l39 -61q-139 -84 -225.5 -354t-86.5 -591v-2q0 -315 85 -567.5t227 -337.5l-39 -61q-87 52 -154.5 156.5t-108 237t-61 277.5t-20.5 295z" />
<glyph unicode=")" horiz-adv-x="512" d="M55 -377q142 85 227 338.5t85 568.5q0 321 -86.5 591t-225.5 354l39 61q87 -52 155 -163.5t108 -252.5t60.5 -291t20.5 -299q0 -204 -34.5 -391.5t-114.5 -347.5t-195 -229z" />
<glyph unicode="*" horiz-adv-x="657" d="M74 967l24 67l195 -69v204h74v-204l192 69l27 -67l-199 -70l123 -170l-57 -43l-123 168l-123 -168l-60 43l123 170z" />
<glyph unicode="+" horiz-adv-x="802" d="M74 438v74h293v293h71v-293h293v-74h-293v-293h-71v293h-293z" />
<glyph unicode="," d="M82 -178q74 74 74 164q-19 6 -32 22.5t-13 36.5q0 27 18.5 46.5t44.5 19.5t45 -20t19 -46q0 -133 -123 -256z" />
<glyph unicode="-" horiz-adv-x="657" d="M74 512v74h512v-74h-512z" />
<glyph unicode="." d="M111 45q0 27 18.5 46.5t44.5 19.5t45 -20t19 -46t-19 -44.5t-45 -18.5t-44.5 18.5t-18.5 44.5z" />
<glyph unicode="/" horiz-adv-x="839" d="M37 -78l704 1104l64 -41l-707 -1102z" />
<glyph unicode="0" horiz-adv-x="876" d="M74 487q0 128 46.5 238t130.5 177t187 67q148 0 257.5 -140.5t109.5 -341.5q0 -134 -47.5 -250t-132.5 -185.5t-187 -69.5t-186 70t-131 185.5t-47 249.5zM145 487q0 -180 87.5 -306t205.5 -126t205.5 125.5t87.5 306.5q0 171 -88 290.5t-205 119.5t-205 -119.5 t-88 -290.5z" />
<glyph unicode="1" horiz-adv-x="438" d="M63 774l158 176h72v-950h-74v840h-2v-2l-98 -113z" />
<glyph unicode="2" horiz-adv-x="768" d="M74 0v63l338 316q120 112 165.5 174t45.5 117q0 94 -67 160.5t-161 66.5q-97 0 -173.5 -69t-76.5 -158h-71q0 122 98 210.5t223 88.5q123 0 211 -88t88 -211q0 -80 -55 -155t-176 -189l-273 -252h433v18h71v-92h-620z" />
<glyph unicode="3" horiz-adv-x="768" d="M74 274h71q0 -90 70.5 -154.5t169.5 -64.5t168.5 64.5t69.5 154.5t-69.5 155t-168.5 65v73q77 0 130.5 48.5t53.5 115.5t-53.5 116.5t-130.5 49.5t-131.5 -49.5t-54.5 -116.5h-72q0 99 76.5 168.5t181.5 69.5t180.5 -69.5t75.5 -168.5q0 -67 -36.5 -118.5t-98.5 -80.5 q85 -31 136.5 -100t51.5 -158q0 -122 -90.5 -207t-218.5 -85t-219.5 85t-91.5 207z" />
<glyph unicode="4" horiz-adv-x="731" d="M37 145v68l6 8q164 248 225.5 409t61.5 320h71q0 -165 -58.5 -328.5t-213.5 -402.5h383v367h74v-367h71v-74h-71v-145h-74v145h-475z" />
<glyph unicode="5" horiz-adv-x="749" d="M74 152v10v28h71v-20q31 -52 94.5 -83.5t125.5 -31.5q42 0 82.5 16.5t76.5 50t58 92.5t22 134q0 72 -21.5 129.5t-56.5 90t-73.5 49t-77.5 16.5q-65 0 -136 -46.5t-92 -111.5l-6 -24l-67 6l32 512h517v-90h-74v18h-375l-18 -283q47 43 106.5 68t112.5 25q54 0 106 -22.5 t96.5 -65t71.5 -113t27 -158.5q0 -91 -28 -163.5t-74 -115.5t-99.5 -65t-109.5 -22q-80 0 -163 43.5t-124 117.5z" />
<glyph unicode="6" horiz-adv-x="768" d="M74 315q0 641 301 641q73 0 135 -31t104 -87l9 -11v-51h-74v27q-67 80 -174 80q-89 0 -148 -86t-82 -260q45 60 111 94.5t141 34.5q126 0 211.5 -104t85.5 -247t-85.5 -247.5t-211.5 -104.5q-134 0 -228.5 104t-94.5 248zM145 315q0 -116 75 -197t177 -81q92 0 159 80.5 t67 197.5t-67 197t-159 80q-102 0 -177 -80.5t-75 -196.5z" />
<glyph unicode="7" horiz-adv-x="694" d="M37 842v108h586v-61l-125 -168q-78 -105 -126 -243t-63.5 -250.5t-15.5 -227.5h-74q0 89 10 179t33 192.5t68 204.5t108 188l84 115h-411v-37h-74z" />
<glyph unicode="8" horiz-adv-x="768" d="M74 274q0 89 51.5 158t136.5 100q-62 29 -98.5 80.5t-36.5 118.5q0 99 76.5 168.5t181.5 69.5t180.5 -69.5t75.5 -168.5q0 -67 -36.5 -118.5t-98.5 -80.5q85 -31 136.5 -100t51.5 -158q0 -122 -90.5 -207t-218.5 -85t-219.5 85t-91.5 207zM145 274q0 -90 70.5 -154.5 t169.5 -64.5t168.5 64.5t69.5 154.5t-69.5 155t-168.5 65t-169.5 -65t-70.5 -155zM199 731q0 -67 54.5 -115.5t131.5 -48.5t130.5 48.5t53.5 115.5t-53.5 116.5t-130.5 49.5t-131.5 -49.5t-54.5 -116.5z" />
<glyph unicode="9" horiz-adv-x="768" d="M74 623q0 143 85.5 247.5t211.5 104.5q134 0 228.5 -104t94.5 -248q0 -641 -301 -641q-73 0 -135 31t-104 87l-9 11v51h74v-27q67 -80 174 -80q89 0 148 86t82 260q-45 -60 -111 -94.5t-141 -34.5q-126 0 -211.5 104t-85.5 247zM145 623q0 -117 67 -197t159 -80 q102 0 177 80.5t75 196.5t-75 197t-177 81q-92 0 -159 -80.5t-67 -197.5z" />
<glyph unicode=":" d="M111 45q0 27 18.5 46.5t44.5 19.5t45 -20t19 -46t-19 -44.5t-45 -18.5t-44.5 18.5t-18.5 44.5zM111 831q0 27 18.5 46.5t44.5 19.5t45 -20t19 -46t-19 -44.5t-45 -18.5t-44.5 18.5t-18.5 44.5z" />
<glyph unicode=";" d="M63 -160q71 71 93 146q-19 6 -32 22.5t-13 36.5q0 27 18.5 46.5t44.5 19.5t45 -20t19 -46q0 -133 -123 -256zM111 831q0 27 18.5 46.5t44.5 19.5t45 -20t19 -46t-19 -44.5t-45 -18.5t-44.5 18.5t-18.5 44.5z" />
<glyph unicode="&#x3c;" horiz-adv-x="657" d="M74 434v84l508 344l41 -61l-478 -322v-8l478 -336l-43 -59z" />
<glyph unicode="=" horiz-adv-x="802" d="M74 293v74h657v-74h-657zM74 586v71h657v-71h-657z" />
<glyph unicode="&#x3e;" horiz-adv-x="657" d="M37 135l475 336v8l-475 322l41 61l508 -344v-84l-508 -358z" />
<glyph unicode="?" horiz-adv-x="694" d="M74 825q0 113 80 193t192 80q113 0 195 -80t82 -193q0 -58 -19 -104.5t-47.5 -73.5t-61.5 -52t-61.5 -42.5t-47.5 -43.5t-19 -56v-160h-74v160q0 38 14 69t36.5 51.5t50 39.5l55 38t50 41.5t36.5 56.5t14 76q0 82 -60 140.5t-143 58.5q-82 0 -141.5 -58.5t-59.5 -140.5 h-71zM264 45q0 26 20 46t46 20t44.5 -19.5t18.5 -46.5q0 -26 -18.5 -44.5t-44.5 -18.5q-27 0 -46.5 18.5t-19.5 44.5z" />
<glyph unicode="@" horiz-adv-x="1243" d="M45 408q0 122 49.5 236t134 200t206.5 138t259 52q121 0 219 -41t159 -108.5t93.5 -150.5t32.5 -171q0 -102 -33.5 -186.5t-85.5 -136t-111.5 -79.5t-115.5 -28q-46 0 -78 14q-44 21 -57 64q-74 -84 -168 -84q-84 0 -152.5 67t-68.5 187q0 92 33 172.5t84 132t110 80.5 t113 29h215l-95 -492q-6 -21 -6 -43q0 -31 16.5 -42t53.5 -11q39 0 83.5 21.5t88 62t72 112.5t28.5 160q0 74 -26.5 143.5t-77 127.5t-135.5 93.5t-191 35.5q-162 0 -295.5 -79t-206.5 -206t-73 -270q0 -83 27.5 -157.5t79.5 -134.5t137 -95t192 -35q147 0 281 67l32 -65 q-156 -76 -313 -76q-121 0 -219 40.5t-161 109.5t-96.5 158t-33.5 188zM401 381q0 -89 46.5 -135.5t101.5 -46.5q40 0 87 29.5t73 82.5l8 13l78 399h-127q-41 0 -87 -24.5t-86.5 -67t-67 -109t-26.5 -141.5z" />
<glyph unicode="A" horiz-adv-x="1243" d="M55 0v74h29l528 1333h56l555 -1395l-68 -24l-151 379h-723l-146 -367h-80zM309 438h666l-336 836z" />
<glyph unicode="B" horiz-adv-x="1243" d="M111 1317v74h446q217 0 342 -89.5t125 -224.5q0 -90 -57 -169t-162 -122h-2v-2h2q169 -33 266.5 -146.5t97.5 -252.5q0 -77 -30 -146t-86.5 -122.5t-146 -85t-201.5 -31.5h-560v1317h-34zM219 74h486q189 0 291 90t102 221q0 62 -27.5 122.5t-78 111t-130.5 81.5t-176 31 h-467v-657zM219 805h338q97 0 174.5 25t124 65.5t70.5 87t24 94.5q0 99 -100.5 169.5t-292.5 70.5h-338v-512z" />
<glyph unicode="C" horiz-adv-x="1280" d="M74 694q0 193 95.5 358t259.5 261t357 96q220 0 404 -125l16 -12v-66h-71v27q-162 102 -349 102q-130 0 -248.5 -51t-204.5 -137t-137 -204.5t-51 -248.5t51 -248t137 -204t204.5 -136.5t248.5 -50.5q209 0 369 117l45 -59q-184 -131 -414 -131q-193 0 -357 95.5 t-259.5 259.5t-95.5 357z" />
<glyph unicode="D" horiz-adv-x="1388" d="M111 1317v74h512q189 0 349 -93.5t252.5 -253.5t92.5 -350q0 -142 -54.5 -270.5t-147.5 -221.5t-221.5 -147.5t-270.5 -54.5h-478v1317h-34zM219 74h404q127 0 241.5 49t197.5 132t132 197.5t49 241.5q0 169 -82.5 312.5t-225.5 227t-312 83.5h-404v-1243z" />
<glyph unicode="E" horiz-adv-x="1169" d="M111 1317v74h913v-111h-74v37h-731v-586h438v-74h-438v-583h805v37h74v-111h-953v1317h-34z" />
<glyph unicode="F" horiz-adv-x="1169" d="M111 1317v74h987v-111h-74v37h-805v-586h512v-74h-512v-657h-74v1317h-34z" />
<glyph unicode="G" horiz-adv-x="1388" d="M74 694q0 193 95.5 358t259.5 261t357 96q255 0 457 -168v-72h-74v37q-176 129 -383 129q-130 0 -248.5 -51t-204.5 -137t-137 -204.5t-51 -248.5t51 -248t137 -204t204.5 -136.5t248.5 -50.5q132 0 249.5 51t207.5 142v338h-293v71h367v-657h-74v170 q-91 -81 -213.5 -134.5t-243.5 -53.5q-193 0 -357 95.5t-259.5 259.5t-95.5 357z" />
<glyph unicode="H" horiz-adv-x="1314" d="M145 0v1391h74v-660h879v660h71v-1391h-71v657h-879v-657h-74z" />
<glyph unicode="I" d="M145 0v1391h74v-1391h-74z" />
<glyph unicode="J" horiz-adv-x="802" d="M37 106v39h74v-18q30 -42 88 -66t123 -24q108 0 186 68.5t78 187.5v1024h-441v74h512v-1098q0 -102 -48 -178.5t-123 -114t-164 -37.5q-84 0 -161.5 35t-117.5 98z" />
<glyph unicode="K" horiz-adv-x="1243" d="M145 0v1391h74v-897h4l760 897h115v-74h-80l-504 -592l498 -586q33 -38 62.5 -51.5t94.5 -13.5v-74q-81 0 -126.5 21t-88.5 71l-489 576l-246 -287v-381h-74z" />
<glyph unicode="L" horiz-adv-x="1169" d="M145 0v1391h74v-1317h805v37h74v-111h-953z" />
<glyph unicode="M" horiz-adv-x="1974" d="M111 0v74h20l164 1331h59l633 -1327l633 1327h61l185 -1401l-72 -10l-166 1253l-604 -1265h-72l-602 1263l-153 -1245h-86z" />
<glyph unicode="N" horiz-adv-x="1314" d="M111 1317v74h108l879 -1264v1264h71v-1391h-71l-879 1264v-1264h-74v1317h-34z" />
<glyph unicode="O" horiz-adv-x="1570" d="M74 694q0 193 95.5 358t259.5 261t357 96q145 0 277 -57t227.5 -153t152 -228t56.5 -277q0 -193 -95.5 -357t-260 -259.5t-357.5 -95.5t-357 95.5t-259.5 259.5t-95.5 357zM145 694q0 -130 51 -248t137 -204t204.5 -136.5t248.5 -50.5t248 50.5t204 136.5t136.5 204 t50.5 248t-50.5 248.5t-136.5 204.5t-204 137t-248 51t-248.5 -51t-204.5 -137t-137 -204.5t-51 -248.5z" />
<glyph unicode="P" horiz-adv-x="1243" d="M111 1317v74h583q130 0 239.5 -64t172.5 -174t63 -240q0 -198 -138.5 -336.5t-336.5 -138.5h-475v-438h-74v1317h-34zM219 512h475q166 0 285 118t119 283q0 166 -119 285t-285 119h-475v-805z" />
<glyph unicode="Q" horiz-adv-x="1570" d="M74 694q0 193 95.5 358t259.5 261t357 96q145 0 277 -57t227.5 -153t152 -228t56.5 -277q0 -193 -95.5 -357t-260 -259.5t-357.5 -95.5h-2q-294 0 -438 -191l27 -29q76 70 196 70q76 0 182 -30.5t202 -61.5t147 -31q42 0 69 30.5t27 59.5h74q0 -61 -49.5 -112.5 t-120.5 -51.5q-60 0 -157.5 30.5t-199.5 61.5t-174 31q-111 0 -168 -73l-28 -35l-121 137l14 23q100 153 307 204q-220 68 -359.5 255.5t-139.5 424.5zM145 694q0 -130 51 -248t137 -204t204.5 -136.5t248.5 -50.5t248 50.5t204 136.5t136.5 204t50.5 248t-50.5 248.5 t-136.5 204.5t-204 137t-248 51t-248.5 -51t-204.5 -137t-137 -204.5t-51 -248.5z" />
<glyph unicode="R" horiz-adv-x="1243" d="M111 1317v74h520q112 0 202.5 -34.5t147.5 -92t87 -128.5t30 -149q0 -76 -30 -144.5t-86.5 -121.5t-145.5 -84.5t-199 -32.5h-2v-2h2q62 -32 123 -125l213 -332q29 -44 51 -57.5t61 -13.5h84v-74h-84q-57 0 -96.5 22t-77.5 84l-213 330q-25 39 -40 60.5t-36 40.5 t-36.5 27t-45.5 14t-58.5 7t-80.5 1h-182v-586h-74v1317h-34zM219 657h412q96 0 173 28.5t124 76t71.5 105.5t24.5 120t-24.5 120t-71.5 105.5t-124 76t-173 28.5h-412v-660z" />
<glyph unicode="S" horiz-adv-x="1243" d="M74 199v67h71v-37q73 -64 208 -119t270 -55q116 0 209 23t150 61.5t86.5 85.5t29.5 97q0 41 -13 77t-32.5 64t-55.5 56t-69 48.5t-86.5 44t-95.5 40t-107 40.5q-195 70 -266 106q-193 98 -222 233q-6 26 -6 54q0 94 64 168.5t172.5 115t241.5 40.5q117 0 245 -42 t217 -130l13 -12v-68h-74v37q-75 68 -184.5 104.5t-216.5 36.5q-170 0 -287 -70.5t-117 -179.5q0 -46 22.5 -86t56 -69t97.5 -61t119.5 -54t149.5 -55q202 -72 291 -124q214 -123 214 -314q0 -150 -148.5 -245t-397.5 -95q-157 0 -311 66.5t-228 139.5z" />
<glyph unicode="T" horiz-adv-x="1243" d="M74 1280v111h1095v-111h-71v37h-441v-1317h-71v1317h-441v-37h-71z" />
<glyph unicode="U" horiz-adv-x="1314" d="M111 1317v74h108v-897q0 -182 128.5 -310.5t309.5 -128.5q182 0 311.5 129t129.5 310v897h71v-897q0 -212 -150 -362t-362 -150t-362 150t-150 362v823h-34z" />
<glyph unicode="V" horiz-adv-x="1243" d="M37 1317v74h80l506 -1276l514 1288l67 -27l-555 -1392h-55l-528 1333h-29z" />
<glyph unicode="W" horiz-adv-x="1974" d="M55 1317v74h80l469 -1270l346 921v201h74v-201l342 -921l477 1282l70 -27l-520 -1392h-54l-352 946l-356 -946h-56l-491 1333h-29z" />
<glyph unicode="X" horiz-adv-x="1243" d="M47 25l528 694l-495 649l59 43l484 -633l479 631l57 -45l-491 -645l528 -694l-59 -43l-514 675l-517 -675z" />
<glyph unicode="Y" horiz-adv-x="1243" d="M55 1317v74h74l492 -807h2l495 821l64 -37l-525 -868v-500h-71v500l-496 817h-35z" />
<glyph unicode="Z" horiz-adv-x="1169" d="M74 0v47l878 1268h2v2h-772v-37h-71v111h950v-50l-881 -1265h-2v-2h846v37h74v-111h-1024z" />
<glyph unicode="[" horiz-adv-x="438" d="M145 -219v1388h222v-71h-148v-1243h148v-74h-222z" />
<glyph unicode="\" horiz-adv-x="913" d="M49 1063l62 39l755 -1180l-61 -39z" />
<glyph unicode="]" horiz-adv-x="438" d="M74 -145h145v1243h-145v71h219v-1388h-219v74z" />
<glyph unicode="^" horiz-adv-x="802" d="M49 768l336 420q9 12 23 12q13 0 22 -12l324 -422l-45 -33l-301 393l-316 -395z" />
<glyph unicode="_" horiz-adv-x="1443" d="M74 -330h1243v-55h-1243v55z" />
<glyph unicode="`" horiz-adv-x="438" d="M55 1333l76 76l254 -256l-49 -55z" />
<glyph unicode="a" horiz-adv-x="950" d="M37 0v74h26l388 895h51l409 -955l-67 -28l-101 233h-536l-94 -219h-76zM238 293h475l-238 551z" />
<glyph unicode="b" horiz-adv-x="950" d="M111 879v71h370q113 0 200 -63t87 -156q0 -110 -143 -172v-4q116 -27 185 -109.5t69 -177.5q0 -109 -87.5 -188.5t-203.5 -79.5h-443v879h-34zM219 74h369q90 0 153.5 58t63.5 136q0 54 -31.5 109t-96.5 95t-145 40h-313v-438zM219 586h225q113 0 181.5 39.5t68.5 105.5 q0 57 -61.5 102.5t-151.5 45.5h-262v-293z" />
<glyph unicode="c" horiz-adv-x="987" d="M74 475q0 134 66 247.5t179.5 180t247.5 66.5q190 0 334 -131l12 -11v-59h-71v27q-123 102 -275 102q-173 0 -297.5 -124.5t-124.5 -297.5t124.5 -296.5t297.5 -123.5q180 0 307 133l56 -51q-70 -73 -164 -114t-199 -41q-134 0 -247.5 66t-179.5 179.5t-66 247.5z" />
<glyph unicode="d" horiz-adv-x="1024" d="M111 879v71h338q209 0 355 -138.5t146 -336.5t-146 -336.5t-355 -138.5h-304v879h-34zM219 74h234q177 0 301.5 117t124.5 284t-124.5 285.5t-301.5 118.5h-234v-805z" />
<glyph unicode="e" horiz-adv-x="876" d="M111 879v71h620v-108h-74v37h-438v-367h367v-74h-367v-364h512v37h74v-111h-660v879h-34z" />
<glyph unicode="f" horiz-adv-x="876" d="M111 879v71h694v-108h-74v37h-512v-367h367v-74h-367v-438h-74v879h-34z" />
<glyph unicode="g" horiz-adv-x="1024" d="M74 475q0 100 39.5 191.5t105.5 157.5t157.5 105.5t190.5 39.5q190 0 334 -131l12 -11v-59h-71v27q-123 102 -275 102q-174 0 -298 -124t-124 -298q0 -175 123.5 -297.5t298.5 -122.5q82 0 174 48t138 110v154h-193v71h264v-438h-61l-8 137h-2q-62 -65 -145.5 -110 t-166.5 -45q-134 0 -247.5 66t-179.5 179.5t-66 247.5z" />
<glyph unicode="h" horiz-adv-x="1024" d="M145 0v950h74v-438h586v438h74v-950h-74v438h-586v-438h-74z" />
<glyph unicode="i" d="M145 0v950h74v-950h-74z" />
<glyph unicode="j" horiz-adv-x="657" d="M74 43v68h71v-29q49 -27 111 -27q74 0 128 45t54 123v656h-327v71h401v-727q0 -111 -77 -176t-179 -65q-96 0 -168 51z" />
<glyph unicode="k" horiz-adv-x="950" d="M145 0v950h74v-585l506 585h80v-71h-45l-309 -359l325 -395q28 -33 42 -42t34 -9h27v-74h-27q-40 0 -66.5 16.5t-64.5 61.5l-320 387l-180 -211h-2v-254h-74z" />
<glyph unicode="l" horiz-adv-x="876" d="M145 0v950h74v-876h512v37h74v-111h-660z" />
<glyph unicode="m" horiz-adv-x="1388" d="M55 0v74h27l115 895h57l440 -893l441 893h57l125 -965l-74 -12l-106 819l-408 -829h-70l-407 829l-107 -811h-90z" />
<glyph unicode="n" horiz-adv-x="1024" d="M111 879v71h120l574 -839v839h74v-968h-76l-584 860v-842h-74v879h-34z" />
<glyph unicode="o" horiz-adv-x="1095" d="M74 475q0 203 139 348.5t336 145.5t336 -145.5t139 -348.5t-139 -348t-336 -145t-336 145t-139 348zM145 475q0 -174 119.5 -297t284.5 -123t283 123t118 297t-118 298t-283 124t-284.5 -124t-119.5 -298z" />
<glyph unicode="p" horiz-adv-x="950" d="M111 879v71h419q145 0 247 -95t102 -232q0 -138 -99 -234t-239 -96h-322v-293h-74v879h-34zM219 367h309q114 0 195.5 74.5t81.5 181.5t-81.5 181.5t-195.5 74.5h-309v-512z" />
<glyph unicode="q" horiz-adv-x="1095" d="M74 475q0 206 136 350t339 144t339 -144t136 -350q0 -201 -130.5 -344t-326.5 -149q-110 0 -191.5 -56t-127.5 -137q79 43 160 43q63 0 127 -19t106.5 -42.5t93.5 -42.5t92 -19q42 0 69.5 30.5t27.5 59.5h73q0 -61 -49.5 -112.5t-120.5 -51.5q-49 0 -104.5 19t-98 42.5 t-101.5 42.5t-115 19q-57 0 -115 -28.5t-68 -67.5l-8 -29h-80v37q0 83 66.5 184t177.5 156q-139 53 -223 179.5t-84 285.5zM145 475q0 -175 116 -297.5t288 -122.5q171 0 286 122.5t115 297.5t-115 298.5t-286 123.5q-172 0 -288 -123.5t-116 -298.5z" />
<glyph unicode="r" horiz-adv-x="950" d="M111 879v71h346q165 0 256.5 -82t91.5 -196q0 -99 -67 -179.5t-189 -107.5q30 -19 76 -78l151 -182q28 -33 41 -42t35 -9h27v-74h-27q-39 0 -66.5 16.5t-64.5 61.5l-150 182q-6 8 -22.5 27.5t-19.5 23.5t-15.5 17t-16.5 15t-16.5 9.5t-20.5 8t-23.5 3.5t-31.5 3h-38h-148 v-367h-74v879h-34zM219 438h236q127 0 201.5 70t74.5 162q0 87 -70.5 148t-203.5 61h-238v-441z" />
<glyph unicode="s" horiz-adv-x="950" d="M74 145v56h71v-29q103 -117 330 -117q159 0 244.5 53.5t85.5 120.5q0 53 -36.5 94t-94.5 68t-128.5 50t-141 48.5t-128.5 56.5t-94.5 80t-36.5 113q0 90 101 160t229 70q200 0 320 -117l10 -10v-56h-74v25q-99 86 -256 86q-105 0 -180.5 -53.5t-75.5 -104.5 q0 -49 36.5 -87t94.5 -63t128.5 -48t141 -49t128.5 -58.5t94.5 -85t36.5 -119.5q0 -109 -111 -178t-293 -69q-143 0 -243 44.5t-152 110.5z" />
<glyph unicode="t" horiz-adv-x="950" d="M74 842v108h805v-108h-74v37h-293v-879h-74v879h-293v-37h-71z" />
<glyph unicode="u" horiz-adv-x="1024" d="M111 879v71h108v-602q0 -122 85.5 -207.5t207.5 -85.5t207.5 85.5t85.5 207.5v602h74v-602q0 -151 -108 -258.5t-259 -107.5t-259 107.5t-108 258.5v531h-34z" />
<glyph unicode="v" horiz-adv-x="950" d="M37 879v71h74l364 -844l369 859l67 -29l-409 -954h-51l-385 897h-29z" />
<glyph unicode="w" horiz-adv-x="1388" d="M55 879v71h78l305 -827l219 631v159h74v-159l219 -631l312 842l69 -27l-352 -954h-55l-230 653l-227 -653h-55l-332 895h-25z" />
<glyph unicode="x" horiz-adv-x="950" d="M43 25l385 473l-305 381h-31v71h66l317 -395l336 420l59 -47l-348 -430l385 -473l-59 -50l-373 465l-373 -465z" />
<glyph unicode="y" horiz-adv-x="950" d="M55 879v71h84l336 -532l352 561l64 -41l-379 -600v-338h-74v338l-340 541h-43z" />
<glyph unicode="z" horiz-adv-x="876" d="M55 0v43l621 836h-512v-37h-72v108h694v-47l-618 -829h563v37h74v-111h-750z" />
<glyph unicode="{" horiz-adv-x="438" d="M0 494v110h37q14 0 30 6t34.5 20.5t31 45.5t12.5 74v530q0 64 13.5 112t34 75t51 43t59 21t64.5 5v-74q-36 0 -59.5 -6t-45.5 -24t-32.5 -55.5t-10.5 -96.5v-530q0 -148 -108 -201q47 -23 77.5 -73t30.5 -128v-530q0 -59 10.5 -97t32.5 -56.5t46 -25t59 -6.5v-71 q-36 0 -64.5 5t-59 21t-51 43t-34 75t-13.5 112v530q0 43 -12.5 74t-31 45.5t-34.5 20.5t-30 6h-37z" />
<glyph unicode="|" d="M145 -367v1684h74v-1684h-74z" />
<glyph unicode="}" horiz-adv-x="438" d="M74 -367q73 0 109 36.5t36 148.5v530q0 78 32 128t79 73q-111 54 -111 201v530q0 59 -10 96.5t-31.5 55.5t-44.5 24t-59 6v74q36 0 64 -5t58.5 -21t50.5 -43t33 -75t13 -112v-530q0 -43 12.5 -74t31 -45.5t34.5 -20.5t30 -6h37v-110h-37q-14 0 -30 -6t-34.5 -20.5 t-31 -45.5t-12.5 -74v-530q0 -64 -13 -112t-33 -75t-50.5 -43t-58.5 -21t-64 -5v71z" />
<glyph unicode="~" horiz-adv-x="731" d="M61 657q10 65 51.5 99.5t96.5 34.5q40 0 88 -23l172 -80q32 -14 55 -14q21 0 35 7t22 22.5t10 20.5t5 19l74 -12q-11 -61 -49.5 -96t-96.5 -35q-42 0 -90 23l-170 79q-35 15 -55 15q-58 0 -74 -70z" />
<glyph unicode="&#xa1;" d="M111 -74h34v731h74v-802h-108v71zM119 905q0 26 18.5 45t44.5 19t46 -19t20 -45t-19.5 -44.5t-46.5 -18.5q-26 0 -44.5 18.5t-18.5 44.5z" />
<glyph unicode="&#xa2;" horiz-adv-x="913" d="M74 475q0 174 115 304.5t286 150.5v94h74v-92q151 -6 278 -111l15 -10v-80h-74v45q-102 78 -219 84v-768q153 6 262 121l53 -51q-129 -138 -315 -144v-92h-74v97q-171 20 -286 149t-115 303zM145 475q0 -145 94.5 -253t235.5 -128v762q-141 -20 -235.5 -128t-94.5 -253z " />
<glyph unicode="&#xa3;" horiz-adv-x="876" d="M18 37l37 37q67 0 115.5 46t48.5 111v207h-108v74h108v229q0 96 69 162t165 66q64 0 116.5 -30t83.5 -83l4 -10v-41h-71v22q-50 70 -133 70q-65 0 -112.5 -44t-47.5 -112v-229h182v-74h-182v-207q0 -93 -64 -157h502v37h74v-111h-750z" />
<glyph unicode="&#xa4;" horiz-adv-x="657" d="M43 725l53 49l86 -84q59 47 152 47q91 0 160 -55l88 90l49 -55l-86 -86q51 -66 51 -156q0 -92 -47 -151l80 -82l-56 -47l-75 75q-72 -57 -164 -57q-88 0 -154 51l-84 -80l-47 56l78 75q-53 67 -53 160q0 94 55 164zM145 475q0 -77 56 -133q55 -55 133 -55q80 0 135 55 q53 53 53 133t-53 133q-56 56 -135 56q-77 0 -133 -56t-56 -133z" />
<glyph unicode="&#xa5;" horiz-adv-x="950" d="M55 879v71h84l336 -532l352 561l64 -41l-363 -571h166v-74h-182v-293h-74v293h-182v74h166l-324 512h-43z" />
<glyph unicode="&#xa6;" d="M145 293h74v-731h-74v731zM145 657v734h74v-734h-74z" />
<glyph unicode="&#xa7;" horiz-adv-x="913" d="M70 561q0 77 44.5 138t114.5 83q-49 58 -49 144q0 101 80.5 172t194.5 71t195 -79t81 -193h-74q0 83 -58.5 142t-143.5 59q-84 0 -143.5 -50.5t-59.5 -121.5q0 -47 25.5 -84t67 -60t94.5 -46.5t108 -42t108 -46.5t94.5 -60t67 -83t25.5 -115q0 -77 -45 -138t-115 -83 q49 -58 49 -143q0 -101 -81 -172.5t-195 -71.5t-194.5 80t-80.5 194h72q0 -83 59 -141.5t144 -58.5t143.5 49.5t58.5 120.5q0 53 -32.5 93t-84 66t-114 49t-125.5 50t-114.5 60.5t-84 89t-32.5 128.5zM143 561q0 -59 31 -103.5t85 -74t111 -51t126.5 -49.5t113.5 -56 q66 6 112 52.5t46 109.5q0 59 -31 103.5t-85 74t-111 51t-126.5 49.5t-113.5 56q-66 -6 -112 -52.5t-46 -109.5z" />
<glyph unicode="&#xa8;" horiz-adv-x="731" d="M92 1217q0 26 19 44.5t45 18.5t44.5 -18.5t18.5 -44.5q0 -27 -18.5 -46.5t-44.5 -19.5t-45 20t-19 46zM520 1217q0 26 19.5 44.5t46.5 18.5q26 0 44.5 -18.5t18.5 -44.5q0 -27 -18.5 -46.5t-44.5 -19.5t-46 20t-20 46z" />
<glyph unicode="&#xa9;" horiz-adv-x="1681" d="M63 698q0 194 103 353q100 164 283 262q184 98 393 98t393 -98q180 -97 281 -262q102 -157 102 -353q0 -195 -102 -352q-101 -165 -281 -262q-177 -94 -393 -94t-393 94q-183 98 -283 262q-103 159 -103 352zM137 698q0 -171 92 -313q99 -155 254 -238q161 -86 359 -86 q200 0 358 86q155 83 254 238q90 139 90 313q0 177 -90 316q-96 151 -254 235q-165 90 -358 90q-194 0 -359 -90q-158 -84 -254 -235q-92 -142 -92 -316zM401 694q0 189 135 323t324 134q166 0 297 -111l12 -10v-80h-71v45q-109 84 -238 84q-158 0 -271.5 -113.5 t-113.5 -271.5t113.5 -270.5t271.5 -112.5q166 0 281 121l53 -51q-134 -143 -334 -143q-124 0 -229.5 61t-167.5 166t-62 229z" />
<glyph unicode="&#xaa;" horiz-adv-x="802" d="M74 868q0 98 84.5 164t228.5 66h270v71q0 99 -61 142t-158 43q-126 0 -219 -54v-20h-74v57l17 11q45 36 121 56.5t155 20.5q60 0 111 -14t93 -43t65.5 -80t23.5 -119v-438h19v-74h-93v58q-108 -92 -270 -92q-138 0 -225.5 68t-87.5 177zM145 868q0 -82 69.5 -128 t172.5 -46q87 0 162.5 36.5t107.5 98.5v195h-270q-116 0 -179 -46t-63 -110z" />
<glyph unicode="&#xab;" horiz-adv-x="731" d="M55 446v58l254 311l58 -47l-240 -291v-6l240 -287l-58 -45zM348 446v58l254 311l55 -47l-237 -291v-6l237 -287l-55 -45z" />
<glyph unicode="&#xac;" horiz-adv-x="1095" d="M74 657v74h876v-512h-71v438h-805z" />
<glyph unicode="&#xad;" horiz-adv-x="657" d="M74 512v74h512v-74h-512z" />
<glyph unicode="&#xae;" horiz-adv-x="1681" d="M63 698q0 194 103 353q100 164 283 262q184 98 393 98t393 -98q180 -97 281 -262q102 -157 102 -353q0 -195 -102 -352q-101 -165 -281 -262q-177 -94 -393 -94t-393 94q-183 98 -283 262q-103 159 -103 352zM137 698q0 -171 92 -313q99 -155 254 -238q161 -86 359 -86 q200 0 358 86q155 83 254 238q90 139 90 313q0 177 -90 316q-96 151 -254 235q-165 90 -358 90q-194 0 -359 -90q-158 -84 -254 -235q-92 -142 -92 -316zM586 274v877h305q139 0 217 -75t78 -179q0 -94 -67.5 -161t-188.5 -77q36 -36 51 -61l135 -213q16 -25 24 -31t29 -6 h52v-74h-52q-75 0 -116 70l-133 213q-37 59 -60.5 70.5t-105.5 11.5h-97v-365h-71zM657 713h234q106 0 163.5 55t57.5 129t-57 128t-164 54h-234v-366z" />
<glyph unicode="&#xaf;" horiz-adv-x="731" d="M74 1243v74h583v-74h-583z" />
<glyph unicode="&#xb0;" horiz-adv-x="512" d="M74 1206q0 73 56 129t126 56t126 -56t56 -129q0 -72 -56 -127t-126 -55t-126 55t-56 127zM145 1206q0 -43 35.5 -75.5t75.5 -32.5t75.5 32.5t35.5 75.5t-35.5 77t-75.5 34t-75.5 -34t-35.5 -77z" />
<glyph unicode="&#xb1;" horiz-adv-x="802" d="M74 145v74h657v-74h-657zM74 657v74h293v293h71v-293h293v-74h-293v-290h-71v290h-293z" />
<glyph unicode="&#xb2;" horiz-adv-x="657" d="M74 879v61l284 262q86 79 120 135t34 107q0 75 -53.5 129.5t-128.5 54.5t-130 -54.5t-55 -129.5h-71q0 106 75 182t181 76t181 -76t75 -182q0 -71 -41.5 -141t-136.5 -156l-213 -197h317v35h74v-106h-512z" />
<glyph unicode="&#xb3;" horiz-adv-x="657" d="M74 1110h71q0 -72 54.5 -125t130.5 -53t129 52.5t53 125.5t-53 125.5t-129 52.5v72q58 0 98.5 39.5t40.5 95.5t-40.5 94.5t-98.5 38.5t-99 -38.5t-41 -94.5h-73q0 86 62.5 146.5t150.5 60.5t149.5 -60.5t61.5 -146.5q0 -51 -30 -96t-77 -72v-2q69 -30 110.5 -88 t41.5 -127q0 -104 -75 -177t-181 -73t-181 73t-75 177z" />
<glyph unicode="&#xb4;" horiz-adv-x="438" d="M70 1167l202 205l54 -51l-205 -205z" />
<glyph unicode="&#xb6;" horiz-adv-x="876" d="M74 879q0 118 86 204t207 86h364v-1388h-74v1317h-219v-1317h-71v805q-121 0 -207 86t-86 207zM145 879q0 -90 66 -156t156 -66v441q-90 0 -156 -66t-66 -153z" />
<glyph unicode="&#xb7;" d="M145 438v92h111v-92h-111z" />
<glyph unicode="&#xb8;" horiz-adv-x="821" d="M209 -313l47 28q37 -59 113 -59q52 0 79 32.5t27 78.5q0 45 -25.5 78.5t-72.5 33.5q-9 0 -17 -1t-13 -2t-14.5 -4t-12 -4t-14.5 -6.5t-15 -6.5l-45 12l45 158l53 -15l-25 -84q24 8 58 8q79 0 125.5 -53t46.5 -123q0 -74 -55 -115.5t-125 -41.5q-50 0 -93 22.5t-67 63.5z " />
<glyph unicode="&#xb9;" d="M57 1571l99 110h63v-802h-74v682l-34 -37z" />
<glyph unicode="&#xba;" horiz-adv-x="950" d="M74 1024q0 166 117.5 283.5t283.5 117.5t285 -118t119 -283t-119 -283t-285 -118t-283.5 117.5t-117.5 283.5zM145 1024q0 -135 97.5 -232.5t232.5 -97.5t232.5 97.5t97.5 232.5t-97.5 232.5t-232.5 97.5t-232.5 -97.5t-97.5 -232.5z" />
<glyph unicode="&#xbb;" horiz-adv-x="731" d="M74 182l237 291v6l-237 287l55 45l256 -307v-58l-256 -311zM367 182l237 291v6l-237 287l55 45l254 -307v-58l-254 -311z" />
<glyph unicode="&#xbc;" horiz-adv-x="1314" d="M8 96l1024 1172l55 -47l-1024 -1172zM57 1278l99 113h63v-805h-74v684l-34 -39zM694 74v59l6 10q152 230 208.5 350.5t56.5 237.5h71q0 -130 -53.5 -254.5t-189.5 -331.5h305v293h71v-293h74v-71h-74v-148h-71v148h-404z" />
<glyph unicode="&#xbd;" horiz-adv-x="1314" d="M8 96l1024 1172l55 -47l-1024 -1172zM57 1278l99 113h63v-805h-74v684l-34 -39zM731 -10l285 260q86 79 119.5 135t33.5 107v2q0 75 -53.5 128.5t-128.5 53.5t-128.5 -53.5t-53.5 -128.5h-74q0 106 75 181t181 75t181 -75t75 -181v-2q0 -71 -41 -140.5t-135 -154.5 l-215 -197h317v33h74v-107h-512v64z" />
<glyph unicode="&#xbe;" horiz-adv-x="1536" d="M74 817h71q0 -72 54.5 -125t130.5 -53t129 52.5t53 125.5t-53 125.5t-129 52.5v72q58 0 98.5 39.5t40.5 95.5t-40.5 94.5t-98.5 38.5t-99 -38.5t-41 -94.5h-73q0 86 62.5 146.5t150.5 60.5t149.5 -60.5t61.5 -146.5q0 -51 -30 -96t-77 -72v-2q69 -30 110.5 -88t41.5 -127 q0 -104 -75 -177t-181 -73t-181 73t-75 177zM229 96l1024 1172l54 -47l-1024 -1172zM913 74v59l7 10q152 229 208 350t56 238h71q0 -130 -53.5 -254.5t-189.5 -331.5h305v293h74v-293h71v-71h-71v-148h-74v148h-404z" />
<glyph unicode="&#xbf;" horiz-adv-x="694" d="M74 127q0 58 19 104.5t47.5 73t61.5 51.5t61.5 42.5t47.5 43.5t19 56v159h71v-159q0 -44 -19 -79t-47.5 -55.5t-61.5 -44t-61.5 -45.5t-47.5 -60t-19 -87q0 -82 61 -141.5t144 -59.5q82 0 140.5 59.5t58.5 141.5h74q0 -112 -80 -192t-193 -80t-194.5 79.5t-81.5 192.5z M301 905q0 26 20 45t46 19t44.5 -19t18.5 -45t-18.5 -44.5t-44.5 -18.5q-27 0 -46.5 18.5t-19.5 44.5z" />
<glyph unicode="&#xc0;" horiz-adv-x="1243" d="M55 0v74h29l530 1351h52l557 -1411l-68 -28l-149 381h-727l-144 -367h-80zM307 438h670l-336 850h-2zM481 1759l54 51l202 -204l-53 -52z" />
<glyph unicode="&#xc1;" horiz-adv-x="1243" d="M55 0v74h29l530 1351h52l557 -1411l-68 -28l-149 381h-727l-144 -367h-80zM307 438h670l-336 850h-2zM545 1606l203 204l53 -51l-205 -205z" />
<glyph unicode="&#xc2;" horiz-adv-x="1243" d="M55 0v74h29l530 1351h52l557 -1411l-68 -28l-149 381h-727l-144 -367h-80zM307 438h670l-336 850h-2zM338 1593l272 217h60l272 -217l-45 -57l-254 201h-6l-252 -201z" />
<glyph unicode="&#xc3;" horiz-adv-x="1243" d="M55 0v74h29l530 1351h52l557 -1411l-68 -28l-149 381h-727l-144 -367h-80zM307 438h670l-336 850h-2zM365 1632l8 49q11 62 48 92.5t87 30.5q49 0 88 -20l113 -62q41 -18 63 -18q51 0 62 63l10 52l71 -15l-8 -49q-11 -62 -48 -92.5t-87 -30.5q-48 0 -88 21l-113 63 q-39 17 -63 17q-51 0 -62 -64l-12 -49z" />
<glyph unicode="&#xc4;" horiz-adv-x="1243" d="M55 0v74h29l530 1351h52l557 -1411l-68 -28l-149 381h-727l-144 -367h-80zM307 438h670l-336 850h-2zM367 1655q0 26 18.5 44.5t44.5 18.5t45 -18.5t19 -44.5t-19 -45t-45 -19t-44.5 19t-18.5 45zM795 1655q0 26 19.5 44.5t45.5 18.5t45 -18.5t19 -44.5t-19 -45t-45 -19 t-45.5 19t-19.5 45z" />
<glyph unicode="&#xc5;" horiz-adv-x="1243" d="M55 0v74h29l530 1351h52l557 -1411l-68 -28l-149 381h-727l-144 -367h-80zM307 438h670l-336 850h-2zM457 1647q0 71 59 127q58 55 123 55q67 0 125 -55q59 -56 59 -127q0 -73 -59 -129t-125 -56q-62 0 -123 58q-59 56 -59 127zM512 1647q0 -47 41 -88t86 -41q43 0 88 41 q41 41 41 88q0 45 -41 86q-45 41 -88 41q-41 0 -86 -41q-41 -41 -41 -86z" />
<glyph unicode="&#xc6;" horiz-adv-x="1755" d="M37 0v74h14l660 1317h899v-111h-74v37h-604v-586h311v-74h-311v-583h678v37h71v-111h-821v367h-579l-187 -367h-57zM315 438h545v879h-102z" />
<glyph unicode="&#xc7;" horiz-adv-x="1280" d="M74 694q0 193 95.5 358t259.5 261t357 96q220 0 404 -125l16 -12v-66h-71v27q-162 102 -349 102q-130 0 -248.5 -51t-204.5 -137t-137 -204.5t-51 -248.5t51 -248t137 -204t204.5 -136.5t248.5 -50.5q209 0 369 117l45 -59q-184 -131 -414 -131q-193 0 -357 95.5 t-259.5 259.5t-95.5 357zM530 -342l48 29q37 -60 112 -60q52 0 79.5 33t27.5 78t-26 78.5t-73 33.5q-9 0 -17 -1t-13 -2t-14.5 -4t-12 -4t-14.5 -6.5t-15 -6.5l-45 12l45 158l54 -14l-25 -84q24 8 57 8q79 0 125.5 -53t46.5 -123q0 -74 -55 -116t-125 -42q-50 0 -93 22.5 t-67 63.5z" />
<glyph unicode="&#xc8;" horiz-adv-x="1169" d="M111 1317v74h913v-111h-74v37h-731v-586h438v-74h-438v-583h805v37h74v-111h-953v1317h-34zM426 1759l53 51l203 -204l-51 -52z" />
<glyph unicode="&#xc9;" horiz-adv-x="1169" d="M111 1317v74h913v-111h-74v37h-731v-586h438v-74h-438v-583h805v37h74v-111h-953v1317h-34zM492 1606l202 204l54 -51l-205 -205z" />
<glyph unicode="&#xca;" horiz-adv-x="1169" d="M111 1317v74h913v-111h-74v37h-731v-586h438v-74h-438v-583h805v37h74v-111h-953v1317h-34zM283 1591l272 219h59l273 -219l-45 -55l-254 201h-6l-252 -201z" />
<glyph unicode="&#xcb;" horiz-adv-x="1169" d="M111 1317v74h913v-111h-74v37h-731v-586h438v-74h-438v-583h805v37h74v-111h-953v1317h-34zM311 1655q0 26 19 44.5t45 18.5t44.5 -18.5t18.5 -44.5q0 -27 -18.5 -46.5t-44.5 -19.5t-45 20t-19 46zM739 1655q0 26 19.5 44.5t46.5 18.5q26 0 44.5 -18.5t18.5 -44.5 q0 -27 -18.5 -46.5t-44.5 -19.5t-46 20t-20 46z" />
<glyph unicode="&#xcc;" d="M25 1759l53 51l203 -204l-54 -52zM145 0v1391h74v-1391h-74z" />
<glyph unicode="&#xcd;" d="M88 1606l203 204l53 -51l-205 -205zM145 0v1391h74v-1391h-74z" />
<glyph unicode="&#xce;" d="M-119 1593l273 217h59l272 -217l-47 -57l-252 201h-6l-254 -201zM145 0v1391h74v-1391h-74z" />
<glyph unicode="&#xcf;" d="M-18 1655q0 26 18.5 44.5t44.5 18.5q27 0 46.5 -18.5t19.5 -44.5t-20 -45t-46 -19t-44.5 19t-18.5 45zM145 0v1391h74v-1391h-74zM264 1655q0 26 19.5 44.5t46.5 18.5q26 0 44.5 -18.5t18.5 -44.5t-18.5 -45t-44.5 -19t-46 19t-20 45z" />
<glyph unicode="&#xd0;" horiz-adv-x="1388" d="M74 657v74h71v586h-34v74h34h39h439q189 0 349 -93.5t252.5 -253.5t92.5 -350q0 -142 -54.5 -270.5t-147.5 -221.5t-221.5 -147.5t-270.5 -54.5h-478v657h-71zM219 74h404q127 0 241.5 49t197.5 132t132 197.5t49 241.5q0 169 -82.5 312.5t-225.5 227t-312 83.5h-404 v-586h367v-74h-367v-583z" />
<glyph unicode="&#xd1;" horiz-adv-x="1314" d="M111 1317v74h108l879 -1264v1264h71v-1391h-71l-879 1264v-1264h-74v1317h-34zM418 1632l10 49q11 62 48 92.5t87 30.5q49 0 88 -20l113 -62q41 -18 63 -18q51 0 62 63l10 52l72 -15l-8 -49q-11 -62 -48.5 -92.5t-87.5 -30.5q-47 0 -88 21l-114 63q-39 17 -62 17 q-50 0 -61 -64l-13 -49z" />
<glyph unicode="&#xd2;" horiz-adv-x="1607" d="M74 694q0 148 58 283.5t156 233.5t233.5 156t283.5 58t283.5 -58t233.5 -156t156 -233.5t58 -283.5t-58 -283.5t-156 -233.5t-233.5 -156t-283.5 -58t-283.5 58t-233.5 156t-156 233.5t-58 283.5zM145 694q0 -179 88.5 -330.5t240 -239t331.5 -87.5q135 0 256.5 51.5 t209.5 139.5t139.5 209.5t51.5 256.5q0 180 -87.5 331.5t-239 240t-330.5 88.5q-134 0 -256.5 -52t-211 -140.5t-140.5 -211t-52 -256.5zM645 1759l53 51l203 -204l-53 -52z" />
<glyph unicode="&#xd3;" horiz-adv-x="1570" d="M74 694q0 193 95.5 358t259.5 261t357 96q145 0 277 -57t227.5 -153t152 -228t56.5 -277q0 -193 -95.5 -357t-260 -259.5t-357.5 -95.5t-357 95.5t-259.5 259.5t-95.5 357zM145 694q0 -130 51 -248t137 -204t204.5 -136.5t248.5 -50.5t248 50.5t204 136.5t136.5 204 t50.5 248t-50.5 248.5t-136.5 204.5t-204 137t-248 51t-248.5 -51t-204.5 -137t-137 -204.5t-51 -248.5zM692 1606l203 204l53 -51l-205 -205z" />
<glyph unicode="&#xd4;" horiz-adv-x="1607" d="M74 694q0 148 58 283.5t156 233.5t233.5 156t283.5 58t283.5 -58t233.5 -156t156 -233.5t58 -283.5t-58 -283.5t-156 -233.5t-233.5 -156t-283.5 -58t-283.5 58t-233.5 156t-156 233.5t-58 283.5zM145 694q0 -179 88.5 -330.5t240 -239t331.5 -87.5q135 0 256.5 51.5 t209.5 139.5t139.5 209.5t51.5 256.5q0 180 -87.5 331.5t-239 240t-330.5 88.5q-134 0 -256.5 -52t-211 -140.5t-140.5 -211t-52 -256.5zM504 1593l272 217h58l272 -217l-45 -57l-252 201h-8l-252 -201z" />
<glyph unicode="&#xd5;" horiz-adv-x="1607" d="M74 694q0 148 58 283.5t156 233.5t233.5 156t283.5 58t283.5 -58t233.5 -156t156 -233.5t58 -283.5t-58 -283.5t-156 -233.5t-233.5 -156t-283.5 -58t-283.5 58t-233.5 156t-156 233.5t-58 283.5zM145 694q0 -179 88.5 -330.5t240 -239t331.5 -87.5q135 0 256.5 51.5 t209.5 139.5t139.5 209.5t51.5 256.5q0 180 -87.5 331.5t-239 240t-330.5 88.5q-134 0 -256.5 -52t-211 -140.5t-140.5 -211t-52 -256.5zM528 1632l9 49q11 62 49 92.5t88 30.5q47 0 86 -20l114 -62q41 -18 62 -18q52 0 63 63l11 52l71 -15l-10 -49q-11 -62 -48 -92.5 t-87 -30.5q-48 0 -88 21l-113 63q-39 17 -61 17q-53 0 -64 -64l-10 -49z" />
<glyph unicode="&#xd6;" horiz-adv-x="1607" d="M74 694q0 148 58 283.5t156 233.5t233.5 156t283.5 58t283.5 -58t233.5 -156t156 -233.5t58 -283.5t-58 -283.5t-156 -233.5t-233.5 -156t-283.5 -58t-283.5 58t-233.5 156t-156 233.5t-58 283.5zM145 694q0 -179 88.5 -330.5t240 -239t331.5 -87.5q135 0 256.5 51.5 t209.5 139.5t139.5 209.5t51.5 256.5q0 180 -87.5 331.5t-239 240t-330.5 88.5q-134 0 -256.5 -52t-211 -140.5t-140.5 -211t-52 -256.5zM530 1655q0 26 19 44.5t45 18.5t44.5 -18.5t18.5 -44.5t-18.5 -45t-44.5 -19t-45 19t-19 45zM961 1655q0 26 18.5 44.5t44.5 18.5 t44.5 -18.5t18.5 -44.5t-18.5 -45t-44.5 -19t-44.5 19t-18.5 45z" />
<glyph unicode="&#xd7;" horiz-adv-x="657" d="M70 453l209 204l-209 207l53 54l207 -209l207 209l51 -54l-207 -207l209 -204l-53 -54l-207 207l-207 -207z" />
<glyph unicode="&#xd8;" horiz-adv-x="1570" d="M74 694q0 193 95.5 358t259.5 261t357 96q135 0 259 -49t221 -137l135 135l51 -51l-135 -136q86 -97 134 -220t48 -257q0 -193 -95.5 -357t-260 -259.5t-357.5 -95.5q-134 0 -256.5 48.5t-220.5 135.5l-137 -137l-51 51l137 137q-88 97 -136 219.5t-48 257.5zM145 694 q0 -119 43.5 -229t120.5 -197l903 903q-182 164 -426 164q-130 0 -248.5 -51t-204.5 -137t-137 -204.5t-51 -248.5zM360 217q86 -77 196.5 -119.5t229.5 -42.5q130 0 248 50.5t204 136.5t136.5 204t50.5 248q0 242 -161 424z" />
<glyph unicode="&#xd9;" horiz-adv-x="1314" d="M111 1317v74h108v-916q0 -181 128.5 -309.5t309.5 -128.5q182 0 311.5 128.5t129.5 309.5v916h71v-916q0 -212 -150 -362t-362 -150t-362 150t-150 362v842h-34zM500 1759l53 51l203 -204l-54 -52z" />
<glyph unicode="&#xda;" horiz-adv-x="1314" d="M111 1317v74h108v-916q0 -181 128.5 -309.5t309.5 -128.5q182 0 311.5 128.5t129.5 309.5v916h71v-916q0 -212 -150 -362t-362 -150t-362 150t-150 362v842h-34zM563 1606l203 204l53 -51l-205 -205z" />
<glyph unicode="&#xdb;" horiz-adv-x="1314" d="M111 1317v74h108v-916q0 -181 128.5 -309.5t309.5 -128.5q182 0 311.5 128.5t129.5 309.5v916h71v-916q0 -212 -150 -362t-362 -150t-362 150t-150 362v842h-34zM356 1593l273 217h59l273 -217l-48 -57l-251 201h-7l-254 -201z" />
<glyph unicode="&#xdc;" horiz-adv-x="1314" d="M111 1317v74h108v-916q0 -181 128.5 -309.5t309.5 -128.5q182 0 311.5 128.5t129.5 309.5v916h71v-916q0 -212 -150 -362t-362 -150t-362 150t-150 362v842h-34zM385 1655q0 26 19 44.5t45 18.5t44.5 -18.5t18.5 -44.5t-18.5 -45t-44.5 -19t-45 19t-19 45zM813 1655 q0 26 19.5 44.5t46.5 18.5q26 0 44.5 -18.5t18.5 -44.5t-18.5 -45t-44.5 -19t-46 19t-20 45z" />
<glyph unicode="&#xdd;" horiz-adv-x="1243" d="M55 1317v74h74l492 -807h2l497 825l66 -37l-529 -872v-500h-71v500l-496 817h-35zM526 1606l203 204l53 -51l-204 -205z" />
<glyph unicode="&#xde;" horiz-adv-x="1169" d="M145 0v1391h74v-148h404q198 0 336.5 -138.5t138.5 -336.5t-138.5 -336.5t-336.5 -138.5h-404v-293h-74zM219 367h404q166 0 283.5 117.5t117.5 283.5t-117.5 283.5t-283.5 117.5h-404v-802z" />
<glyph unicode="&#xdf;" horiz-adv-x="1024" d="M74 586v71h71v84q0 99 93.5 163.5t218.5 64.5q137 0 236.5 -78t99.5 -193v-49q-93 13 -142 13q-91 0 -152 -38t-61 -83q0 -32 28 -57t73.5 -42t100 -33t109 -35.5t100 -43.5t73.5 -63t28 -89q0 -85 -94 -140.5t-223 -55.5q-91 0 -181 26.5t-135 85.5l60 45 q28 -37 100.5 -60.5t155.5 -23.5q108 0 177 40t69 83q0 41 -38 72t-95 48.5t-123 39.5t-123 44.5t-95 63t-38 95.5q0 85 85.5 139.5t198.5 54.5q18 0 64 -4q-17 72 -91 119t-167 47q-95 0 -166.5 -45.5t-71.5 -110.5v-741h-74v586h-71z" />
<glyph unicode="&#xe0;" horiz-adv-x="950" d="M37 0v74h26l388 895h51l409 -955l-67 -28l-101 233h-536l-94 -219h-76zM238 293h475l-238 551zM315 1321l54 51l202 -205l-51 -51z" />
<glyph unicode="&#xe1;" horiz-adv-x="950" d="M37 0v74h26l388 895h51l409 -955l-67 -28l-101 233h-536l-94 -219h-76zM238 293h475l-238 551zM381 1167l203 205l53 -51l-205 -205z" />
<glyph unicode="&#xe2;" horiz-adv-x="950" d="M37 0v74h26l388 895h51l409 -955l-67 -28l-101 233h-536l-94 -219h-76zM174 1153l272 219h60l272 -219l-45 -55l-254 200h-6l-252 -200zM238 293h475l-238 551z" />
<glyph unicode="&#xe3;" horiz-adv-x="950" d="M37 0v74h26l388 895h51l409 -955l-67 -28l-101 233h-536l-94 -219h-76zM199 1194l10 49q11 62 48 92.5t87 30.5q49 0 88 -20l113 -62q41 -18 61 -18q53 0 64 63l10 49l72 -12l-9 -49q-11 -62 -49 -92.5t-88 -30.5q-47 0 -86 20l-114 62q-41 18 -62 18q-52 0 -63 -63 l-11 -49zM238 293h475l-238 551z" />
<glyph unicode="&#xe4;" horiz-adv-x="950" d="M37 0v74h26l388 895h51l409 -955l-67 -28l-101 233h-536l-94 -219h-76zM203 1217q0 26 18.5 44.5t44.5 18.5t45 -18.5t19 -44.5t-19 -46t-45 -20t-44.5 19.5t-18.5 46.5zM238 293h475l-238 551zM631 1217q0 26 19.5 44.5t45.5 18.5t45 -18.5t19 -44.5t-19 -46t-45 -20 t-45.5 20t-19.5 46z" />
<glyph unicode="&#xe5;" horiz-adv-x="950" d="M37 0v74h26l388 895h51l409 -955l-67 -28l-101 233h-536l-94 -219h-76zM238 293h475l-238 551zM293 1206q0 75 57 129q59 56 125 56t125 -56q57 -54 57 -129q0 -73 -57 -127q-58 -55 -125 -55q-65 0 -125 57q-57 54 -57 125zM346 1206q0 -47 41 -88q39 -39 88 -39 q45 0 88 39q41 41 41 88t-41 88q-45 41 -88 41t-88 -41q-41 -41 -41 -88z" />
<glyph unicode="&#xe6;" horiz-adv-x="1314" d="M41 8l477 942h651v-108h-71v37h-367v-367h293v-74h-293v-364h438v37h74v-111h-586v219h-428l-123 -244zM264 293h393v586h-96z" />
<glyph unicode="&#xe7;" horiz-adv-x="987" d="M74 475q0 134 66 247.5t179.5 180t247.5 66.5q190 0 334 -131l12 -11v-59h-71v27q-123 102 -275 102q-173 0 -297.5 -124.5t-124.5 -297.5t124.5 -296.5t297.5 -123.5q180 0 307 133l56 -51q-70 -73 -164 -114t-199 -41q-29 0 -41 2l-22 -84q18 6 55 6q79 0 125.5 -52.5 t46.5 -121.5q0 -74 -54 -116t-124 -42q-50 0 -94 22.5t-68 63.5l47 27q36 -58 115 -58q52 0 78 31.5t26 77.5q0 45 -26 80t-72 35q-12 0 -23.5 -2.5t-18.5 -5.5t-20.5 -9.5t-21.5 -9.5l-47 12l43 154q-171 32 -284 168t-113 315z" />
<glyph unicode="&#xe8;" horiz-adv-x="876" d="M111 879v71h620v-108h-74v37h-438v-367h367v-74h-367v-364h512v37h74v-111h-660v879h-34zM279 1321l53 51l203 -205l-52 -51z" />
<glyph unicode="&#xe9;" horiz-adv-x="876" d="M111 879v71h620v-108h-74v37h-438v-367h367v-74h-367v-364h512v37h74v-111h-660v879h-34zM344 1167l203 205l53 -51l-205 -205z" />
<glyph unicode="&#xea;" horiz-adv-x="876" d="M111 879v71h620v-108h-74v37h-438v-367h367v-74h-367v-364h512v37h74v-111h-660v879h-34zM137 1153l273 219h59l272 -219l-45 -55l-254 200h-6l-252 -200z" />
<glyph unicode="&#xeb;" horiz-adv-x="876" d="M111 879v71h620v-108h-74v37h-438v-367h367v-74h-367v-364h512v37h74v-111h-660v879h-34zM166 1217q0 26 18.5 44.5t44.5 18.5t45 -18.5t19 -44.5t-19 -46t-45 -20t-44.5 19.5t-18.5 46.5zM594 1217q0 26 19.5 44.5t45.5 18.5t45 -18.5t19 -44.5t-19 -46t-45 -20 t-45.5 20t-19.5 46z" />
<glyph unicode="&#xec;" d="M14 1321l54 51l202 -205l-53 -51zM111 879v71h108v-950h-74v879h-34z" />
<glyph unicode="&#xed;" d="M78 1167l205 205l51 -51l-205 -205zM111 879v71h108v-950h-74v879h-34z" />
<glyph unicode="&#xee;" d="M-63 1208l217 164h59l217 -164l-45 -57l-199 147h-6l-198 -147zM111 879v71h108v-950h-74v879h-34z" />
<glyph unicode="&#xef;" d="M-27 1217q0 26 19 44.5t45 18.5t44.5 -18.5t18.5 -44.5q0 -27 -18.5 -46.5t-44.5 -19.5t-45 20t-19 46zM111 879v71h108v-950h-74v879h-34zM264 1217q0 26 19.5 44.5t46.5 18.5q26 0 44.5 -18.5t18.5 -44.5q0 -27 -18.5 -46.5t-44.5 -19.5t-46 20t-20 46z" />
<glyph unicode="&#xf0;" horiz-adv-x="1024" d="M37 438v74h108v438h304q209 0 355 -138.5t146 -336.5t-146 -336.5t-355 -138.5h-304v438h-108zM219 74h234q177 0 301.5 117t124.5 284t-124.5 285.5t-301.5 118.5h-234v-367h219v-74h-219v-364z" />
<glyph unicode="&#xf1;" horiz-adv-x="1024" d="M111 879v71h120l574 -839v839h74v-968h-76l-584 860v-842h-74v879h-34zM236 1194l10 49q11 62 48 92.5t87 30.5q49 0 88 -20l113 -62q41 -18 61 -18q53 0 64 63l10 49l71 -12l-8 -49q-11 -62 -49 -92.5t-88 -30.5q-47 0 -86 20l-115 62q-41 18 -61 18q-53 0 -64 -63 l-10 -49z" />
<glyph unicode="&#xf2;" horiz-adv-x="1095" d="M74 475q0 203 139 348.5t336 145.5t336 -145.5t139 -348.5t-139 -348t-336 -145t-336 145t-139 348zM145 475q0 -174 119.5 -297t284.5 -123t283 123t118 297t-118 298t-283 124t-284.5 -124t-119.5 -298zM426 1321l53 51l203 -205l-51 -51z" />
<glyph unicode="&#xf3;" horiz-adv-x="1095" d="M74 475q0 203 139 348.5t336 145.5t336 -145.5t139 -348.5t-139 -348t-336 -145t-336 145t-139 348zM145 475q0 -174 119.5 -297t284.5 -123t283 123t118 297t-118 298t-283 124t-284.5 -124t-119.5 -298zM492 1167l202 205l54 -51l-205 -205z" />
<glyph unicode="&#xf4;" horiz-adv-x="1095" d="M74 475q0 203 139 348.5t336 145.5t336 -145.5t139 -348.5t-139 -348t-336 -145t-336 145t-139 348zM145 475q0 -174 119.5 -297t284.5 -123t283 123t118 297t-118 298t-283 124t-284.5 -124t-119.5 -298zM283 1153l272 219h59l273 -219l-45 -55l-254 200h-6l-252 -200z " />
<glyph unicode="&#xf5;" horiz-adv-x="1095" d="M74 475q0 203 139 348.5t336 145.5t336 -145.5t139 -348.5t-139 -348t-336 -145t-336 145t-139 348zM145 475q0 -174 119.5 -297t284.5 -123t283 123t118 297t-118 298t-283 124t-284.5 -124t-119.5 -298zM309 1194l10 49q11 62 48.5 92.5t87.5 30.5q49 0 88 -20l112 -62 q41 -18 62 -18q52 0 63 63l11 49l71 -12l-8 -49q-11 -62 -49 -92.5t-88 -30.5q-47 0 -86 20l-115 62q-41 18 -61 18q-53 0 -64 -63l-10 -49z" />
<glyph unicode="&#xf6;" horiz-adv-x="1095" d="M74 475q0 203 139 348.5t336 145.5t336 -145.5t139 -348.5t-139 -348t-336 -145t-336 145t-139 348zM145 475q0 -174 119.5 -297t284.5 -123t283 123t118 297t-118 298t-283 124t-284.5 -124t-119.5 -298zM311 1217q0 26 19 44.5t45 18.5t44.5 -18.5t18.5 -44.5 q0 -27 -18.5 -46.5t-44.5 -19.5t-45 20t-19 46zM739 1217q0 26 19.5 44.5t46.5 18.5q26 0 44.5 -18.5t18.5 -44.5q0 -27 -18.5 -46.5t-44.5 -19.5t-46 20t-20 46z" />
<glyph unicode="&#xf7;" horiz-adv-x="657" d="M74 438v74h512v-74h-512zM264 248q0 26 19.5 44.5t46.5 18.5q26 0 44.5 -18.5t18.5 -44.5q0 -27 -18.5 -46.5t-44.5 -19.5t-46 20t-20 46zM264 705q0 26 19.5 44.5t46.5 18.5q26 0 44.5 -18.5t18.5 -44.5q0 -27 -18.5 -46.5t-44.5 -19.5t-46 20t-20 46z" />
<glyph unicode="&#xf8;" horiz-adv-x="1169" d="M74 475q0 212 150 362t362 150q192 0 336 -125l94 96l51 -51l-94 -96q125 -144 125 -336q0 -212 -150 -362t-362 -150q-194 0 -338 125l-94 -96l-52 51l95 96q-123 142 -123 336zM145 475q0 -158 105 -282l618 618q-121 102 -282 102q-182 0 -311.5 -128.5t-129.5 -309.5 zM301 141q123 -104 285 -104q182 0 310 128.5t128 309.5q0 162 -104 285z" />
<glyph unicode="&#xf9;" horiz-adv-x="1024" d="M111 879v71h108v-602q0 -122 85.5 -207.5t207.5 -85.5t207.5 85.5t85.5 207.5v602h74v-602q0 -151 -108 -258.5t-259 -107.5t-259 107.5t-108 258.5v531h-34zM352 1321l54 51l202 -205l-51 -51z" />
<glyph unicode="&#xfa;" horiz-adv-x="1024" d="M111 879v71h108v-602q0 -122 85.5 -207.5t207.5 -85.5t207.5 85.5t85.5 207.5v602h74v-602q0 -151 -108 -258.5t-259 -107.5t-259 107.5t-108 258.5v531h-34zM418 1167l203 205l53 -51l-205 -205z" />
<glyph unicode="&#xfb;" horiz-adv-x="1024" d="M111 879v71h108v-602q0 -122 85.5 -207.5t207.5 -85.5t207.5 85.5t85.5 207.5v602h74v-602q0 -151 -108 -258.5t-259 -107.5t-259 107.5t-108 258.5v531h-34zM209 1153l272 219h60l272 -219l-45 -55l-254 200h-6l-252 -200z" />
<glyph unicode="&#xfc;" horiz-adv-x="1024" d="M111 879v71h108v-602q0 -122 85.5 -207.5t207.5 -85.5t207.5 85.5t85.5 207.5v602h74v-602q0 -151 -108 -258.5t-259 -107.5t-259 107.5t-108 258.5v531h-34zM240 1217q0 26 18.5 44.5t44.5 18.5t45 -18.5t19 -44.5t-19 -46t-45 -20t-44.5 19.5t-18.5 46.5zM668 1217 q0 26 19.5 44.5t45.5 18.5t45 -18.5t19 -44.5t-19 -46t-45 -20t-45.5 20t-19.5 46z" />
<glyph unicode="&#xfd;" horiz-adv-x="950" d="M55 879v71h84l336 -532l352 561l64 -41l-379 -600v-338h-74v338l-340 541h-43zM381 1167l203 205l53 -51l-205 -205z" />
<glyph unicode="&#xfe;" horiz-adv-x="950" d="M145 0v950h74v-71h311q145 0 247 -96t102 -234t-99 -234t-239 -96h-322v-219h-74zM219 293h309q114 0 195.5 75.5t81.5 182.5t-81 180.5t-196 73.5h-309v-512z" />
<glyph unicode="&#xff;" horiz-adv-x="950" d="M55 879v71h84l336 -532l352 561l64 -41l-379 -600v-338h-74v338l-340 541h-43zM203 1217q0 26 18.5 44.5t44.5 18.5t45 -18.5t19 -44.5t-19 -46t-45 -20t-44.5 19.5t-18.5 46.5zM631 1217q0 26 19.5 44.5t45.5 18.5t45 -18.5t19 -44.5t-19 -46t-45 -20t-45.5 20t-19.5 46 z" />
<glyph unicode="&#x152;" horiz-adv-x="1755" d="M74 694q0 190 92.5 350t252.5 253.5t349 93.5h842v-111h-74v37h-586v-586h367v-74h-367v-583h660v37h71v-111h-913q-142 0 -270.5 54.5t-221.5 147.5t-147.5 221.5t-54.5 270.5zM145 694q0 -169 83.5 -312t227 -225.5t312.5 -82.5h111v1243h-111q-169 0 -312.5 -83.5 t-227 -227t-83.5 -312.5z" />
<glyph unicode="&#x153;" horiz-adv-x="1314" d="M74 475q0 198 146 336.5t355 138.5h594v-108h-71v37h-367v-367h293v-74h-293v-364h438v37h74v-111h-668q-209 0 -355 138.5t-146 336.5zM145 475q0 -167 124.5 -284t301.5 -117h86v805h-86q-177 0 -301.5 -118.5t-124.5 -285.5z" />
<glyph unicode="&#x178;" horiz-adv-x="1243" d="M55 1317v74h74l492 -807h2l495 821l64 -37l-525 -868v-500h-71v500l-496 817h-35zM348 1655q0 26 19 44.5t45 18.5t44.5 -18.5t18.5 -44.5q0 -27 -18.5 -46.5t-44.5 -19.5t-45 20t-19 46zM776 1655q0 26 19.5 44.5t46.5 18.5q26 0 44.5 -18.5t18.5 -44.5 q0 -27 -18.5 -46.5t-44.5 -19.5t-46 20t-20 46z" />
<glyph unicode="&#x2c6;" horiz-adv-x="802" d="M100 1153l273 219h59l273 -219l-48 -55l-251 200h-7l-254 -200z" />
<glyph unicode="&#x2dc;" horiz-adv-x="583" d="M16 1194l9 49q11 62 49 92.5t88 30.5q47 0 86 -20l114 -62q41 -18 62 -18q52 0 63 63l11 49l71 -12l-10 -49q-11 -62 -48 -92.5t-87 -30.5q-49 0 -88 20l-113 62q-41 18 -61 18q-53 0 -64 -63l-10 -49z" />
<glyph unicode="&#x2000;" horiz-adv-x="914" />
<glyph unicode="&#x2001;" horiz-adv-x="1829" />
<glyph unicode="&#x2002;" horiz-adv-x="914" />
<glyph unicode="&#x2003;" horiz-adv-x="1829" />
<glyph unicode="&#x2004;" horiz-adv-x="609" />
<glyph unicode="&#x2005;" horiz-adv-x="457" />
<glyph unicode="&#x2006;" horiz-adv-x="304" />
<glyph unicode="&#x2007;" horiz-adv-x="304" />
<glyph unicode="&#x2008;" horiz-adv-x="228" />
<glyph unicode="&#x2009;" horiz-adv-x="365" />
<glyph unicode="&#x200a;" horiz-adv-x="101" />
<glyph unicode="&#x2010;" horiz-adv-x="657" d="M74 512v74h512v-74h-512z" />
<glyph unicode="&#x2011;" horiz-adv-x="657" d="M74 512v74h512v-74h-512z" />
<glyph unicode="&#x2012;" horiz-adv-x="657" d="M74 512v74h512v-74h-512z" />
<glyph unicode="&#x2013;" horiz-adv-x="950" d="M74 512v74h805v-74h-805z" />
<glyph unicode="&#x2014;" horiz-adv-x="1826" d="M74 512v74h1681v-74h-1681z" />
<glyph unicode="&#x2018;" d="M127 1188q0 133 123 256l33 -33q-72 -72 -72 -162q19 -6 32 -23.5t13 -37.5q0 -26 -18.5 -45t-44.5 -19t-46 19t-20 45z" />
<glyph unicode="&#x2019;" d="M82 1157q74 74 74 164q-19 6 -32 22.5t-13 36.5q0 26 18.5 45t44.5 19t45 -19t19 -45q0 -133 -123 -256z" />
<glyph unicode="&#x201a;" d="M82 -178q74 74 74 164q-19 6 -32 22.5t-13 36.5q0 27 18.5 46.5t44.5 19.5t45 -20t19 -46q0 -133 -123 -256z" />
<glyph unicode="&#x201c;" horiz-adv-x="583" d="M127 1188q0 133 123 256l33 -33q-72 -72 -72 -162q19 -6 32 -23.5t13 -37.5q0 -26 -18.5 -45t-44.5 -19t-46 19t-20 45zM348 1188q0 135 121 256l35 -33q-74 -74 -74 -162q19 -6 32 -23.5t13 -37.5q0 -26 -18.5 -45t-44.5 -19t-45 19t-19 45z" />
<glyph unicode="&#x201d;" horiz-adv-x="583" d="M82 1157q74 74 74 164q-19 6 -32 22.5t-13 36.5q0 26 18.5 45t44.5 19t45 -19t19 -45q0 -133 -123 -256zM301 1157q74 74 74 164q-19 6 -32 22.5t-13 36.5q0 26 18.5 45t44.5 19t45 -19t19 -45q0 -133 -123 -256z" />
<glyph unicode="&#x201e;" horiz-adv-x="583" d="M82 -178q74 74 74 164q-19 6 -32 22.5t-13 36.5q0 27 18.5 46.5t44.5 19.5t45 -20t19 -46q0 -133 -123 -256zM301 -178q74 74 74 164q-19 6 -32 22.5t-13 36.5q0 27 18.5 46.5t44.5 19.5t45 -20t19 -46q0 -133 -123 -256z" />
<glyph unicode="&#x2022;" horiz-adv-x="512" d="M74 475q0 75 53.5 128.5t128.5 53.5t128.5 -53.5t53.5 -128.5t-53.5 -128.5t-128.5 -53.5t-128.5 53.5t-53.5 128.5z" />
<glyph unicode="&#x2026;" horiz-adv-x="950" d="M111 45q0 27 18.5 46.5t44.5 19.5t45 -20t19 -46t-19 -44.5t-45 -18.5t-44.5 18.5t-18.5 44.5zM401 45q0 26 20 46t46 20t44.5 -19.5t18.5 -46.5q0 -26 -18.5 -44.5t-44.5 -18.5q-27 0 -46.5 18.5t-19.5 44.5zM694 45q0 26 20 46t46 20t44.5 -19.5t18.5 -46.5 q0 -26 -18.5 -44.5t-44.5 -18.5q-27 0 -46.5 18.5t-19.5 44.5z" />
<glyph unicode="&#x202f;" horiz-adv-x="365" />
<glyph unicode="&#x2039;" horiz-adv-x="438" d="M55 446v58l254 311l58 -47l-240 -291v-6l240 -287l-58 -45z" />
<glyph unicode="&#x203a;" horiz-adv-x="438" d="M74 184l237 287v6l-237 291l55 47l256 -311v-58l-256 -307z" />
<glyph unicode="&#x205f;" horiz-adv-x="457" />
<glyph unicode="&#x20ac;" horiz-adv-x="1095" d="M74 330l8 71h143q-6 37 -6 74t6 74h-114l8 74h121q42 153 156.5 249.5t260.5 96.5q205 0 336 -119l13 -10v-90h-74v57q-109 90 -275 90q-116 0 -209.5 -76.5t-132.5 -197.5h445l-10 -74h-451q-6 -37 -6 -74t6 -74h424l-10 -71h-398q39 -122 132.5 -198.5t209.5 -76.5 q156 0 275 101l49 -58q-138 -116 -324 -116q-146 0 -260.5 97.5t-156.5 250.5h-166z" />
<glyph unicode="&#x25fc;" horiz-adv-x="972" d="M0 0v973h973v-973h-973z" />
</font>
</defs>
</svg>
