<svg id="C_and_pig" data-name="C and pig" xmlns="http://www.w3.org/2000/svg" viewBox="0 0 1162.5 1176.75"><defs><style>.cls-1,.cls-3{fill:none;stroke:#fff;stroke-miterlimit:10;}.cls-1{stroke-width:8px;}.cls-2{fill:#fff;}.cls-3{stroke-width:10px;}</style></defs><title>circlepig</title><g id="pig"><path class="cls-1" d="M617.5,293.26a1.81,1.81,0,0,0,.28-1.76c-3.15-8.44-28.37-70.61-100.91-111.92a1.84,1.84,0,0,0-2.74,1.44c-0.67,9-7,34.86-18.22,54.28-26.09,45.3-34.52,79.07-21.63,139.65,0.27,1.28,1.17-.89,2.24-1.64,9-6.27,48.32-28.63,99.62-28.63" transform="translate(-23.96 -3.42)"/><path class="cls-1" d="M700.29,509h0c77.22-63.79,66.69-126.6,55.37-169.78-24.64-93.93-2.94-129.31-.22-132.75a0.17,0.17,0,0,0-.15-0.26c-49.27,1.24-71.84,34.9-93.93,53.52-15.14,12.77-29.82,24-44.41,34.17-0.16.11-30.21,21.65-41.56,50.73" transform="translate(-23.96 -3.42)"/><path class="cls-1" d="M488.34,777.23c-69.21,59.48-91.92,64.88-91.92,64.88-157.89-4.33-148.15-195.74-148.15-195.74,8.73-15.52,46.15,2.88,53.79,6.85a2,2,0,0,0,2.4-.46l5.41-6.18a5.79,5.79,0,0,1,2.79-1.74c59.21-16.66,76.2-64.43,76.2-64.43-6.49-233.59,186.55-235.74,186.55-235.74C541.33,416,579.17,499.3,579.17,499.3h0" transform="translate(-23.96 -3.42)"/><path class="cls-1" d="M889.54,939.44c-78.67-38.93-82.06-40.57-107.06-57.92-79.07-54.84-122.12-26.63-160-13.46C495.84,912,454.11,880.8,445,871.35a3.76,3.76,0,0,1-.37-4.78c9-12.89,48.84-74.85,43.71-89.34" transform="translate(-23.96 -3.42)"/><path class="cls-1" d="M438.79,728c-0.61-4.68-.47-2.38-0.47-2.38s9.19,68.67,117.87,60.29h0" transform="translate(-23.96 -3.42)"/><path class="cls-1" d="M763.53,357.79S903.25,369.24,1043,491.29" transform="translate(-23.96 -3.42)"/><path class="cls-1" d="M483.17,612.45a69,69,0,0,1,90-37.62" transform="translate(-23.96 -3.42)"/></g><path class="cls-2" d="M59.95,528.74a46.43,46.43,0,0,1-11.3-4.24,43.82,43.82,0,0,1-9.87-7.17,47.3,47.3,0,0,1-7.84-10,47.94,47.94,0,0,1-5.17-12.59A60.38,60.38,0,0,1,24,479.64a77.38,77.38,0,0,1,2.16-17.52,64.44,64.44,0,0,1,3.08-9.7,71.06,71.06,0,0,1,4.36-8.92,58.22,58.22,0,0,1,5.36-7.75A43.84,43.84,0,0,1,45,429.63l-8.25-1.92,3.75-16.14,25.6,6-3.75,16.14a29.46,29.46,0,0,0-8.11,4.41A39.55,39.55,0,0,0,47,445.23a50.92,50.92,0,0,0-5.83,9.44,53.9,53.9,0,0,0-3.92,11.23,42.11,42.11,0,0,0-.81,17,34.08,34.08,0,0,0,5.26,13.33,33.25,33.25,0,0,0,9.73,9.42A40.48,40.48,0,0,0,64.08,511a35.44,35.44,0,0,0,14.77.44A33.37,33.37,0,0,0,91.75,506a37.59,37.59,0,0,0,10-10.44,45.67,45.67,0,0,0,6.2-14.9,61.72,61.72,0,0,0,1.75-14.28A43.05,43.05,0,0,0,108,454.26a34.34,34.34,0,0,0-4.89-10.09,40.19,40.19,0,0,0-7.7-8.12l9.94-9.23a45.23,45.23,0,0,1,14.71,23.77q3.59,14.21-.87,33.41a68.81,68.81,0,0,1-8.73,21.43,56.38,56.38,0,0,1-13.9,15.28,46.49,46.49,0,0,1-17.4,8.13A41.94,41.94,0,0,1,59.95,528.74Zm5.25-22.91a31.71,31.71,0,0,1-11.61-5.17,29.28,29.28,0,0,1-8.07-8.81,31,31,0,0,1-4-11.57,36.57,36.57,0,0,1,.74-13.5A44.39,44.39,0,0,1,49,451.05a28.13,28.13,0,0,1,10.85-9.43,45.69,45.69,0,0,0-9.41,11.64,54.28,54.28,0,0,0-5.49,14.42,32.52,32.52,0,0,0-.61,12.64,28.14,28.14,0,0,0,3.82,10.48,26,26,0,0,0,7.35,7.71,28.79,28.79,0,0,0,10,4.38,33.43,33.43,0,0,0,10.26.85,25.77,25.77,0,0,0,9.5-2.66,33.92,33.92,0,0,0,8.88-6.59,57.7,57.7,0,0,0,8.33-11,42.81,42.81,0,0,1-6.3,11.31,32.69,32.69,0,0,1-8.63,7.77A28.43,28.43,0,0,1,77,506.37,30.6,30.6,0,0,1,65.2,505.83Zm3.11-75.27,4-17L45.32,407.3,46,404.45l29.65,6.89L71,431.18Zm36.48,90.32a48,48,0,0,0,6.15-6.93,74.67,74.67,0,0,0,5.56-8.75,82.57,82.57,0,0,0,4.55-9.88A78,78,0,0,0,124.22,485a94.91,94.91,0,0,0,2.46-17.68,71.51,71.51,0,0,0-1.08-16.14A51,51,0,0,0,121,437.33a37.85,37.85,0,0,0-8.16-10.82l2.07-2.14a39.61,39.61,0,0,1,8.54,11.13,52.34,52.34,0,0,1,4.94,14.38,73.76,73.76,0,0,1,1.18,17,100.94,100.94,0,0,1-2.64,18.91,78.58,78.58,0,0,1-3.41,11,63.59,63.59,0,0,1-4.94,10,51.08,51.08,0,0,1-6.27,8.28A30,30,0,0,1,104.79,520.88Z" transform="translate(-23.96 -3.42)"/><path class="cls-2" d="M122.88,408.24l9.69-17.17L73.76,357.9l-9.69,17.17L53.9,369.32l27.44-48.63,10.17,5.74-9.61,17,25,14.13,32-56.77-25-14.13-9.61,17L94.15,298l27.44-48.63,10.17,5.74-9.69,17.16,58.81,33.18,9.69-17.17L200.74,294,173.3,342.65l-10.17-5.74,9.61-17-25.81-14.56-32,56.77,25.81,14.56,9.61-17,10.17,5.74L133.05,414Zm-52.2-34.48,8.44-9.32-6,10.68ZM88.93,341.4l9.58-17L87.13,318l1.44-2.54,13.8,7.78-9.58,17,14.37,8.11-1.44,2.54Zm22-39,6-10.55,2.42,1.36-6,10.55Zm11,57.59,28-49.65,2.42,1.36-26.58,47.11,15.13,8.54-1.44,2.54Zm7.18-89.82,9.65-17.1-11.38-6.42,1.44-2.54,13.8,7.78L133,269l48.13,27.15-1.44,2.54Zm38.42,93.09L156.46,357l1.44-2.54,13.48,7.6L142.07,414l-2.42-1.36ZM207.77,292l-11.06-6.24,1.36-2.42,13.48,7.6-29.24,51.81-2.42-1.36Z" transform="translate(-23.96 -3.42)"/><path class="cls-2" d="M198,276.12l11.51-10.77-19-90.65L202,163.93l88.54,25.62,13.86-13,8,8.53-41,38.4-8-8.53,12.9-12.07-20.45-6.36-37.37,35,5.2,20.62L236,240.61l8,8.53-38,35.51Zm47.73-82.64L205.89,181.1,216,221.36ZM213,158.72l79.44,23L290,184.05l-79.44-23Zm38.25,90.57L242.56,240l2.13-2,10.62,11.35-41.58,38.9-1.9-2Zm-38.75-63,3.47,1.15,5.33,22.9-2.61,2.44Zm11.5,47,34.81-32.57,2.85,1.13-34.17,32,1.83,7-2.72,2.54Zm95.64-48L310.95,176l2.24-2.09,10.62,11.35L279,227.12l-1.9-2Z" transform="translate(-23.96 -3.42)"/><path class="cls-2" d="M319.11,167.66l17-8.57L305.75,98.78l-18,9.06L282.5,97.41l53.4-26.89q7.5-3.78,13.66-6.55a87.69,87.69,0,0,1,11.51-4.33,44.08,44.08,0,0,1,11.29-1.84,24.22,24.22,0,0,1,8.93,1.43,19,19,0,0,1,6.84,4.4,27.24,27.24,0,0,1,5,7A21.87,21.87,0,0,1,395,86.05q-1.9,7.91-9.88,15.6-1,1-2.1,1.92t-2.26,1.92a47.86,47.86,0,0,1,9.24,1.15,59.63,59.63,0,0,1,9.48,2.91,53.69,53.69,0,0,1,8.61,4.37,30.21,30.21,0,0,1,6.69,5.58l13.17-6.63,5.25,10.43-46,23.18L381.89,136l15.52-7.81a35,35,0,0,0-7.1-5.5,43.39,43.39,0,0,0-9.19-4.12,41.45,41.45,0,0,0-10.39-1.88A31,31,0,0,0,360.13,118l-21,10.57,11.66,23.14,15.91-8L372,154.12l-47.59,24Zm-25.53-57,10.37-5.22,1.25,2.48-10.37,5.22Zm63.84-4.36a88.65,88.65,0,0,0,12.53-7.41,29.26,29.26,0,0,0,6.93-6.76,11.46,11.46,0,0,0,2.22-6.47,14.33,14.33,0,0,0-1.65-6.44,11.94,11.94,0,0,0-6.53-5.82q-4.49-1.78-11.54-.2a40.5,40.5,0,0,0-7.11,2.44q-3.81,1.68-8.31,3.94L320.42,91.39l13.46,26.73Zm-30-12.68,18.84-9.49q5.35-2.69,9-4.27a41.53,41.53,0,0,1,6.47-2.24,17,17,0,0,1,4.88-.54,15.18,15.18,0,0,1,4.2.87,21.38,21.38,0,0,0-3.62.52,41.37,41.37,0,0,0-4.79,1.43q-2.77,1-6.41,2.61t-8.53,4.09l-16.23,8.18,7.95,15.78-2.61,1.31Zm51.66,62.66-5.71-11.34L376,143.6l7,13.82L332.08,183l-1.25-2.48Zm-32.95-25.5,7.89-4a61.46,61.46,0,0,1,11.63-4.59q5.36-1.43,8.83-.07-2.09.4-4.08,0.91a40.83,40.83,0,0,0-4.35,1.42q-2.36.91-5.4,2.27t-7.2,3.46L350,131.92l6.14,12.19-2.61,1.31Zm45.16-29.12a31.52,31.52,0,0,0,6-7.59,27.62,27.62,0,0,0,3.08-8.42,26.8,26.8,0,0,0,.17-8.75,27.52,27.52,0,0,0-2.7-8.53,28.85,28.85,0,0,0-3.38-5.25,19.58,19.58,0,0,0-4.6-4.1,24.28,24.28,0,0,0-6.23-2.79,38.84,38.84,0,0,0-8.23-1.41,32,32,0,0,1,8.77.12,23.45,23.45,0,0,1,7.14,2.33,21.19,21.19,0,0,1,5.51,4.13,22.89,22.89,0,0,1,3.88,5.52,30.27,30.27,0,0,1,2.7,7.88,28.38,28.38,0,0,1-1.91,16.9,34.77,34.77,0,0,1-5.2,8.34,30.54,30.54,0,0,1,5.83,1.93,56.25,56.25,0,0,1,6.11,3.13q3,1.79,5.72,3.74a43.23,43.23,0,0,1,4.6,3.77l-3.06,1.54a60.32,60.32,0,0,0-5.15-4.15,55.43,55.43,0,0,0-6.1-3.83,50.69,50.69,0,0,0-6.52-3A26.17,26.17,0,0,0,391.29,101.64Zm48.87,23.85-5.71-11.34,2.61-1.31,7,13.82L393.49,152.1l-1.25-2.48Z" transform="translate(-23.96 -3.42)"/><path class="cls-2" d="M436.56,74.9a46.44,46.44,0,0,1-.85-12,43.83,43.83,0,0,1,2.4-12,47.32,47.32,0,0,1,5.79-11.27,48,48,0,0,1,9.3-9.94,60.43,60.43,0,0,1,13-7.94A77.42,77.42,0,0,1,483,16.41a64.41,64.41,0,0,1,10.1-1.24,71.09,71.09,0,0,1,9.92.25,58.18,58.18,0,0,1,9.28,1.65,43.82,43.82,0,0,1,8.09,3l-1.69-8.3L535,8.43l5.25,25.75L524,37.49A29.44,29.44,0,0,0,516.6,32a39.54,39.54,0,0,0-9.53-3.61,50.91,50.91,0,0,0-11-1.37,53.91,53.91,0,0,0-11.84,1.11,42.11,42.11,0,0,0-15.8,6.35,34.08,34.08,0,0,0-9.93,10.33A33.26,33.26,0,0,0,454,57.53a40.51,40.51,0,0,0,.45,13.73,35.44,35.44,0,0,0,5.75,13.61,33.37,33.37,0,0,0,10.24,9.5,37.58,37.58,0,0,0,13.67,4.77,45.66,45.66,0,0,0,16.12-.57,61.72,61.72,0,0,0,13.71-4.36A43.05,43.05,0,0,0,524.3,87.6,34.35,34.35,0,0,0,531.44,79a40.19,40.19,0,0,0,4.18-10.39l12.53,5.19A45.23,45.23,0,0,1,532.66,97q-11.43,9.18-30.74,13.12a68.81,68.81,0,0,1-23.12,1,56.39,56.39,0,0,1-19.68-6.27,46.49,46.49,0,0,1-14.64-12.44A42,42,0,0,1,436.56,74.9Zm23-4.77a31.71,31.71,0,0,1-.13-12.71,29.28,29.28,0,0,1,4.65-11A31,31,0,0,1,472.95,38,36.57,36.57,0,0,1,485.54,33a44.4,44.4,0,0,1,17.08-.46,28.14,28.14,0,0,1,13.09,5.94,45.7,45.7,0,0,0-14.5-3.71,54.27,54.27,0,0,0-15.4,1,32.52,32.52,0,0,0-11.74,4.7,28.15,28.15,0,0,0-7.94,7.84,26,26,0,0,0-3.94,9.89,28.79,28.79,0,0,0,.17,10.88,33.43,33.43,0,0,0,3.5,9.68,25.77,25.77,0,0,0,6.38,7.53,33.92,33.92,0,0,0,9.69,5.33,57.7,57.7,0,0,0,13.5,3,42.82,42.82,0,0,1-12.91-1A32.7,32.7,0,0,1,471.84,89a28.42,28.42,0,0,1-7.83-7.9A30.6,30.6,0,0,1,459.57,70.13Zm2.8,42.26a48,48,0,0,0,8.86,2.7,74.71,74.71,0,0,0,10.27,1.41,82.67,82.67,0,0,0,10.88,0,78.18,78.18,0,0,0,10.7-1.4,95,95,0,0,0,17.1-5.12,71.53,71.53,0,0,0,14.22-7.7,51,51,0,0,0,10.66-10,37.85,37.85,0,0,0,6.43-11.93l2.81,1a39.62,39.62,0,0,1-6.56,12.4,52.36,52.36,0,0,1-11,10.48,73.73,73.73,0,0,1-15,8.15,100.93,100.93,0,0,1-18.29,5.48,78.55,78.55,0,0,1-11.4,1.47A63.61,63.61,0,0,1,481,119a51,51,0,0,1-10.14-2.25A30,30,0,0,1,462.38,112.4ZM529.3,41.62l17.09-3.48L540.87,11l2.86-.58,6.08,29.83-20,4.07Z" transform="translate(-23.96 -3.42)"/><path class="cls-2" d="M593.1,16.46l-19.59-1.38,0.82-11.65L630,7.36,629.22,19l-19.73-1.39-2.94,41.65a27.31,27.31,0,0,0,1.6,12,24.79,24.79,0,0,0,6.09,9.1,29.33,29.33,0,0,0,9.64,6A41.66,41.66,0,0,0,636.13,89a52,52,0,0,0,11.73-.34,34.15,34.15,0,0,0,8.85-2.52A20.22,20.22,0,0,0,662.86,82a18.78,18.78,0,0,0,3.7-5.3q0.82-2.21,1.35-4.11t1-4.18q0.42-2.28.71-5.33t0.61-7.64l2.35-33.35-19.66-1.39L653.71,9,709.41,13l-0.82,11.65-19.66-1.39-2.44,34.59Q686,64.43,685.41,69A43.44,43.44,0,0,1,684,75.86a32,32,0,0,1-7,11.76A37.28,37.28,0,0,1,666,95.69,50.7,50.7,0,0,1,651.75,100a72.45,72.45,0,0,1-16.44.63,68,68,0,0,1-20.15-4.24,43.34,43.34,0,0,1-14.48-9,34,34,0,0,1-8.45-13,39.28,39.28,0,0,1-2.07-16.32Zm-15.58,4,12.23,0.86-0.2,2.77-12.23-.86Zm24.49,74a87.6,87.6,0,0,0,15.6,7.65,62.5,62.5,0,0,0,17.35,3.6,74.75,74.75,0,0,0,14-.3,62.84,62.84,0,0,0,12.9-2.86,49.13,49.13,0,0,0,11.25-5.46,39.49,39.49,0,0,0,15.26-18.72,43.69,43.69,0,0,0,2.91-13.26l2.58-36.48,20.39,1.44,0.92-13L718,17.3l-1.12,15.8-20.39-1.44-2.38,33.79a42.91,42.91,0,0,1-18.68,33.4,54,54,0,0,1-18.46,8,73.53,73.53,0,0,1-22.25,1.65,62.9,62.9,0,0,1-10-1.51,57.33,57.33,0,0,1-9.12-2.95,43.35,43.35,0,0,1-7.75-4.21A27,27,0,0,1,602,94.51Zm12.36-71.43,19.73,1.39,0.92-13,2.91,0.21-1.12,15.8-19.73-1.39L614.7,59.84a25.9,25.9,0,0,0,.67,8.17,18.94,18.94,0,0,0,3.42,7,21.91,21.91,0,0,0,6.45,5.5A31.59,31.59,0,0,0,635.09,84a33.16,33.16,0,0,1-11-2.46,21.06,21.06,0,0,1-7.43-5.21,18.67,18.67,0,0,1-4-7.46,27,27,0,0,1-.85-9.28Zm42.52,3,12.23,0.86-0.2,2.77-12.23-.86Z" transform="translate(-23.96 -3.42)"/><path class="cls-2" d="M746.12,105.32L769.39,114l23.47-63.31-32.65-12.1-6.6,17.79-15.4-5.71,10.66-28.75,111.5,41.34L849.71,92l-15.4-5.71,6.6-17.8-32.65-12.1-23.47,63.31,23.27,8.63-4.06,11-61.94-23Zm-5.57-48.39,16.22,6,6.6-17.8,24.85,9.21-1,2.6-22.11-8.2-6.6,17.8-19-7Zm66.61,88.92,4.42-11.91,2.74,1-5.38,14.51-65.5-24.28,1-2.6ZM811.42,63l24.84,9.21-1,2.6-22.11-8.2L794,118.4l-2.74-1Zm25.23,29.59,16.22,6L864,68.46l2.74,1-12.13,32.72-19-7Z" transform="translate(-23.96 -3.42)"/><path class="cls-2" d="M934.78,227.81l17.28-23.9,2.37,1.71-18.91,26.14-91-65.84,1.63-2.25Zm-82.37-80.3,16,11.55,39.57-54.71L892,92.8l6.84-9.46,88,63.61L970.09,170l-13.31-9.63,9.84-13.6L921.85,114.4,905,137.71l29.69,21.48-5.35,7.39L899.65,145.1l-17.37,24,44.77,32.38,9.84-13.6,13.31,9.63-16.68,23.07-88-63.61Zm48.5,4.81,29.63,21.43,6.2-8.58,2.37,1.71-7.83,10.82-29.63-21.43-10.18,14.08-2.37-1.71Zm-8.38-52.81,9.94,7.19-1.63,2.25-9.94-7.19Zm30.58,22.12,38,27.51-1.62,2.25-35.67-25.8L914.19,139l-2.37-1.71Zm34.23,45.47,14,10.14L988.9,153l2.37,1.71L972.1,181.2l-16.38-11.85Z" transform="translate(-23.96 -3.42)"/><path class="cls-2" d="M987.1,287.55l9.94-7.91,1.82,2.29-12.11,9.63L951.3,247l2.17-1.73Zm-23.39-56.38,11.86,14.91,52.85-42-12.54-15.77L1025,181l37.21,46.79q5.22,6.57,9.2,12a87.79,87.79,0,0,1,6.58,10.39,44.11,44.11,0,0,1,4.11,10.68,24.23,24.23,0,0,1,.42,9,19,19,0,0,1-2.92,7.59,27.25,27.25,0,0,1-5.86,6.29,21.87,21.87,0,0,1-14.7,5q-8.13-.25-17.29-6.49-1.16-.76-2.3-1.67t-2.34-1.83a47.88,47.88,0,0,1,.76,9.28A59.73,59.73,0,0,1,1037,298a53.69,53.69,0,0,1-2.52,9.32,30.24,30.24,0,0,1-4.1,7.69l9.18,11.54-9.14,7.27-32.08-40.33,9.14-7.27,10.81,13.6a35,35,0,0,0,3.93-8.07,43.43,43.43,0,0,0,2.16-9.83,41.44,41.44,0,0,0-.28-10.55,31,31,0,0,0-3.39-10.13l-14.63-18.4-20.28,16.13,11.09,13.94-9.14,7.27-33.17-41.71Zm41.64,18.93,5.5,6.91a61.52,61.52,0,0,1,6.86,10.45q2.5,5,1.87,8.63-0.82-2-1.72-3.81a40.64,40.64,0,0,0-2.27-4q-1.37-2.13-3.32-4.82t-4.86-6.35l-2.41-3-10.68,8.5-1.82-2.29Zm24.33,91,9.94-7.91,1.82,2.29-12.11,9.63L994.1,300.82l2.17-1.73Zm-15.34-146.54,7.22,9.08-2.17,1.73-7.22-9.08Zm17.29,61.61a88.61,88.61,0,0,0,9.81,10.76,29.26,29.26,0,0,0,8,5.41,11.46,11.46,0,0,0,6.79.85,14.33,14.33,0,0,0,6-2.93,11.93,11.93,0,0,0,4.37-7.58q0.83-4.76-2.16-11.34a40.47,40.47,0,0,0-3.83-6.46q-2.42-3.39-5.55-7.33l-16.4-20.62-23.42,18.63Zm6.29-32L1051,240.71q3.73,4.68,6,8a41.63,41.63,0,0,1,3.51,5.88,17.07,17.07,0,0,1,1.52,4.67,15.18,15.18,0,0,1,0,4.29,21.45,21.45,0,0,0-1.24-3.44,41.31,41.31,0,0,0-2.38-4.4q-1.53-2.51-3.87-5.74t-5.74-7.51l-11.31-14.23-13.83,11-1.82-2.29Zm5.15,64.17a31.53,31.53,0,0,0,8.65,4.31,27.65,27.65,0,0,0,8.87,1.3,26.82,26.82,0,0,0,8.6-1.62A27.53,27.53,0,0,0,1077,288a28.91,28.91,0,0,0,4.45-4.38,19.6,19.6,0,0,0,3.08-5.34,24.25,24.25,0,0,0,1.46-6.67,38.81,38.81,0,0,0-.29-8.35,32,32,0,0,1,1.67,8.61,23.43,23.43,0,0,1-.83,7.46,21.2,21.2,0,0,1-2.92,6.24,22.88,22.88,0,0,1-4.61,4.93,30.27,30.27,0,0,1-7.16,4.25,28.38,28.38,0,0,1-16.93,1.58,34.76,34.76,0,0,1-9.22-3.39,30.54,30.54,0,0,1-.7,6.1,56.15,56.15,0,0,1-1.82,6.62Q1042,309,1040.65,312a43.26,43.26,0,0,1-2.76,5.27l-2.14-2.69a60.3,60.3,0,0,0,3-5.89,55.4,55.4,0,0,0,2.51-6.75,50.62,50.62,0,0,0,1.58-7A26.18,26.18,0,0,0,1043.06,288.38Z" transform="translate(-23.96 -3.42)"/><path class="cls-2" d="M1059.1,407.5l11.42-5.56,1.28,2.63-13.92,6.77-26.42-54.28,2.49-1.21Zm-12-62.94,8.94,18.38,60.71-29.55-8.62-17.72,10.5-5.11,24.75,50.87-10.5,5.11L1124,348.29l-60.71,29.55,8.56,17.59-10.5,5.11-24.76-50.87Zm74.61,10.69,8.85,18.18,11.81-5.75,1.28,2.63-14.31,7-8.85-18.18-49.69,24.18-1.28-2.63Zm-16.26-33.41,5.37,11-2.49,1.21-5.37-11Z" transform="translate(-23.96 -3.42)"/><path class="cls-2" d="M1094.35,532.8l28.67-6.89,0.68,2.84-31.37,7.54L1066.09,427l2.7-.65Zm-10.26-114.57,4.6,19.16,65.65-15.77-4.6-19.16,11.36-2.73,25.36,105.54-27.68,6.65-3.84-16,16.32-3.92-12.91-53.73-28,6.72,8.56,35.63-8.87,2.13-8.56-35.63-28.82,6.92,12.91,53.73,16.32-3.92,3.84,16-27.68,6.65-25.36-105.54Zm33.69,35.22,8.54,35.56,10.29-2.47,0.68,2.84-13,3.12-8.54-35.56L1098.87,461l-0.68-2.84Zm36.84-8.85,11,45.64-2.7.65-10.28-42.8-16,3.85-0.68-2.84Zm-8.82-36.69,2.87,11.92-2.7.65-2.87-11.92Zm5.2,93.49,4,16.82,29.1-7,0.68,2.84L1153,521.7,1148.3,502Z" transform="translate(-23.96 -3.42)"/><circle class="cls-3" cx="578.45" cy="590.5" r="449.36"/><path class="cls-2" d="M39.37,671.74a50.81,50.81,0,0,0-3,9,70.84,70.84,0,0,0-1.71,10.37,79.94,79.94,0,0,0-.21,11.33,82.48,82.48,0,0,0,9.84,34.77,57,57,0,0,0,13.87,16.71A47.57,47.57,0,0,0,76.42,763a48.18,48.18,0,0,0,21.72.22,43.46,43.46,0,0,0,11.07-3.88,50.48,50.48,0,0,0,23.9-26.19,42.64,42.64,0,0,1-4.68,11.88,43,43,0,0,1-17.74,16.78,46.57,46.57,0,0,1-12,4.18,53.43,53.43,0,0,1-22.64,0,47.62,47.62,0,0,1-19.21-9.13,58.75,58.75,0,0,1-14.63-17.43,83.9,83.9,0,0,1-9-24.82A72.32,72.32,0,0,1,32,690.76,41.27,41.27,0,0,1,39.37,671.74Zm33.78-22.83a45.83,45.83,0,0,1,18.79,0,44.39,44.39,0,0,1,17.19,7.71A52.92,52.92,0,0,1,122.89,672a70.2,70.2,0,0,1,8.6,22.87q2.83,13.85,1.48,24.76a47.74,47.74,0,0,1-6.07,18.84,38.81,38.81,0,0,1-12.37,12.87,50.15,50.15,0,0,1-17.41,6.94,44.3,44.3,0,0,1-18.47,0,42.08,42.08,0,0,1-16.52-7.63A51.46,51.46,0,0,1,49,735.51a71.48,71.48,0,0,1-8.24-22.37,80.57,80.57,0,0,1-1.55-21.72,55.76,55.76,0,0,1,4.68-19.31,41.7,41.7,0,0,1,11.21-14.87A39.74,39.74,0,0,1,73.15,648.91Zm4.09,17.2a33.91,33.91,0,0,0-13.48,5.71,30.45,30.45,0,0,0-8.82,10A35.27,35.27,0,0,0,50.89,695a48.76,48.76,0,0,0,.81,15.3,44.51,44.51,0,0,0,6.12,15.66,35.83,35.83,0,0,0,9.92,10.27,31.65,31.65,0,0,0,12.38,5,36.06,36.06,0,0,0,13.48-.23,38.05,38.05,0,0,0,13.66-5.49,30.66,30.66,0,0,0,9.32-9.62,33.78,33.78,0,0,0,4.5-13.11,47.4,47.4,0,0,0-.73-16A45.35,45.35,0,0,0,114.7,682a35.78,35.78,0,0,0-9.61-10.52A33,33,0,0,0,92.31,666,37.19,37.19,0,0,0,77.24,666.11Zm0.81,5a33.41,33.41,0,0,1,12.42-.26,28.08,28.08,0,0,1,11.07,4.41,31.29,31.29,0,0,1,8.68,9,38.42,38.42,0,0,1,5.28,13.49,36.06,36.06,0,0,1,0,15.94,31.29,31.29,0,0,1-6.75,13.06,41.43,41.43,0,0,0,4.79-14.5,44.29,44.29,0,0,0-.65-14A35.15,35.15,0,0,0,108.05,686a28,28,0,0,0-8-8.21,26.86,26.86,0,0,0-10.17-4.06,29.68,29.68,0,0,0-11.29.18,24.92,24.92,0,0,0-8.43,3.38,28,28,0,0,0-6.86,6.16,34.16,34.16,0,0,0-5,8.51,44.78,44.78,0,0,0-2.83,10.53,35.91,35.91,0,0,1,1.26-11.69,28.62,28.62,0,0,1,4.55-9.33,26.32,26.32,0,0,1,7.26-6.64A28.66,28.66,0,0,1,78,671.13Z" transform="translate(-23.96 -3.42)"/><path class="cls-2" d="M93.58,870.28l10.73-6,1.38,2.47-13.08,7.31L65.14,824.9l2.34-1.31ZM79.6,812l8.62,15.42,57.06-31.89L136,778.84l9.87-5.52L166,809.41l-25.78,85.24L186.3,868.9,177,852.24l9.87-5.52,26.37,47.19-9.87,5.52-9.31-16.66-66.93,37.4-7.41-13.26,30-95.72L96,841.26l9.31,16.65-9.87,5.52-25.68-46Zm64.26,8.37-1.33,4-39,21.79-1.38-2.47ZM125.29,927l66.93-37.4,9.31,16.65,11.1-6.21,1.38,2.47-13.45,7.51-9.31-16.65-66.93,37.4-9.2-16.47,2.34-1.31ZM133.72,785l3.45,11.67-5.79-10.36ZM169.57,823l-17.8,62-3.58,2,19.56-67.27Zm5.17,35.32,5.79,10.36L178.19,870l-5.79-10.36Z" transform="translate(-23.96 -3.42)"/><path class="cls-2" d="M277.32,1076.81l7.53-9.72,2.23,1.73-9.17,11.84-53.47-41.4,1.64-2.12Zm-44.64-55.12,19,14.71,40-51.68L265,964.08,253.8,978.61l-12.57-9.73,18.17-23.47,91,70.47-18.17,23.47-12.57-9.74,11.25-14.53-26.65-20.64-40,51.68,19,14.71-6.92,8.94-50.56-39.15Zm8.87-46.31,13.24,10.25L266,971.11l20.28,15.7-1.64,2.12-18-14-11.25,14.53-15.48-12Zm63.71,26.1,20.28,15.7-1.64,2.12-18-14-32.75,42.29-2.23-1.73ZM320,1036.13l13.24,10.25,19-24.58,2.23,1.73-20.68,26.71-15.48-12Z" transform="translate(-23.96 -3.42)"/><path class="cls-2" d="M343.31,1101.11l17.91,6.58,22.53-61.36-17.91-6.58,3.9-10.61,50.74,18.63-3.9,10.61-17.78-6.53-9.6,26.14,59.23,21.75,9.6-26.13-17.78-6.53,3.9-10.61,50.75,18.63-3.9,10.61-17.91-6.58-22.53,61.36,17.91,6.58-3.9,10.61L413.84,1139l3.9-10.61,17.78,6.53,9.89-26.93-59.23-21.75-9.89,26.93,17.78,6.53-3.9,10.61-50.74-18.63Zm49.92,35.64,4.24-11.54,2.65,1L395,1140.25l-54.19-19.9,0.93-2.52Zm-25.11-90.9,10.22,6.61-11.14-4.09Zm21.12,46.82,51.81,19-0.93,2.52-49.15-18-5.8,15.79-2.65-1Zm12.64-34.43,17.71,6.5,4.36-11.87,2.65,1-5.29,14.39-17.71-6.5-5.51,15-2.65-1Zm65.77,105.83,4.24-11.54,2.52,0.92-5.16,14.06-54.06-19.85,0.93-2.52Zm-25.11-90.9,11,4-0.93,2.52-11-4Zm33.63,12.35,17.84,6.55,4.36-11.87,2.65,1-5.29,14.4L477.9,1089l-18.44,50.21-2.65-1Z" transform="translate(-23.96 -3.42)"/><path class="cls-2" d="M517.36,1156l19.06,0.89,3.05-65.29-19.06-.89,0.53-11.29,105,4.91-1.29,27.53-15.88-.74,0.76-16.24-53.43-2.5-1.3,27.81,35.43,1.66-0.41,8.82L554.34,1129,553,1157.64l53.43,2.5,0.76-16.24,15.88,0.74-1.29,27.53-105-4.91Zm109.28,21.38,1.33-28.52,2.82,0.13-1.46,31.2-108.63-5.08,0.13-2.68Zm-102.22-81.54,11.86,0.55-0.13,2.68-11.86-.55Zm34.78,38.34,35.36,1.66,0.48-10.24,2.82,0.13-0.6,12.92L561.89,1137l-0.79,16.8-2.82-.13Zm1.71-36.63,45.39,2.13-0.12,2.68-42.56-2-0.75,16-2.82-.13Zm51.83,18.7,16.73,0.78,1.35-28.94,2.82,0.13-1.48,31.62-19.55-.92Z" transform="translate(-23.96 -3.42)"/><path class="cls-2" d="M726.68,1147.58l17.45-5.74-20.42-62.09-18.59,6.12-3.53-10.74,52.63-17.31,3.53,10.74L739,1074.74l20.42,62.09L806,1121.49l-6.4-19.47,15.1-5,9.93,30.21-94.45,31.06Zm-15.77-57.67,11.75-3.86,0.84,2.55-11.75,3.86ZM831,1130.37l-10.24-31.15,2.69-.88,11.08,33.7-97.94,32.21-0.84-2.55Zm-85.49-51.85,18.73-6.16-4.19-12.75,2.68-.88,5,15.3-18.73,6.16,16.49,50.14-2.68.88Z" transform="translate(-23.96 -3.42)"/><path class="cls-2" d="M856.06,1103.5l12.57-8.66-5.18-89.52L876,996.67l81.08,37.27,15.13-10.42,6.41,9.31-44.82,30.85-6.41-9.31,14.08-9.7-18.66-9L882,1063.73l2,20.49L897.5,1075l6.41,9.31-41.44,28.53Zm54.85-18-7-10.19,2.33-1.6,8.54,12.4-45.4,31.26-1.52-2.21Zm2.74-54.22-36.39-17.59,3.85,40Zm-30.77-11.67,3.16,1.6,1.81,22.69-2.85,2Zm4.45-26.31L960,1026.75l-2.68,1.84-72.73-33.49Zm-0.2,73,38-26.17,2.57,1.49-37.31,25.68,0.75,6.95-3,2Zm98.46-32.18-7-10.18,2.44-1.68,8.54,12.4-48.89,33.66-1.52-2.21Z" transform="translate(-23.96 -3.42)"/><path class="cls-2" d="M959.2,948.75l-9.58,13.56-9.23-6.52,31-43.86,9.23,6.53-11.38,16.1,64.26,15.22-33.27-59.07-9.91,14-9.23-6.53,29.44-41.67,9.23,6.52-10.24,14.49,65.28,13.17-35.68-55.06-10.4,14.71-9.23-6.53,27.65-39.13,9.23,6.53-8.77,12.41,44.51,69.87-9.5,13.45-64.87-12.27,32.09,58.67-9.5,13.45Zm-2.89,12.67,5.59-7.91,2.85,0.63L958.5,963Zm21.21-30,10.07-14.25-10.33-7.3,1.63-2.31,12.52,8.85-9.26,13.1,40.91,9.7,2,3.46Zm19.08-27,3.83-5.42,1.5,2.53-3.14,4.44Zm30.14-42.65-10-7.82,1.26-1.79,12.52,8.85L1023,871.72l40.12,8.36,2,3.46-46.77-9.86Zm29.05,91.74-28.77-53,3.71,0.63,28.44,52.2-8.69,12.29-3-.34Zm-20.37-104L1040,843l1.58,2.41-4,5.6Zm62.57,44.3-44.3-70.16,9.67-13.68-10.33-7.3,1.63-2.31,12.52,8.85-10.11,14.31,44.39,70-8.69,12.29-3-.34Z" transform="translate(-23.96 -3.42)"/><path class="cls-2" d="M1126.24,803.78l4.24-17.15L1067,770.93l-4.58,18.52-11-2.71,9.93-40.13L1138.47,702l-51.24-12.68-4.58,18.52-11-2.72,13-52.47,11,2.72L1091,673.87l74.42,18.42L1161.82,707l-87.34,49.36,59.81,14.8,4.58-18.52,11,2.71-12.64,51.1Zm-58.13-69.56,55.36-33.11,4,1-60.24,35.76Zm0.16,52.31,5.46-10.88-2.85,11.52ZM1085,753.76l3.7-2,43.35,10.73-0.68,2.74Zm3.43-48.87,2.85-11.52,2.61,0.64-2.85,11.52Zm83-16.36-74.43-18.42,4.58-18.52-12.35-3.05,0.68-2.75,15,3.7L1100.36,668l74.42,18.41-4.53,18.31-2.61-.64Zm-15.62,63.11-11.93-3,0.68-2.74,14.54,3.6-13.53,54.67-2.61-.64Z" transform="translate(-23.96 -3.42)"/><circle class="cls-2" cx="53.81" cy="582.69" r="16"/><circle class="cls-2" cx="1119.07" cy="582.69" r="16"/></svg>