<svg id="C_and_pig" data-name="C and pig" xmlns="http://www.w3.org/2000/svg" viewBox="0 0 1210.17 1251.9"><defs><style>.cls-1,.cls-3{fill:none;stroke:#fff;stroke-miterlimit:10;}.cls-1{stroke-width:8px;}.cls-2{font-size:125px;}.cls-2,.cls-4,.cls-5{fill:#fff;}.cls-2,.cls-4{font-family:Vast Shadow;}.cls-3{stroke-width:10px;}.cls-4{font-size:121px;}</style></defs><title>circlelogo</title><g id="pig"><path class="cls-1" d="M614.57,346.07a1.51,1.51,0,0,0,.24-1.47c-2.64-7.06-23.72-59-84.38-93.58a1.54,1.54,0,0,0-2.29,1.2c-0.56,7.54-5.88,29.15-15.23,45.39-21.82,37.88-28.87,66.11-18.08,116.77,0.23,1.07,1-.75,1.87-1.37,7.48-5.25,40.4-23.94,83.3-23.94" transform="translate(3.68 -81.69)"/><path class="cls-1" d="M683.8,526.49h0c64.57-53.34,55.77-105.85,46.29-142-20.6-78.54-2.46-108.13-.18-111a0.14,0.14,0,0,0-.13-0.22c-41.2,1-60.07,29.18-78.54,44.75-12.66,10.68-24.94,20.09-37.13,28.57-0.13.09-25.26,18.11-34.75,42.41" transform="translate(3.68 -81.69)"/><path class="cls-1" d="M506.58,750.74C448.71,800.47,429.72,805,429.72,805c-132-3.62-123.88-163.66-123.88-163.66,7.3-13,38.59,2.41,45,5.73a1.65,1.65,0,0,0,2-.39l4.52-5.17a4.84,4.84,0,0,1,2.33-1.46c49.51-13.93,63.71-53.87,63.71-53.87-5.43-195.31,156-197.11,156-197.11-28.48,59.67,3.16,129.3,3.16,129.3h0" transform="translate(3.68 -81.69)"/><path class="cls-1" d="M842,886.37c-65.78-32.55-68.61-33.92-89.52-48.43-66.12-45.86-102.11-22.27-133.82-11.25C512.85,863.45,478,837.34,470.34,829.44a3.14,3.14,0,0,1-.31-4c7.51-10.78,40.84-62.59,36.55-74.7" transform="translate(3.68 -81.69)"/><path class="cls-1" d="M490.82,613c-0.6,1.21-.16.29-0.16,0.29s22.87-42.87,66.65-21.2l0.81,0.41h0" transform="translate(3.68 -81.69)"/><path class="cls-1" d="M465.15,709.55c-0.51-3.91-.4-2-0.4-2S472.44,765,563.32,758h0" transform="translate(3.68 -81.69)"/><path class="cls-1" d="M736.68,400S853.5,409.6,970.32,511.65" transform="translate(3.68 -81.69)"/></g><text class="cls-2" transform="translate(187.62 475.35) rotate(-76.91)">C</text><text class="cls-2" transform="translate(208.65 372.83) rotate(-60.56)">H</text><text class="cls-2" transform="translate(274.17 256.71) rotate(-43.09)">A</text><text class="cls-2" transform="translate(364.49 171.97) rotate(-26.72)">R</text><text class="cls-2" transform="translate(468.6 119.75) rotate(-11.51)">C</text><text class="cls-2" transform="translate(570.79 96.96) rotate(4.05)">U</text><text class="cls-2" transform="matrix(0.94, 0.35, -0.35, 0.94, 695.19, 105.86)">T</text><text class="cls-2" transform="translate(801.61 144.68) rotate(35.9)">E</text><text class="cls-2" transform="translate(894.12 210.61) rotate(51.53)">R</text><text class="cls-2" transform="translate(965.03 303.57) rotate(64.07)">I</text><text class="cls-2" transform="translate(996.79 361.97) rotate(76.52)">E</text><circle class="cls-3" cx="605.6" cy="515.33" r="375.73"/><text class="cls-4" transform="translate(126.98 562.09) rotate(78.46)">O</text><text class="cls-4" transform="translate(155.31 693.51) rotate(60.8)">N</text><text class="cls-4" transform="translate(235.7 822.96) rotate(48.39)"> </text><text class="cls-4" transform="translate(268.39 863.23) rotate(37.75)">T</text><text class="cls-4" transform="translate(377.42 945.25) rotate(20.16)">H</text><text class="cls-4" transform="translate(525.19 994.32) rotate(2.68)">E</text><text class="cls-4" transform="matrix(0.99, -0.14, 0.14, 0.99, 652.58, 995.51)"> </text><text class="cls-4" transform="translate(703.5 990.2) rotate(-18.21)">L</text><text class="cls-4" transform="translate(823.07 949.18) rotate(-34.55)">A</text><text class="cls-4" transform="translate(946.56 862.76) rotate(-54.75)">W</text><text class="cls-4" transform="matrix(0.24, -0.97, 0.97, 0.24, 1050.36, 702.82)">N</text><circle class="cls-5" cx="166.92" cy="507.55" r="13.38"/></svg>