<svg id="C_and_pig" data-name="C and pig" xmlns="http://www.w3.org/2000/svg" viewBox="0 0 1447.33 1497.24"><defs><style>.cls-1,.cls-3{fill:none;stroke:#fff;stroke-miterlimit:10;}.cls-1{stroke-width:8px;}.cls-2{font-size:149.5px;}.cls-2,.cls-4,.cls-5{fill:#fff;}.cls-2,.cls-4{font-family:Vast Shadow;}.cls-3{stroke-width:10px;}.cls-4{font-size:144.72px;}</style></defs><title>circlepig</title><g id="pig"><path class="cls-1" d="M617.54,293.79a1.81,1.81,0,0,0,.28-1.76c-3.15-8.44-28.37-70.61-100.91-111.92a1.84,1.84,0,0,0-2.74,1.44c-0.67,9-7,34.86-18.22,54.28-26.09,45.3-34.52,79.07-21.63,139.65,0.27,1.28,1.17-.89,2.24-1.64,9-6.27,48.32-28.63,99.62-28.63" transform="translate(121.87 22.4)"/><path class="cls-1" d="M700.34,509.57h0C777.56,445.78,767,383,755.71,339.79c-24.64-93.93-2.94-129.31-.22-132.75a0.17,0.17,0,0,0-.15-0.26c-49.27,1.24-71.84,34.9-93.93,53.52-15.14,12.77-29.82,24-44.41,34.17-0.16.11-30.21,21.65-41.56,50.73" transform="translate(121.87 22.4)"/><path class="cls-1" d="M488.38,777.76c-69.21,59.48-91.92,64.88-91.92,64.88-157.89-4.33-148.15-195.74-148.15-195.74,8.73-15.52,46.15,2.88,53.79,6.85a2,2,0,0,0,2.4-.46l5.41-6.18a5.79,5.79,0,0,1,2.79-1.74c59.21-16.66,76.2-64.43,76.2-64.43C382.41,347.35,575.44,345.2,575.44,345.2c-34.07,71.36,3.78,154.63,3.78,154.63h0" transform="translate(121.87 22.4)"/><path class="cls-1" d="M889.59,940C810.92,901,807.53,899.4,782.53,882.06c-79.07-54.84-122.12-26.63-160-13.46-126.59,44-168.33,12.74-177.43,3.28a3.76,3.76,0,0,1-.37-4.78c9-12.89,48.84-74.85,43.71-89.34" transform="translate(121.87 22.4)"/><path class="cls-1" d="M469.53,613c-0.72,1.44-.19.35-0.19,0.35S496.7,562.11,549.06,588l1,0.49h0" transform="translate(121.87 22.4)"/><path class="cls-1" d="M438.84,728.5c-0.61-4.68-.47-2.38-0.47-2.38s9.19,68.67,117.87,60.29h0" transform="translate(121.87 22.4)"/><path class="cls-1" d="M763.58,358.32S903.29,369.77,1043,491.82" transform="translate(121.87 22.4)"/></g><text class="cls-2" transform="translate(224.39 568.53) rotate(-76.91)">C</text><text class="cls-2" transform="translate(249.54 445.92) rotate(-60.57)">H</text><text class="cls-2" transform="matrix(0.73, -0.68, 0.68, 0.73, 327.88, 307.05)">A</text><text class="cls-2" transform="translate(435.86 205.71) rotate(-26.73)">R</text><text class="cls-2" transform="translate(560.34 143.25) rotate(-11.52)">C</text><text class="cls-2" transform="translate(682.53 115.96) rotate(4.04)">U</text><text class="cls-2" transform="translate(831.29 126.57) rotate(20.34)">T</text><text class="cls-2" transform="translate(958.56 172.96) rotate(35.88)">E</text><text class="cls-2" transform="translate(1069.21 251.75) rotate(51.51)">R</text><text class="cls-2" transform="matrix(0.44, 0.9, -0.9, 0.44, 1154.04, 362.88)">I</text><text class="cls-2" transform="translate(1192.05 432.7) rotate(76.49)">E</text><circle class="cls-3" cx="724.28" cy="616.32" r="449.36"/><text class="cls-4" transform="matrix(0.2, 0.98, -0.98, 0.2, 151.86, 672.19)">O</text><text class="cls-4" transform="matrix(0.49, 0.87, -0.87, 0.49, 185.74, 829.39)">N</text><text class="cls-4" transform="matrix(0.66, 0.75, -0.75, 0.66, 281.89, 984.23)"> </text><text class="cls-4" transform="translate(320.98 1032.4) rotate(37.75)">T</text><text class="cls-4" transform="translate(451.34 1130.47) rotate(20.16)">H</text><text class="cls-4" transform="matrix(1, 0.05, -0.05, 1, 628.11, 1189.18)">E</text><text class="cls-4" transform="matrix(0.99, -0.14, 0.14, 0.99, 780.47, 1190.59)"> </text><text class="cls-4" transform="translate(841.34 1184.26) rotate(-18.21)">L</text><text class="cls-4" transform="matrix(0.82, -0.57, 0.57, 0.82, 984.34, 1135.21)">A</text><text class="cls-4" transform="matrix(0.58, -0.82, 0.82, 0.58, 1132.06, 1031.84)">W</text><text class="cls-4" transform="translate(1256.2 840.55) rotate(-76.1)">N</text><circle class="cls-5" cx="199.64" cy="607.01" r="16"/></svg>