<svg id="Layer_1" data-name="Layer 1" xmlns="http://www.w3.org/2000/svg" viewBox="0 0 24 24"><defs><style>.cls-1{fill:#fff;}</style></defs><title>instagram</title><path class="cls-1" d="M12,16.82a4.7,4.7,0,1,0-4.71-4.71A4.71,4.71,0,0,0,12,16.82Zm0-8.18a3.48,3.48,0,1,1-3.48,3.48A3.48,3.48,0,0,1,12,8.63ZM17.22,9H24V19.28A4.72,4.72,0,0,1,19.28,24H4.78A4.78,4.78,0,0,1,0,19.28V9H6.75a6,6,0,0,0-.87,3.11,6.11,6.11,0,0,0,12.22,0A6,6,0,0,0,17.22,9Zm2.06-9H7V5H6V0H5V5H4V0.08A4.79,4.79,0,0,0,3,.35V5H2V0.9A4.7,4.7,0,0,0,0,4.72V8H7.47a6.09,6.09,0,0,1,9,0H24V4.72A4.72,4.72,0,0,0,19.28,0ZM22,5.27a0.74,0.74,0,0,1-.75.74H18.74A0.74,0.74,0,0,1,18,5.27V2.74A0.74,0.74,0,0,1,18.74,2h2.51a0.74,0.74,0,0,1,.75.74V5.27Z" transform="translate(0 0)"/></svg>