<svg id="pig" xmlns="http://www.w3.org/2000/svg" viewBox="0 0 593.46 332.11"><defs><style>.cls-1{fill:none;stroke:#231f20;stroke-miterlimit:10;stroke-width:3px;}.cls-2{fill:#fff;}.cls-3{fill:#231f20;}</style></defs><title>pig</title><path class="cls-1" d="M124.81,173.82a0.56,0.56,0,0,0,.09-0.54c-1-2.6-8.74-21.77-31.1-34.5a0.57,0.57,0,0,0-.85.44A49.45,49.45,0,0,1,87.33,156c-8,14-10.64,24.37-6.67,43,0.08,0.39.36-.27,0.69-0.51,2.76-1.93,14.89-8.82,30.71-8.83" transform="translate(-9.46 -137.2)"/><path class="cls-1" d="M168.17,193.67C199.34,167.33,249,180.33,249,180.33c55.67,7,174.33-7,174.33-7,87-7.15,126.56,36.7,134.3,46.5,0.89,1.12,10.9.44,17.91-1.33" transform="translate(-9.46 -137.2)"/><path class="cls-1" d="M293.71,385.55s81.62,25.12,173.62-2.22c0,0,25.67,16.67,0,66.33,0,0-3.58,11.25-10.67,15.25,0,0,0,4.55,28.09,2.25a3.28,3.28,0,0,0,2.71-1.88l5.87-12.61s10.33-13.33,29-26c0,0,104-76.33,48-191.33,0,0-3-5.9,10.44-11.88,0.22-.1.42-0.24,0.64-0.32,2.11-.79,13.72-5.28,16.4-8.63,7.65-9.54,1.27-19.08-2-21.69-7-5.61-21.73-4.83-26.42,3.74-4.81,8.78,1.14,16.56,6.15,21.95a36.75,36.75,0,0,0,14.22-8.19,11,11,0,0,0,2.16-5.09,9.22,9.22,0,0,0-2.39-6.59c-2.25-2.29-8.28-2.63-10.75-.16-1.46,1.47-1.78,5.21-1.67,7.28A16.35,16.35,0,0,0,581,215.92" transform="translate(-9.46 -137.2)"/><path class="cls-1" d="M150.33,240.33h0c23.8-19.66,20.56-39,17.07-52.33-7.59-29-.91-39.86-0.07-40.92a0.05,0.05,0,0,0,0-.08c-15.19.38-22.15,10.76-29,16.5-4.67,3.94-9.19,7.41-13.69,10.53,0,0-9.31,6.67-12.81,15.64" transform="translate(-9.46 -137.2)"/><path class="cls-1" d="M85,323c-21.33,18.33-28.33,20-28.33,20C8,341.67,11,282.67,11,282.67c2.69-4.78,14.23.89,16.58,2.11a0.61,0.61,0,0,0,.74-0.14L30,282.73a1.78,1.78,0,0,1,.86-0.54c18.25-5.13,23.49-19.86,23.49-19.86-2-72,57.5-72.66,57.5-72.66-10.5,22,1.17,47.66,1.17,47.66h0" transform="translate(-9.46 -137.2)"/><path class="cls-1" d="M217.36,432.61c3.23-7.58,4-34.28,4-34.28-0.31-5.27-3.07-11.11-5.93-15.85-0.4-.66-0.8-1.3-1.19-1.91l-0.53-.81a76.05,76.05,0,0,0-5-6.75c-24.25-12-25.29-12.51-33-17.85-24.37-16.9-37.64-8.21-49.33-4.15-39,13.55-51.88,3.93-54.69,1a1.16,1.16,0,0,1-.12-1.47c2.77-4,15.06-23.07,13.47-27.54" transform="translate(-9.46 -137.2)"/><path class="cls-1" d="M220.76,458.89s-6.51,3.45,33.38,1.47a0.5,0.5,0,0,0,.47-0.54c-0.19-1.9-.78-8.66,0-13.22a2.27,2.27,0,0,1,.16-0.52c1-2.38,9.23-20.67,22.59-33.11h0c0.79-1,16.67-19.42,20-37.59,0-.08,4.46-25.25-15.67-48h0" transform="translate(-9.46 -137.2)"/><path class="cls-1" d="M79.19,272.23c-0.22.45-.06,0.11-0.06,0.11s8.43-15.81,24.57-7.82l0.3,0.15h0" transform="translate(-9.46 -137.2)"/><path class="cls-1" d="M221.23,397.2s12.06,18.15,11,38.82a47.43,47.43,0,0,1-.59,5.48s3.64,7.09,22.65,7.71" transform="translate(-9.46 -137.2)"/><path class="cls-1" d="M232.26,436c-9.91-.15-14.26-4-14.26-4s-0.71,4.81-6.61,11.65a0.36,0.36,0,0,0,0,.46c0.63,0.76,3.5,2.82,15.86,1.89" transform="translate(-9.46 -137.2)"/><path class="cls-1" d="M220.76,458.89" transform="translate(-9.46 -137.2)"/><path class="cls-1" d="M231.67,441.5" transform="translate(-9.46 -137.2)"/><path class="cls-1" d="M454.59,347.13a137.15,137.15,0,0,0,12.74,36.21" transform="translate(-9.46 -137.2)"/><path class="cls-1" d="M519.24,428.92c-3.26,16.17-7,18.33-7,18.33,1.42,5-.43,7.65-1.62,8.81a3,3,0,0,1-1.71.8c-13.55,1.74-16.69-1.82-16.69-1.82-17,1.54-24.89-5.38-24.89-5.38s-6.67,8.88-15.33,9.54c0,0-1.17,1,6.71,3.21" transform="translate(-9.46 -137.2)"/><path class="cls-1" d="M498.49,446.82s1.76,3.18,13.76.43" transform="translate(-9.46 -137.2)"/><path class="cls-1" d="M215.88,440.5" transform="translate(-9.46 -137.2)"/><path class="cls-1" d="M220.76,458.89s2-1.06,5.08-4.76l0.39-.48,0.48-.62c2.12-2.83,4.67-6.8,5-11.53,0,0-7.1,9.34-13.67,9.59" transform="translate(-9.46 -137.2)"/><path class="cls-1" d="M218,451.09c-0.14-.2.73,3.36,7.07,3.94" transform="translate(-9.46 -137.2)"/><path class="cls-1" d="M218,432s-5.46,5.34-9.12,6.64a0.18,0.18,0,0,0-.08.29c0.34,0.4,1.42,1.28,4.64,1.82" transform="translate(-9.46 -137.2)"/><path class="cls-1" d="M69.73,307.82c-0.19-1.44-.15-0.73-0.15-0.73s2.83,21.17,36.33,18.58h0" transform="translate(-9.46 -137.2)"/><path class="cls-1" d="M216,383.5c-6.75-10.87-5.88-20.09-5.88-27h0" transform="translate(-9.46 -137.2)"/><path class="cls-1" d="M580.43,223.67c-0.95.4,10.58,7.34,18.76,2.83,1.81-1-13.31-1.83-13.28-5.18" transform="translate(-9.46 -137.2)"/><path class="cls-2" d="M114.08,266.87a10.56,10.56,0,0,1,4.53.43" transform="translate(-9.46 -137.2)"/><path class="cls-3" d="M114.08,267.5a9.05,9.05,0,0,1,4.37.4c0.75,0.3,1.07-.91.33-1.21a9.82,9.82,0,0,0-4.7-.45c-0.79.1-.8,1.35,0,1.25h0Z" transform="translate(-9.46 -137.2)"/><path class="cls-2" d="M126,269.83a32.6,32.6,0,0,1,5.47,2.79" transform="translate(-9.46 -137.2)"/><path class="cls-3" d="M125.79,270.44a23.24,23.24,0,0,1,5.33,2.73c0.64,0.49,1.26-.6.63-1.08a24.5,24.5,0,0,0-5.62-2.86c-0.74-.3-1.07.9-0.33,1.21h0Z" transform="translate(-9.46 -137.2)"/><path class="cls-2" d="M137.38,276.25a67.7,67.7,0,0,1,5.09,4.66" transform="translate(-9.46 -137.2)"/><path class="cls-3" d="M136.93,276.69a58.92,58.92,0,0,1,5.09,4.66,0.63,0.63,0,0,0,.88-0.88,58.91,58.91,0,0,0-5.09-4.66c-0.62-.51-1.51.37-0.88,0.88h0Z" transform="translate(-9.46 -137.2)"/><path class="cls-2" d="M147.27,285.61a40.37,40.37,0,0,1,3.94,5" transform="translate(-9.46 -137.2)"/><path class="cls-3" d="M146.83,286a29.48,29.48,0,0,1,3.84,4.92,0.63,0.63,0,0,0,1.08-.63,31,31,0,0,0-4-5.17c-0.54-.6-1.42.29-0.88,0.88h0Z" transform="translate(-9.46 -137.2)"/><path class="cls-2" d="M155,297.07a33.46,33.46,0,0,1,2.57,5" transform="translate(-9.46 -137.2)"/><path class="cls-3" d="M154.43,297.38a27.2,27.2,0,0,1,2.5,4.9c0.27,0.75,1.48.43,1.21-.33a28.73,28.73,0,0,0-2.63-5.2,0.63,0.63,0,0,0-1.08.63h0Z" transform="translate(-9.46 -137.2)"/><path class="cls-2" d="M159.51,310.24a28.25,28.25,0,0,1,.43,5.3" transform="translate(-9.46 -137.2)"/><path class="cls-3" d="M158.9,310.41a25.4,25.4,0,0,1,.41,5.14,0.63,0.63,0,0,0,1.25,0,27.06,27.06,0,0,0-.45-5.47c-0.15-.79-1.35-0.46-1.21.33h0Z" transform="translate(-9.46 -137.2)"/><path class="cls-2" d="M160.45,322.65a23.89,23.89,0,0,1,0,5.22" transform="translate(-9.46 -137.2)"/><path class="cls-3" d="M159.82,322.65a20.63,20.63,0,0,1,0,5.05c-0.11.79,1.1,1.13,1.21,0.33a21.82,21.82,0,0,0,0-5.38c-0.09-.79-1.34-0.8-1.25,0h0Z" transform="translate(-9.46 -137.2)"/><path class="cls-2" d="M159.39,334.65a28.2,28.2,0,0,1-1.12,3.57" transform="translate(-9.46 -137.2)"/><path class="cls-3" d="M158.78,334.48a22.33,22.33,0,0,1-1.05,3.42c-0.31.73,0.77,1.37,1.08,0.63a24.21,24.21,0,0,0,1.18-3.71,0.63,0.63,0,0,0-1.21-.33h0Z" transform="translate(-9.46 -137.2)"/><path class="cls-3" d="M170.39,229.7a50.7,50.7,0,0,1,4.36,4.74c0.48,0.63,1.57,0,1.08-.63a53.06,53.06,0,0,0-4.56-5,0.63,0.63,0,0,0-.88.88h0Z" transform="translate(-9.46 -137.2)"/><path class="cls-3" d="M178.46,238.82l4.21,7.08a0.63,0.63,0,0,0,1.08-.63l-4.21-7.08a0.63,0.63,0,0,0-1.08.63h0Z" transform="translate(-9.46 -137.2)"/><path class="cls-3" d="M186,250.76l3,5.93c0.36,0.72,1.44.09,1.08-.63l-3-5.93c-0.36-.72-1.44-0.09-1.08.63h0Z" transform="translate(-9.46 -137.2)"/><path class="cls-3" d="M191.8,262.8l2.7,6.35c0.31,0.74,1.39.1,1.08-.63l-2.7-6.35c-0.31-.74-1.39-0.1-1.08.63h0Z" transform="translate(-9.46 -137.2)"/><path class="cls-3" d="M196.31,274.5l2,6.82a0.63,0.63,0,0,0,1.21-.33l-2-6.82a0.63,0.63,0,0,0-1.21.33h0Z" transform="translate(-9.46 -137.2)"/><path class="cls-3" d="M199.92,287.86l1.6,6.81a0.63,0.63,0,0,0,1.21-.33l-1.6-6.81a0.63,0.63,0,0,0-1.21.33h0Z" transform="translate(-9.46 -137.2)"/><path class="cls-3" d="M202.77,300.79l1.29,7c0.15,0.79,1.35.46,1.21-.33l-1.29-7c-0.15-.79-1.35-0.46-1.21.33h0Z" transform="translate(-9.46 -137.2)"/><path class="cls-3" d="M204.75,313.42l0.75,6.71c0.09,0.79,1.34.8,1.25,0L206,313.42c-0.09-.79-1.34-0.8-1.25,0h0Z" transform="translate(-9.46 -137.2)"/><path class="cls-3" d="M209.5,350.88v-4.25a0.63,0.63,0,0,0-1.25,0v4.25a0.63,0.63,0,0,0,1.25,0h0Z" transform="translate(-9.46 -137.2)"/><path class="cls-3" d="M209.5,337.5v-4.12a0.63,0.63,0,0,0-1.25,0v4.13a0.63,0.63,0,0,0,1.25,0h0Z" transform="translate(-9.46 -137.2)"/><path class="cls-3" d="M211.48,325.42l1.38-4.26a0.63,0.63,0,0,0-1.21-.33l-1.37,4.26a0.63,0.63,0,0,0,1.21.33h0Z" transform="translate(-9.46 -137.2)"/><path class="cls-3" d="M215.1,313.44l1.83-4.85c0.28-.75-0.92-1.08-1.21-0.33l-1.83,4.85c-0.28.75,0.92,1.08,1.21,0.33h0Z" transform="translate(-9.46 -137.2)"/><path class="cls-3" d="M219.9,303.36L224,298.5c0.52-.61-0.36-1.5-0.88-0.88L219,302.47c-0.52.61,0.36,1.5,0.88,0.88h0Z" transform="translate(-9.46 -137.2)"/><path class="cls-3" d="M228.57,294.07l3.54-3.14c0.6-.53-0.28-1.42-0.88-0.88l-3.54,3.14c-0.6.53,0.28,1.42,0.88,0.88h0Z" transform="translate(-9.46 -137.2)"/><path class="cls-3" d="M237.44,287.41l6.33-4.7c0.64-.47,0-1.56-0.63-1.08l-6.33,4.7c-0.64.47,0,1.56,0.63,1.08h0Z" transform="translate(-9.46 -137.2)"/><path class="cls-3" d="M248.43,285l3.6,3.61a0.63,0.63,0,0,0,.88-0.88l-3.6-3.61a0.63,0.63,0,0,0-.88.88h0Z" transform="translate(-9.46 -137.2)"/><path class="cls-3" d="M255,292l3.63,5.38c0.45,0.66,1.53,0,1.08-.63L256,291.37c-0.45-.66-1.53,0-1.08.63h0Z" transform="translate(-9.46 -137.2)"/><path class="cls-3" d="M262.59,303.82l3.5,5.5a0.63,0.63,0,0,0,1.08-.63l-3.5-5.5a0.63,0.63,0,0,0-1.08.63h0Z" transform="translate(-9.46 -137.2)"/><path class="cls-3" d="M270,315.19l2.25,4.13a0.63,0.63,0,0,0,1.08-.63L271,314.56a0.63,0.63,0,0,0-1.08.63h0Z" transform="translate(-9.46 -137.2)"/><path class="cls-3" d="M248.9,185.92l2.13,5.25c0.3,0.74,1.51.41,1.21-.33l-2.12-5.25c-0.3-.74-1.51-0.41-1.21.33h0Z" transform="translate(-9.46 -137.2)"/><path class="cls-3" d="M252.52,198.44l1.75,4.6c0.28,0.74,1.49.42,1.21-.33l-1.75-4.6c-0.28-.74-1.49-0.42-1.21.33h0Z" transform="translate(-9.46 -137.2)"/><path class="cls-3" d="M255.13,208.5l0.75,6.63c0.09,0.79,1.34.8,1.25,0l-0.75-6.62c-0.09-.79-1.34-0.8-1.25,0h0Z" transform="translate(-9.46 -137.2)"/><path class="cls-3" d="M256.71,220.54l0.91,6.58c0.11,0.79,1.31.46,1.21-.33l-0.91-6.58c-0.11-.79-1.31-0.46-1.21.33h0Z" transform="translate(-9.46 -137.2)"/><path class="cls-3" d="M257.67,232.92l-0.57,5.58c-0.08.8,1.17,0.79,1.25,0l0.57-5.58c0.08-.8-1.17-0.79-1.25,0h0Z" transform="translate(-9.46 -137.2)"/><path class="cls-3" d="M256.54,244.21l-0.67,6.42c-0.08.8,1.17,0.79,1.25,0l0.67-6.42c0.08-.8-1.17-0.79-1.25,0h0Z" transform="translate(-9.46 -137.2)"/><path class="cls-3" d="M254.71,257l-1.35,6.33c-0.17.78,1,1.12,1.21,0.33l1.35-6.33c0.17-.78-1-1.12-1.21-0.33h0Z" transform="translate(-9.46 -137.2)"/><path class="cls-3" d="M251.71,268.68l-2.75,6c-0.33.73,0.74,1.36,1.08,0.63l2.75-6c0.33-.73-0.74-1.36-1.08-0.63h0Z" transform="translate(-9.46 -137.2)"/><path class="cls-3" d="M258.32,283.09L251.94,280c-0.72-.35-1.35.73-0.63,1.08l6.38,3.13c0.72,0.35,1.35-.73.63-1.08h0Z" transform="translate(-9.46 -137.2)"/><path class="cls-3" d="M262.75,283.88l6.81-.5c0.8-.06.8-1.31,0-1.25l-6.81.5c-0.8.06-.8,1.31,0,1.25h0Z" transform="translate(-9.46 -137.2)"/><path class="cls-3" d="M276.13,283l6.44-.4c0.8,0,.8-1.3,0-1.25l-6.44.4c-0.8,0-.8,1.3,0,1.25h0Z" transform="translate(-9.46 -137.2)"/><path class="cls-3" d="M289.86,281.9l5.89-.78c0.79-.1.8-1.35,0-1.25l-5.89.78c-0.79.1-.8,1.35,0,1.25h0Z" transform="translate(-9.46 -137.2)"/><path class="cls-3" d="M302.78,280.63l5.91-.19a0.63,0.63,0,0,0,0-1.25l-5.91.19a0.63,0.63,0,0,0,0,1.25h0Z" transform="translate(-9.46 -137.2)"/><path class="cls-3" d="M315.93,279.73l5.75-.52c0.79-.07.8-1.32,0-1.25l-5.75.52c-0.79.07-.8,1.32,0,1.25h0Z" transform="translate(-9.46 -137.2)"/><path class="cls-3" d="M328.78,278.78l5.72-.39c0.8-.05.8-1.3,0-1.25l-5.72.39c-0.8.05-.8,1.3,0,1.25h0Z" transform="translate(-9.46 -137.2)"/><path class="cls-3" d="M342,277.47l5.75-.47c0.8-.06.8-1.32,0-1.25l-5.75.47c-0.8.06-.8,1.32,0,1.25h0Z" transform="translate(-9.46 -137.2)"/><path class="cls-3" d="M355.66,276.25l5.25-.31c0.8,0,.8-1.3,0-1.25l-5.25.31c-0.8,0-.8,1.3,0,1.25h0Z" transform="translate(-9.46 -137.2)"/><path class="cls-3" d="M369.34,275.1l5.8-1c0.79-.14.46-1.34-0.33-1.21l-5.8,1c-0.79.14-.46,1.34,0.33,1.21h0Z" transform="translate(-9.46 -137.2)"/><path class="cls-3" d="M381.85,273.13L388.1,272c0.79-.15.46-1.35-0.33-1.21l-6.25,1.16c-0.79.15-.46,1.35,0.33,1.21h0Z" transform="translate(-9.46 -137.2)"/><path class="cls-3" d="M394.51,271l6.72-1.12c0.79-.13.46-1.34-0.33-1.21l-6.72,1.13c-0.79.13-.46,1.34,0.33,1.21h0Z" transform="translate(-9.46 -137.2)"/><path class="cls-3" d="M407.29,269.07l6-1.06c0.79-.14.46-1.35-0.33-1.21l-6,1.06c-0.79.14-.46,1.35,0.33,1.21h0Z" transform="translate(-9.46 -137.2)"/><path class="cls-3" d="M419.54,266.92l6.38-1.19c0.79-.15.46-1.35-0.33-1.21l-6.37,1.19c-0.79.15-.46,1.35,0.33,1.21h0Z" transform="translate(-9.46 -137.2)"/><path class="cls-3" d="M431.79,264.6l7.13-1.36c0.79-.15.46-1.36-0.33-1.21l-7.12,1.36c-0.79.15-.46,1.36,0.33,1.21h0Z" transform="translate(-9.46 -137.2)"/><path class="cls-3" d="M277.32,320.66l4.25-1.87c0.73-.32.1-1.4-0.63-1.08l-4.25,1.88c-0.73.32-.1,1.4,0.63,1.08h0Z" transform="translate(-9.46 -137.2)"/><path class="cls-3" d="M285.42,317.48l7.31-2.47c0.76-.26.43-1.46-0.33-1.21l-7.31,2.47c-0.76.26-.43,1.46,0.33,1.21h0Z" transform="translate(-9.46 -137.2)"/><path class="cls-3" d="M297,313.21l7.12-3c0.74-.32.1-1.39-0.63-1.08l-7.12,3c-0.74.32-.1,1.39,0.63,1.08h0Z" transform="translate(-9.46 -137.2)"/><path class="cls-3" d="M308.29,308.48l7.5-2.25a0.63,0.63,0,0,0-.33-1.21l-7.5,2.25a0.63,0.63,0,0,0,.33,1.21h0Z" transform="translate(-9.46 -137.2)"/><path class="cls-3" d="M319.92,305l8.13-2.25a0.63,0.63,0,0,0-.33-1.21l-8.12,2.25a0.63,0.63,0,0,0,.33,1.21h0Z" transform="translate(-9.46 -137.2)"/><path class="cls-3" d="M331.92,301.92l7.09-1.5c0.79-.17.45-1.37-0.33-1.21l-7.09,1.5c-0.79.17-.45,1.37,0.33,1.21h0Z" transform="translate(-9.46 -137.2)"/><path class="cls-3" d="M343.92,299.67l6.13-.84c0.79-.11.46-1.31-0.33-1.21l-6.12.84c-0.79.11-.46,1.31,0.33,1.21h0Z" transform="translate(-9.46 -137.2)"/><path class="cls-3" d="M354.38,298.5l7.85-.9c0.79-.09.8-1.34,0-1.25l-7.85.9c-0.79.09-.8,1.34,0,1.25h0Z" transform="translate(-9.46 -137.2)"/><path class="cls-3" d="M367.38,297.25c2.66,0,5.31-.16,8-0.25a0.63,0.63,0,0,0,0-1.25c-2.65.09-5.31,0.22-8,.25a0.63,0.63,0,0,0,0,1.25h0Z" transform="translate(-9.46 -137.2)"/><path class="cls-3" d="M381.25,297h7.13a0.63,0.63,0,0,0,0-1.25h-7.12a0.63,0.63,0,0,0,0,1.25h0Z" transform="translate(-9.46 -137.2)"/><path class="cls-3" d="M394.5,297c2.14,0.13,4.28.36,6.41,0.6,0.8,0.09.79-1.16,0-1.25-2.13-.23-4.27-0.46-6.41-0.6-0.8-.05-0.8,1.2,0,1.25h0Z" transform="translate(-9.46 -137.2)"/><path class="cls-3" d="M406.06,298.25l8.34,0.78c0.8,0.08.8-1.18,0-1.25l-8.34-.78c-0.8-.08-0.8,1.18,0,1.25h0Z" transform="translate(-9.46 -137.2)"/><path class="cls-3" d="M418.28,299.44l7,0.63c0.8,0.07.8-1.18,0-1.25l-7-.62c-0.8-.07-0.8,1.18,0,1.25h0Z" transform="translate(-9.46 -137.2)"/><path class="cls-3" d="M429.62,300.45l7.66,1.06c0.79,0.11,1.13-1.1.33-1.21l-7.66-1.06c-0.79-.11-1.13,1.1-0.33,1.21h0Z" transform="translate(-9.46 -137.2)"/><path class="cls-3" d="M454.31,341.88l-0.59-6.5c-0.07-.79-1.32-0.8-1.25,0l0.59,6.5c0.07,0.79,1.32.8,1.25,0h0Z" transform="translate(-9.46 -137.2)"/><path class="cls-3" d="M453.36,330.94l-0.64-8.31c-0.06-.8-1.31-0.8-1.25,0l0.64,8.31c0.06,0.8,1.31.8,1.25,0h0Z" transform="translate(-9.46 -137.2)"/><path class="cls-3" d="M452.38,318.25v-6.19a0.63,0.63,0,0,0-1.25,0v6.19a0.63,0.63,0,0,0,1.25,0h0Z" transform="translate(-9.46 -137.2)"/><path class="cls-3" d="M452,307l-0.44-7.19c0-.8-1.3-0.8-1.25,0l0.44,7.19c0,0.8,1.3.8,1.25,0h0Z" transform="translate(-9.46 -137.2)"/><path class="cls-3" d="M442.21,302.1l4.25,0.63c0.79,0.12,1.13-1.09.33-1.21l-4.25-.62c-0.79-.12-1.13,1.09-0.33,1.21h0Z" transform="translate(-9.46 -137.2)"/><path class="cls-3" d="M451,293.84l-0.25-7.78a0.63,0.63,0,0,0-1.25,0l0.25,7.78a0.63,0.63,0,0,0,1.25,0h0Z" transform="translate(-9.46 -137.2)"/><path class="cls-3" d="M450.31,280.94l-0.19-6.59a0.63,0.63,0,0,0-1.25,0l0.19,6.59a0.63,0.63,0,0,0,1.25,0h0Z" transform="translate(-9.46 -137.2)"/><path class="cls-3" d="M444.2,262.48l2.13-.39c0.79-.14.46-1.35-0.33-1.21l-2.12.39c-0.79.14-.46,1.35,0.33,1.21h0Z" transform="translate(-9.46 -137.2)"/><path class="cls-3" d="M450.69,268.13l0.59-6.25c0.08-.8-1.17-0.8-1.25,0l-0.59,6.25c-0.08.8,1.17,0.8,1.25,0h0Z" transform="translate(-9.46 -137.2)"/><path class="cls-3" d="M451.6,255.35l1.22-6.84c0.14-.79-1.06-1.12-1.21-0.33L450.4,255c-0.14.79,1.06,1.12,1.21,0.33h0Z" transform="translate(-9.46 -137.2)"/><path class="cls-3" d="M454,241.54l1.13-5.87c0.15-.79-1.05-1.12-1.21-0.33l-1.12,5.88c-0.15.79,1.05,1.12,1.21,0.33h0Z" transform="translate(-9.46 -137.2)"/><path class="cls-3" d="M456.51,229.88l1.84-6.72a0.63,0.63,0,0,0-1.21-.33l-1.84,6.72a0.63,0.63,0,0,0,1.21.33h0Z" transform="translate(-9.46 -137.2)"/><path class="cls-3" d="M460.6,215.67l1.88-6a0.63,0.63,0,0,0-1.21-.33l-1.87,6a0.63,0.63,0,0,0,1.21.33h0Z" transform="translate(-9.46 -137.2)"/><path class="cls-3" d="M464.1,204.67l2.34-5.84c0.3-.75-0.91-1.07-1.21-0.33l-2.34,5.84c-0.3.75,0.91,1.07,1.21,0.33h0Z" transform="translate(-9.46 -137.2)"/><path class="cls-3" d="M469,191.92l2.28-5c0.33-.73-0.75-1.36-1.08-0.63l-2.28,5c-0.33.73,0.75,1.36,1.08,0.63h0Z" transform="translate(-9.46 -137.2)"/><path class="cls-3" d="M459.19,207.15L454.82,205c-0.72-.35-1.36.73-0.63,1.08l4.38,2.13c0.72,0.35,1.36-.73.63-1.08h0Z" transform="translate(-9.46 -137.2)"/><path class="cls-3" d="M450.78,202.79L445,200.25c-0.73-.32-1.37.76-0.63,1.08l5.79,2.54c0.73,0.32,1.37-.76.63-1.08h0Z" transform="translate(-9.46 -137.2)"/><path class="cls-3" d="M440.21,199.08l-6.12-1.37a0.63,0.63,0,0,0-.33,1.21l6.13,1.38a0.63,0.63,0,0,0,.33-1.21h0Z" transform="translate(-9.46 -137.2)"/><path class="cls-3" d="M428.63,197l-6.37-.37c-0.8,0-.8,1.2,0,1.25l6.38,0.38c0.8,0,.8-1.2,0-1.25h0Z" transform="translate(-9.46 -137.2)"/><path class="cls-3" d="M416.84,196.81l-6.38.65c-0.79.08-.8,1.33,0,1.25l6.38-.65c0.79-.08.8-1.33,0-1.25h0Z" transform="translate(-9.46 -137.2)"/><path class="cls-3" d="M405.71,198l-6.71.64c-0.79.08-.8,1.33,0,1.25l6.71-.64c0.79-.08.8-1.33,0-1.25h0Z" transform="translate(-9.46 -137.2)"/><path class="cls-3" d="M393,198.59h-7.37a0.63,0.63,0,0,0,0,1.25H393a0.63,0.63,0,0,0,0-1.25h0Z" transform="translate(-9.46 -137.2)"/><path class="cls-3" d="M377.71,198.81h-6.25a0.63,0.63,0,0,0,0,1.25h6.25a0.63,0.63,0,0,0,0-1.25h0Z" transform="translate(-9.46 -137.2)"/><path class="cls-3" d="M365,198.81l-7.75.43c-0.8,0-.81,1.29,0,1.25l7.75-.43c0.8,0,.81-1.29,0-1.25h0Z" transform="translate(-9.46 -137.2)"/><path class="cls-3" d="M350.83,200l-6.12,1.31c-0.79.17-.45,1.37,0.33,1.21l6.13-1.31c0.79-.17.45-1.37-0.33-1.21h0Z" transform="translate(-9.46 -137.2)"/><path class="cls-3" d="M338.67,202.29l-7.79.79c-0.79.08-.8,1.33,0,1.25l7.79-.79c0.79-.08.8-1.33,0-1.25h0Z" transform="translate(-9.46 -137.2)"/><path class="cls-3" d="M324.94,203.08H317a0.63,0.63,0,0,0,0,1.25h7.94a0.63,0.63,0,0,0,0-1.25h0Z" transform="translate(-9.46 -137.2)"/><path class="cls-3" d="M311,203.08h-6.62a0.63,0.63,0,0,0,0,1.25H311a0.63,0.63,0,0,0,0-1.25h0Z" transform="translate(-9.46 -137.2)"/><path class="cls-3" d="M298,203.08h-5.25a0.63,0.63,0,0,0,0,1.25H298a0.63,0.63,0,0,0,0-1.25h0Z" transform="translate(-9.46 -137.2)"/><path class="cls-3" d="M285.25,203.25h-5.37a0.63,0.63,0,0,0,0,1.25h5.38a0.63,0.63,0,0,0,0-1.25h0Z" transform="translate(-9.46 -137.2)"/><path class="cls-3" d="M272.6,202.67l-5.67-.75c-0.79-.11-0.79,1.15,0,1.25l5.67,0.75c0.79,0.11.79-1.15,0-1.25h0Z" transform="translate(-9.46 -137.2)"/><path class="cls-3" d="M262.12,200.36l-3.25-1.17c-0.76-.27-1.08.93-0.33,1.21l3.25,1.17c0.76,0.27,1.08-.93.33-1.21h0Z" transform="translate(-9.46 -137.2)"/><path class="cls-3" d="M482.18,415.16L486,417.5a0.63,0.63,0,0,0,.63-1.08l-3.83-2.33a0.63,0.63,0,0,0-.63,1.08h0Z" transform="translate(-9.46 -137.2)"/><path class="cls-3" d="M489.21,418.73l6.63,1.63a0.63,0.63,0,0,0,.33-1.21l-6.62-1.62a0.63,0.63,0,0,0-.33,1.21h0Z" transform="translate(-9.46 -137.2)"/><path class="cls-3" d="M499.51,421.5l5.36,0.58c0.8,0.09.79-1.16,0-1.25l-5.36-.58c-0.8-.09-0.79,1.16,0,1.25h0Z" transform="translate(-9.46 -137.2)"/><path class="cls-3" d="M509.13,422.58l6,0.25a0.63,0.63,0,0,0,0-1.25l-6-.25a0.63,0.63,0,0,0,0,1.25h0Z" transform="translate(-9.46 -137.2)"/><path class="cls-3" d="M519.58,422.31l4.33-.83c0.79-.15.46-1.36-0.33-1.21l-4.33.83c-0.79.15-.46,1.36,0.33,1.21h0Z" transform="translate(-9.46 -137.2)"/><path class="cls-3" d="M461.71,361.85l4.92,2c0.74,0.31,1.07-.9.33-1.21l-4.92-2c-0.74-.31-1.07.9-0.33,1.21h0Z" transform="translate(-9.46 -137.2)"/><path class="cls-3" d="M470,365.27l6.75,2.58c0.75,0.29,1.08-.92.33-1.21l-6.75-2.58c-0.75-.29-1.08.92-0.33,1.21h0Z" transform="translate(-9.46 -137.2)"/><path class="cls-3" d="M481.54,369.23l7,1.88a0.63,0.63,0,0,0,.33-1.21l-7-1.87a0.63,0.63,0,0,0-.33,1.21h0Z" transform="translate(-9.46 -137.2)"/><path class="cls-3" d="M495.08,372.48l7,1c0.79,0.11,1.13-1.09.33-1.21l-7-1c-0.79-.11-1.13,1.09-0.33,1.21h0Z" transform="translate(-9.46 -137.2)"/><path class="cls-3" d="M507.88,374.25l7.5,0.31a0.63,0.63,0,0,0,0-1.25l-7.5-.31a0.63,0.63,0,0,0,0,1.25h0Z" transform="translate(-9.46 -137.2)"/><path class="cls-3" d="M521.17,374.88h7.33a0.63,0.63,0,0,0,0-1.25h-7.33a0.63,0.63,0,0,0,0,1.25h0Z" transform="translate(-9.46 -137.2)"/><path class="cls-3" d="M535.08,375h7.25a0.63,0.63,0,0,0,0-1.25h-7.25a0.63,0.63,0,0,0,0,1.25h0Z" transform="translate(-9.46 -137.2)"/><path class="cls-3" d="M548.88,374.72l8-.94c0.79-.09.8-1.34,0-1.25l-8,.94c-0.79.09-.8,1.34,0,1.25h0Z" transform="translate(-9.46 -137.2)"/><path class="cls-3" d="M562.57,372.1l4-2.12a0.63,0.63,0,0,0-.63-1.08l-4,2.13a0.63,0.63,0,0,0,.63,1.08h0Z" transform="translate(-9.46 -137.2)"/><path class="cls-3" d="M216.31,375.91l4.61,3a0.63,0.63,0,0,0,.63-1.08l-4.61-3a0.63,0.63,0,0,0-.63,1.08h0Z" transform="translate(-9.46 -137.2)"/><path class="cls-3" d="M223.71,380.35l5.63,2c0.76,0.27,1.09-.94.33-1.21l-5.62-2c-0.76-.27-1.09.94-0.33,1.21h0Z" transform="translate(-9.46 -137.2)"/><path class="cls-3" d="M233.25,384.13L240,385c0.8,0.1.79-1.15,0-1.25l-6.71-.87c-0.8-.1-0.79,1.15,0,1.25h0Z" transform="translate(-9.46 -137.2)"/><path class="cls-3" d="M245.88,385.63h6a0.63,0.63,0,0,0,0-1.25h-6a0.63,0.63,0,0,0,0,1.25h0Z" transform="translate(-9.46 -137.2)"/><path class="cls-3" d="M257,385.63l8.08-.42c0.8,0,.81-1.29,0-1.25l-8.08.42c-0.8,0-.81,1.29,0,1.25h0Z" transform="translate(-9.46 -137.2)"/><path class="cls-3" d="M270.67,384.54l7-2a0.63,0.63,0,0,0-.33-1.21l-7,2a0.63,0.63,0,0,0,.33,1.21h0Z" transform="translate(-9.46 -137.2)"/><path class="cls-3" d="M282.19,380.29l5.13-2.87a0.63,0.63,0,0,0-.63-1.08l-5.12,2.88a0.63,0.63,0,0,0,.63,1.08h0Z" transform="translate(-9.46 -137.2)"/><path class="cls-3" d="M232.68,419.41l4.13,2.88c0.66,0.46,1.29-.62.63-1.08l-4.12-2.87c-0.66-.46-1.29.62-0.63,1.08h0Z" transform="translate(-9.46 -137.2)"/><path class="cls-3" d="M240.58,424.73l6,1.92a0.63,0.63,0,0,0,.33-1.21l-6-1.92a0.63,0.63,0,0,0-.33,1.21h0Z" transform="translate(-9.46 -137.2)"/><path class="cls-3" d="M250.88,426.88l5.5-.21a0.63,0.63,0,0,0,0-1.25l-5.5.21a0.63,0.63,0,0,0,0,1.25h0Z" transform="translate(-9.46 -137.2)"/><path class="cls-3" d="M260.29,425.48l4.63-1.67c0.75-.27.43-1.48-0.33-1.21L260,424.27c-0.75.27-.43,1.48,0.33,1.21h0Z" transform="translate(-9.46 -137.2)"/><path class="cls-3" d="M291.31,374.82l3-2.09c0.66-.45,0-1.54-0.63-1.08l-3,2.09c-0.66.45,0,1.54,0.63,1.08h0Z" transform="translate(-9.46 -137.2)"/><path class="cls-3" d="M473,182.82l1.79-3.75c0.35-.72-0.73-1.36-1.08-0.63L472,182.18c-0.35.72,0.73,1.36,1.08,0.63h0Z" transform="translate(-9.46 -137.2)"/><path class="cls-3" d="M76.26,294.67a18,18,0,0,1,.49,5,0.63,0.63,0,0,0,1.25,0,19.31,19.31,0,0,0-.54-5.3,0.63,0.63,0,0,0-1.21.33h0Z" transform="translate(-9.46 -137.2)"/><path class="cls-3" d="M73.59,283.1a16,16,0,0,1,1.54,5.33c0.1,0.79,1.35.8,1.25,0a17.74,17.74,0,0,0-1.71-6,0.63,0.63,0,0,0-1.08.63h0Z" transform="translate(-9.46 -137.2)"/><path class="cls-3" d="M69.31,273.36a10.55,10.55,0,0,1,1.9,2.79,0.63,0.63,0,0,0,1.08-.63,11.58,11.58,0,0,0-2.1-3,0.63,0.63,0,0,0-.88.88h0Z" transform="translate(-9.46 -137.2)"/><path class="cls-3" d="M59.58,265.79c1.41,0,3.06,1.2,4.18,2,0.64,0.48,1.27-.6.63-1.08-1.32-1-3.08-2.18-4.82-2.22a0.63,0.63,0,0,0,0,1.25h0Z" transform="translate(-9.46 -137.2)"/><path class="cls-3" d="M143.35,243.92a24,24,0,0,1-6.1,2.73,0.63,0.63,0,0,0,.33,1.21A25.2,25.2,0,0,0,144,245a0.63,0.63,0,0,0-.63-1.08h0Z" transform="translate(-9.46 -137.2)"/><path class="cls-3" d="M124.13,248.69c1.7,0.65,4,.34,5.75.23,0.8-.05.8-1.3,0-1.25-1.63.1-3.82,0.42-5.42-.19-0.75-.29-1.08.92-0.33,1.21h0Z" transform="translate(-9.46 -137.2)"/><path class="cls-3" d="M115.12,244.09a5.63,5.63,0,0,0,2.83,3.12c0.73,0.32,1.37-.76.63-1.08a4,4,0,0,1-1.74-1.46,6.33,6.33,0,0,1-.4-0.68l-0.12-.26a0.19,0.19,0,1,0,0,0c-0.29-.74-1.5-0.42-1.21.33h0Z" transform="translate(-9.46 -137.2)"/><path class="cls-3" d="M293.35,226c9.49-.57,12.17,7.16,13.07,14.11,1.27,9.83-.25,18.76-10.15,20a21.27,21.27,0,0,1-5,0l-3.17-32.91a18,18,0,0,1,4.39-1.12Zm1.77,30.46a6.31,6.31,0,0,0,1.87.06c7.31-.95,6.91-8.62,6.27-13.58-1.62-12.51-6.46-14.86-9.94-14.41a8.8,8.8,0,0,0-2.41.67Z" transform="translate(-9.46 -137.2)"/><path class="cls-3" d="M319.68,239l0.75,1.78L314,242.6l0.26,11,8.2-.5L323,255l-10.54,2.52-3.23-29.83,9.2-1.83,1,3.27-7.68.39,1.83,10Z" transform="translate(-9.46 -137.2)"/><path class="cls-3" d="M326.78,254.33l-3.21-30.17,2.94-.94L328.64,252l7.87-1.82,1.05,2.68Z" transform="translate(-9.46 -137.2)"/><path class="cls-3" d="M339.22,220.93l2.15,0.73,2.82,30.15-3.08.67Z" transform="translate(-9.46 -137.2)"/><path class="cls-3" d="M358.29,224.95a5.63,5.63,0,0,0-3.21-.61c-4.1.28-6.86,5.61-6.32,13.47s3.49,12.84,8.46,12.5a7,7,0,0,0,2.25-.61l0.73,1.37a9.22,9.22,0,0,1-4.22,1.39l-0.35,0c-4.51,0-9-3.19-9.71-13.43,0-.55-0.08-1.14-0.08-1.74-0.22-9.53,2.41-16.23,8.87-16.67a7.51,7.51,0,0,1,4.49.79Z" transform="translate(-9.46 -137.2)"/><path class="cls-3" d="M362,220.38l2.15,0.73L367,251.25l-3.08.67Z" transform="translate(-9.46 -137.2)"/><path class="cls-3" d="M368.11,236.34c-0.6-11.92,3.21-17,7.87-17.24,5.13-.26,8,4.27,8.48,14.74,0.7,14-4,17.24-7.74,17.42C371.86,251.5,368.67,247.51,368.11,236.34Zm13.59-.26c-0.32-6.38-2.16-14.36-6.49-14.14-4.06.2-4.71,6.21-4.43,11.94,0.41,8.19,2.62,14.76,6.55,14.56S382,241.75,381.7,236.07Z" transform="translate(-9.46 -137.2)"/><path class="cls-3" d="M402,217.56l0.73,20.87c0.27,7.69-2.41,11.65-6.62,11.86-4,.2-7-2.64-7.52-10.68l-1.4-19.86,2-.71,2.5,20.41c0.74,6,2.64,8.08,5,8s4-2.16,3.75-7c0-.42,0-0.88-0.11-1.35L398.3,219Z" transform="translate(-9.46 -137.2)"/><path class="cls-3" d="M407.68,246.11a7.08,7.08,0,0,0,4.05,1.24c3.06-.15,4.72-2.85,4.57-5.83s-2-4.9-4.22-6.93c-2.84-2.61-5.59-4.06-5.83-8.81s2.5-8.25,6.75-8.46a7.08,7.08,0,0,1,4.07.82l-0.59,3.3a5.76,5.76,0,0,0-3.52-.94,4.19,4.19,0,0,0-4.16,4.6c0.17,3.31,1.92,4.9,4.63,6.35,3.2,1.8,5.86,3.86,6.09,8.61,0.26,5.26-3.25,9.17-7.7,9.39a8.54,8.54,0,0,1-5.1-1.47Z" transform="translate(-9.46 -137.2)"/><path class="cls-3" d="M240.21,362.88a2.38,2.38,0,0,0,1-1.32,1.28,1.28,0,0,0-1-1.72,2.1,2.1,0,0,0-2.1.81c-1,1-1.75,1.66-3.17,1.28a2.33,2.33,0,0,1-1.68-3,2.84,2.84,0,0,1,1.08-1.65l0.34,0.6a2,2,0,0,0-.64,1.07,1.34,1.34,0,0,0,1,1.54,1.92,1.92,0,0,0,1.93-.7c1-.86,2-1.51,3.26-1.16a2.61,2.61,0,0,1,1.83,3.22,3.49,3.49,0,0,1-.82,1.62Z" transform="translate(-9.46 -137.2)"/><path class="cls-3" d="M235.66,350.22l6.57,1.43,2.37,0.48-0.16,1.16L242.8,353l0,0.08a2.12,2.12,0,0,1,1,2.33c-0.39,1.45-1.46,2-4,1.5l-5.25-1,0.12-1.38,5.36,1.13c1.82,0.37,2.56.28,2.83-.71s-0.87-1.67-1.46-2a5.34,5.34,0,0,0-.78-0.29l-4.91-1.51Z" transform="translate(-9.46 -137.2)"/><path class="cls-3" d="M245.32,350l-2.05-.51-10.44-2.32,0.17-1.58,4.88,1.52,0-.11a2.14,2.14,0,0,1-.79-2.27l0-.13c0.39-1.45,2.34-2.38,5.63-1.49,3.11,0.83,3.77,2.43,3.38,3.87a2.3,2.3,0,0,1-1.78,1.65l0,0.07,1.15,0.35ZM242,348.1c1,0.3,2.61.08,2.88-.91,0.33-1.23-1-2.16-2.89-2.79l-0.45-.14c-2.08-.56-3.13,0-3.38.89-0.16.61,0.12,1.74,1.7,2.26Z" transform="translate(-9.46 -137.2)"/><path class="cls-3" d="M246.52,343.68l-12.33-5.75,0.84-.6,11.81,4.84Z" transform="translate(-9.46 -137.2)"/><path class="cls-3" d="M236.79,336a0.82,0.82,0,0,1-.53-1.1,1,1,0,0,1,1.26-.44,0.81,0.81,0,0,1,.5,1A0.91,0.91,0,0,1,236.79,336ZM248,338.66l-0.45,1.44-8.44-3.45,0.61-.9Z" transform="translate(-9.46 -137.2)"/><path class="cls-3" d="M249.29,337.7l-6-3.2c-0.92-.5-1.28-0.7-2.05-1.09l0.54-.81,1.15,0.53,0-.08a2.34,2.34,0,0,1-.08-2.66,2,2,0,0,1,2.29-1l0,0a2.66,2.66,0,0,1-.19-2.77c0.52-.87,1.62-1.71,3.53-0.59a5.41,5.41,0,0,1,.46.29l5,3.5-0.67,1-4.69-3.21c-1.08-.75-2.28-1-2.89,0-0.51.85,0.08,1.88,1.26,2.57l5,2.93-0.52.76-5.24-2.62c-1-.51-2-0.88-2.63.1s0.22,2.09,1.24,2.61l5,2.47Z" transform="translate(-9.46 -137.2)"/><path class="cls-3" d="M257.88,323.16a4.37,4.37,0,0,1-.64,1.71c-1.48,2.5-4,1.91-5.88.82-2.3-1.36-3.62-3.41-2.6-5.13,0-.06.1-0.13,0.14-0.2,1.17-1.64,2.93-1.23,4.6-.23,0.34,0.2.54,0.34,0.94,0.62l-2.74,3.86c2.46,1.54,3.63.71,4.3-.21,0-.08.11-0.15,0.16-0.23a2.89,2.89,0,0,0,.42-1.34Zm-5.21-1.93c-1.47-.87-2.67-0.93-3.17-0.09s0.38,2.08,1.45,2.8Z" transform="translate(-9.46 -137.2)"/><path class="cls-3" d="M125.64,219.85l0.75-3.24L139.17,215V215L127,210l0.73-1.54,9.34,2.9c4.19,1.29,7.47,2.74,10.08,5.33a8.68,8.68,0,0,1,1.92,3.49l-1,.76c-1.37-3.31-6.08-4.67-6.64-4.71a1.36,1.36,0,0,0-.63.07Z" transform="translate(-9.46 -137.2)"/><path class="cls-3" d="M144.66,197.44a9.08,9.08,0,0,1,.16,3.5c-0.65,5.55-5.23,6.58-9,6.14-4.69-.55-8.26-3.07-7.81-6.91,0-.14.07-0.32,0.09-0.46,0.74-3.8,3.88-4.48,7.3-4.09,0.69,0.08,1.11.17,2,.34l-1.74,8.95c5.07,0.74,6.38-1.65,6.83-3.81,0-.18.08-0.35,0.1-0.53a6,6,0,0,0-.25-2.68Zm-9.8.78c-3-.35-5,0.51-5.2,2.37-0.25,2.11,2.07,3.33,4.32,3.74Z" transform="translate(-9.46 -137.2)"/><path class="cls-3" d="M143.56,194.5a4.81,4.81,0,0,0,1.62-2.7c0.33-1.74-.44-2.84-1.93-3.12-1.2-.23-2.38.32-3.62,1.92-1.68,2.14-2.91,3.49-5.47,3s-3.78-2.8-3.29-5.39a5.8,5.8,0,0,1,1.74-3.34l0.67,1.08a4.14,4.14,0,0,0-1,2.16,2.43,2.43,0,0,0,2,2.76c1.33,0.25,2.11-.34,3.34-1.68,1.65-1.82,3.33-3.23,5.64-2.79,2.89,0.54,4,3.51,3.57,5.85a7.25,7.25,0,0,1-1.28,3.25Z" transform="translate(-9.46 -137.2)"/><path class="cls-3" d="M499.28,254c0.16-7.07,3.76-10.06,7.5-10,4,0.09,7,3.81,6.83,10.71s-3.38,10.11-7.5,10-6.88-3.1-6.84-10.38V254Zm11.23,2c0.07-3.33-.7-9.71-4.48-9.79-3.2,0-3.59,4.37-3.65,7.28-0.13,5.94,2.09,9.15,4.46,9.12C509.57,262.54,510.43,259.31,510.51,255.95Z" transform="translate(-9.46 -137.2)"/><path class="cls-3" d="M516.59,263.33l1.24-15c0.21-2.32.28-3.23,0.39-5.15l2.13,0.39-0.06,2.8,0.21,0a5.2,5.2,0,0,1,5.34-2.52,4.49,4.49,0,0,1,4,3.81h0.08a5.91,5.91,0,0,1,5.47-2.84c2.23,0.28,4.93,1.79,4.32,6.66,0,0.37-.1.78-0.19,1.19l-2.74,13.19-2.58-.49,2.39-12.4c0.57-2.86.11-5.56-2.53-5.89-2.19-.27-3.75,1.84-4.13,4.85l-1.51,12.8-2-.38,0.7-13c0.14-2.5,0-4.95-2.53-5.26-2.31-.29-4.06,2.3-4.21,4.84l-0.55,12.46Z" transform="translate(-9.46 -137.2)"/><path class="cls-3" d="M489.4,290.82c0.42-7.4,1-15.67.72-19.92l1.83,0.38,0.12,2.2h0.08a5.32,5.32,0,0,1,4.87-2.91c2.41,0,5.2,1.54,5.19,6a9.08,9.08,0,0,1,0,1L501,291l-2.45-.25,0.76-12.51c0.17-2.66-.58-5.24-3.24-5.24-2.29,0-3.7,2.49-3.7,5.36l0.33,12.76Z" transform="translate(-9.46 -137.2)"/><path class="cls-3" d="M505.8,281.55c0.58-7,4.36-9.82,8.09-9.51,4,0.33,6.74,4.23,6.17,11.11s-4,9.89-8.09,9.55-6.68-3.51-6.2-10.78Zm11.09,2.67c0.27-3.31-.11-9.73-3.88-10-3.2-.18-3.85,4.15-4.09,7-0.49,5.93,1.53,9.26,3.9,9.38C515.55,290.74,516.61,287.57,516.89,284.21Z" transform="translate(-9.46 -137.2)"/><path class="cls-3" d="M522.72,293.61l1.78-14.92c0.29-2.31.39-3.22,0.58-5.13L527.2,274l-0.16,2.8,0.21,0a5.2,5.2,0,0,1,5.43-2.32,4.49,4.49,0,0,1,3.87,4h0.08a5.91,5.91,0,0,1,5.57-2.64c2.22,0.36,4.86,2,4.08,6.81-0.06.37-.13,0.78-0.23,1.18l-3.21,13.08-2.56-.58,2.83-12.3c0.67-2.84.31-5.55-2.32-6-2.18-.35-3.81,1.7-4.3,4.7l-2,12.74-2-.45,1.17-13c0.23-2.49.17-4.94-2.34-5.35-2.3-.37-4.14,2.15-4.38,4.68l-1,12.43Z" transform="translate(-9.46 -137.2)"/><path class="cls-3" d="M489.61,322.64c-0.32-7.41-.55-15.7-1.26-19.89l1.86,0.19,0.34,2.18h0.08a5.32,5.32,0,0,1,4.55-3.38c2.4-.24,5.32,1,5.77,5.49a9.09,9.09,0,0,1,.06,1l0.16,13.4H498.7l-0.49-12.53c-0.1-2.66-1.1-5.16-3.74-4.89-2.28.23-3.44,2.85-3.15,5.7l1.59,12.67Z" transform="translate(-9.46 -137.2)"/><path class="cls-3" d="M504.77,310.92c0.4-7.06,4.1-9.93,7.84-9.72,4,0.23,6.85,4.05,6.46,10.94s-3.73,10-7.84,9.76-6.77-3.34-6.48-10.61Zm11.15,2.38c0.19-3.32-.37-9.72-4.14-9.94-3.2-.1-3.74,4.24-3.9,7.15-0.34,5.94,1.77,9.22,4.14,9.27C514.76,319.86,515.73,316.67,515.92,313.3Z" transform="translate(-9.46 -137.2)"/><path class="cls-3" d="M520.81,322.52l1.33-15c0.22-2.32.3-3.23,0.42-5.14l2.13,0.4-0.07,2.8,0.21,0a5.2,5.2,0,0,1,5.36-2.49,4.49,4.49,0,0,1,4,3.83h0.08a5.91,5.91,0,0,1,5.48-2.8c2.23,0.29,4.92,1.82,4.28,6.68,0,0.37-.1.78-0.2,1.19L541,325.25l-2.58-.5,2.46-12.38c0.58-2.86.14-5.56-2.5-5.9-2.19-.29-3.76,1.81-4.15,4.82l-1.59,12.79-2-.39,0.78-13c0.16-2.5,0-4.95-2.5-5.27-2.31-.3-4.07,2.28-4.24,4.81l-0.62,12.46Z" transform="translate(-9.46 -137.2)"/><path class="cls-3" d="M209.74,231.89a5.19,5.19,0,0,0,2.73.79,3.22,3.22,0,0,0,3.19-3.48c-0.06-1.86-1.26-3-2.76-4.22-1.89-1.6-3.73-2.5-3.82-5.37a4.68,4.68,0,0,1,4.71-5,5.27,5.27,0,0,1,2.75.53l-0.45,2a4.23,4.23,0,0,0-2.37-.6,2.69,2.69,0,0,0-2.89,2.74c0.06,2,1.23,3,3,3.87,2.15,1.11,3.92,2.38,4,5.25a5.39,5.39,0,0,1-5.37,5.6,6.27,6.27,0,0,1-3.44-.93Z" transform="translate(-9.46 -137.2)"/><path class="cls-3" d="M220.27,224.32c0.26-6.86,3-9.57,6-9.46,3.32,0.13,4.9,2.87,4.67,8.9-0.31,8-3.54,9.66-5.94,9.57C221.86,233.2,220,230.75,220.27,224.32Zm8.77,0.57c0.14-3.67-.61-8.34-3.42-8.45-2.63-.1-3.38,3.31-3.5,6.6-0.18,4.72.89,8.59,3.44,8.69S228.92,228.16,229,224.89Z" transform="translate(-9.46 -137.2)"/><path class="cls-3" d="M205.5,246.61l4.17-.07,0.34,7.8a8.92,8.92,0,0,1-3.11.83,5.41,5.41,0,0,1-4.18-1.51c-1.2-1.16-2-3.37-2.16-6.27-0.38-6,2.5-8.53,5.53-8.74a5.06,5.06,0,0,1,2.51.45l-0.68.86a4.39,4.39,0,0,0-1.71-.22c-2.69.18-4.37,2.54-4.09,6.62,0.3,4.46,2,6.92,4.76,6.73a2.91,2.91,0,0,0,1.75-.57L208,247.88l-2.23.56Z" transform="translate(-9.46 -137.2)"/><path class="cls-3" d="M211.18,246.87c-0.41-6.07,1.75-8.72,4.42-8.9,2.94-.2,4.59,2.07,4.95,7.41,0.48,7.12-2.22,8.85-4.34,9C213.41,254.57,211.56,252.57,211.18,246.87Zm7.79-.31c-0.22-3.25-1.32-7.3-3.8-7.13-2.33.16-2.67,3.23-2.47,6.15,0.28,4.18,1.58,7.5,3.84,7.35S219.17,249.46,219,246.56Z" transform="translate(-9.46 -137.2)"/><path class="cls-3" d="M222.41,245.93c0-6.09,2.3-8.59,5-8.6,2.95,0,4.44,2.36,4.46,7.71,0,7.13-2.78,8.69-4.91,8.7C224.15,253.75,222.43,251.64,222.41,245.93Zm7.8,0.19c0-3.26-.85-7.37-3.34-7.36-2.33,0-2.87,3.05-2.86,6,0,4.19,1.1,7.58,3.36,7.58S230.22,249,230.21,246.12Z" transform="translate(-9.46 -137.2)"/><path class="cls-3" d="M238.08,238c4.75,0.91,5.11,4.79,4.7,8.09-0.59,4.67-2.44,8.59-7.48,8a11.55,11.55,0,0,1-2.46-.62l2.51-15.5a9.78,9.78,0,0,1,2.3,0Zm-2.9,14.21a3.42,3.42,0,0,0,.91.26c3.72,0.47,4.47-3.1,4.77-5.46,0.75-5.95-1.34-7.62-3.11-7.85a4.78,4.78,0,0,0-1.27,0Z" transform="translate(-9.46 -137.2)"/><path class="cls-3" d="M96.44,287.55a2.4,2.4,0,0,0,.94,1.52,1.45,1.45,0,0,0,2.17-.54,2.5,2.5,0,0,0,0-2.58c-0.63-1.45-1-2.46,0-3.91a2.63,2.63,0,0,1,3.74-.9,2.83,2.83,0,0,1,1.23,1.72l-0.75.19a2,2,0,0,0-.83-1,1.54,1.54,0,0,0-2,.65,2.3,2.3,0,0,0-.09,2.36c0.47,1.37.72,2.66-.17,4a2.93,2.93,0,0,1-4.06,1,3.39,3.39,0,0,1-1.31-1.43Z" transform="translate(-9.46 -137.2)"/><path class="cls-3" d="M107.42,288.06a1.54,1.54,0,0,0-.69-0.86c-1.18-.8-2.56.23-3.59,1.75-1.36,2-1.38,3.74-.28,4.49a2.08,2.08,0,0,0,1,.36l-0.22.63a3.08,3.08,0,0,1-1.55-.53c-1.53-1-1.63-3.13.06-5.62s3.71-3.26,5.45-2.07a2.81,2.81,0,0,1,1,1Z" transform="translate(-9.46 -137.2)"/><path class="cls-3" d="M104.34,295.48l3.91-5.6a15.23,15.23,0,0,0,1.19-2.08l0.78,0.28-0.66,1.57h0.05c0.16-.14,1.59-1.44,2.79-0.63l-0.7,1.52a3.42,3.42,0,0,0-.38-0.23c-0.76-.45-2.15-0.11-3.17,1.61l-2.54,4.1Z" transform="translate(-9.46 -137.2)"/><path class="cls-3" d="M117.76,294l-4.61,5-1.63,1.83-0.85-.64,1.1-1.29-0.07,0a2,2,0,0,1-2.41-.13c-1-1-.83-2.12.9-4.09l3.58-4.06,1.05,0.7-3.72,4.11c-1.26,1.4-1.57,2.08-.91,2.74s1.8,0,2.37-.4a6.1,6.1,0,0,0,.64-0.54l3.79-3.56Z" transform="translate(-9.46 -137.2)"/><path class="cls-3" d="M113.85,302.53l4.66-5c0.73-.78,1-1.08,1.59-1.74l0.58,0.66-0.81,1,0.06,0.06a2.13,2.13,0,0,1,2.46.42,1.87,1.87,0,0,1,.22,2.34l0,0a2.41,2.41,0,0,1,2.59.34c0.65,0.65,1.1,1.85-.48,3.43-0.12.12-.25,0.25-0.4,0.38l-4.64,4-0.7-.81,4.3-3.82c1-.88,1.62-2,0.85-2.72s-1.75-.27-2.72.71L117.29,306l-0.55-.63,3.92-4.45c0.76-.85,1.4-1.76.67-2.49s-2-.18-2.75.68l-3.72,4.3Z" transform="translate(-9.46 -137.2)"/><path class="cls-3" d="M119.13,312.4l5.72-6.06c0.8-.84,1.22-1.38,1.56-1.79l0.72,0.41-0.67,1.18v0.08a1.79,1.79,0,0,1,2.13.2l0,0c1,1,.7,2.72-1.23,4.65-0.71.71-2.64,2.55-4.29,0.9a1.78,1.78,0,0,1-.38-1.8l-0.07,0-2.44,3.06Zm5-3.74a5.15,5.15,0,0,0-.5.59,1.33,1.33,0,0,0,0,1.94c1,1,2.91-.64,3.57-1.31,1-1,1.49-2.09.77-2.81a1.7,1.7,0,0,0-2,0,12.72,12.72,0,0,0-1.1.81Z" transform="translate(-9.46 -137.2)"/><path class="cls-3" d="M131.44,309.75l1,0.3-1.53,1.38,1,0.76-0.64.85-0.9-1.25L126.83,315a1,1,0,0,0-.35,1.42,2.11,2.11,0,0,0,.48.42l-0.92.51a1.9,1.9,0,0,1-.62-0.55c-0.95-1.23.07-2.23,0.79-2.81l3.63-2.85-0.59-.64,0.4-.48,0.72,0.68Z" transform="translate(-9.46 -137.2)"/><path class="cls-3" d="M134.3,312.18a0.69,0.69,0,0,1,1,.07,0.79,0.79,0,0,1-.2,1.1,0.68,0.68,0,0,1-1-.06A0.76,0.76,0,0,1,134.3,312.18Zm-6.59,7.08-0.86-.92,6-4.73,0.41,0.81Z" transform="translate(-9.46 -137.2)"/><path class="cls-3" d="M131.41,317.92c2.11-1.63,3.85-1.28,4.71-.16s0.53,3-1.53,4.54-3.77,1.4-4.72.17-0.71-2.76,1.43-4.47Zm2.07,3.77c1-.76,2.69-2.5,1.82-3.63-0.76-.94-2.13,0-3,0.65-1.78,1.37-2.2,2.78-1.63,3.47S132.47,322.47,133.48,321.69Z" transform="translate(-9.46 -137.2)"/><path class="cls-3" d="M140,325.79l-4.93,2.74-1.76,1-0.54-.82L134,328l-0.06,0a1.78,1.78,0,0,1-1.93-.9c-0.56-1.12-.18-2.06,1.69-3.17l3.87-2.27,0.69,0.94-4,2.26c-1.35.77-1.76,1.24-1.38,2s1.47,0.57,2,.43a4.49,4.49,0,0,0,.65-0.25l3.92-1.77Z" transform="translate(-9.46 -137.2)"/><path class="cls-3" d="M135,330.46a2,2,0,0,0,0,1.39,1.07,1.07,0,0,0,1.52.68,1.76,1.76,0,0,0,1-1.58c0.18-1.19.36-2,1.52-2.43a2,2,0,0,1,2.6,1.19,2.38,2.38,0,0,1,.08,1.65l-0.53-.24a1.69,1.69,0,0,0-.1-1,1.12,1.12,0,0,0-1.46-.53,1.61,1.61,0,0,0-1,1.43,2.9,2.9,0,0,1-1.64,2.39,2.19,2.19,0,0,1-2.83-1.29,2.93,2.93,0,0,1-.24-1.5Z" transform="translate(-9.46 -137.2)"/><path class="cls-3" d="M489.63,382.86l1.37,0.56L489.14,388l3.48,0.87,1.08-4.68,1.28,0.23-3,10.83-1-.19,1.28-5-3.32-1.17-1.84,5.06-0.75-.39Z" transform="translate(-9.46 -137.2)"/><path class="cls-3" d="M499.17,390.6l0.14,0.71-2.78.06-0.94,4L499,396l0,0.7-4.53-.08,1.5-11,3.92,0.21L500,387l-3.17-.58-0.2,3.77Z" transform="translate(-9.46 -137.2)"/><path class="cls-3" d="M505,394.17l-2.49-.43-1.64,3.32-0.87,0,4.13-10.81,1,0.42,1.4,11.19-1.56-.06Zm-2.26-1,2.18,0.08-0.27-3.1c-0.06-.8-0.12-1.66-0.15-2.47l-0.12.05Z" transform="translate(-9.46 -137.2)"/><path class="cls-3" d="M511,398.89l-1.3.12-1.85-11.56,1.42,0.4,0.92,9.6h0l3.45-9.19,0.81-.13Z" transform="translate(-9.46 -137.2)"/><path class="cls-3" d="M518.82,392.91l0.22,0.61-2.5.42-0.3,3.64,3.15,0.07,0.12,0.61-4.11.53-0.14-9.9,3.57-.34,0.27,1.1-2.94-.09,0.33,3.34h2.34Z" transform="translate(-9.46 -137.2)"/><path class="cls-3" d="M523.09,398.24l-0.81.32-0.86-9.91,1.55-.1,3.37,8.24h0L526,388.09l1.09,0.17L527,398l-0.74.18-3.72-8.23h0c0,1.39,0,2.57.22,4.59Z" transform="translate(-9.46 -137.2)"/><path class="cls-3" d="M529.82,397.87l-1.19-9.61,1.09-.32,0.79,9.16,2.91-.64,0.39,0.85Z" transform="translate(-9.46 -137.2)"/><path class="cls-3" d="M535.55,397.24l-0.85,0-0.24-4.1-2.56-5.65,0.77,0.14,2.58,4.37h0l0.91-4.43,1.48-.34L535.53,393Z" transform="translate(-9.46 -137.2)"/><path class="cls-3" d="M159.64,247.93c3.43,6.06-.13,10-3.83,12.54-5.23,3.6-10.86,5.13-14.84-1a17.83,17.83,0,0,1-1.63-3.27l17.87-11.36a14.86,14.86,0,0,1,2.08,2.56Zm-16.93,9.75a5.32,5.32,0,0,0,.58,1.24c2.94,4.52,7.21,2.1,9.86.28,6.66-4.59,6.43-8.42,5-10.57a7.12,7.12,0,0,0-1.17-1.39Z" transform="translate(-9.46 -137.2)"/><path class="cls-3" d="M163,267.89l-0.79,1-3.33-3.62-6.45,3.25,3.17,5.16-0.9.82-5.18-6.11L166.07,258l4.3,5.44L168.78,265l-2.92-4.86-5.29,4Z" transform="translate(-9.46 -137.2)"/><path class="cls-3" d="M157.67,277.88l15.56-11.08,1.6,1.51-15.16,10,3.91,4.25-1.1,1.45Z" transform="translate(-9.46 -137.2)"/><path class="cls-3" d="M174.77,285.53l-0.7.9-3-3.34-5.71,3,2.84,4.76-0.8.75-4.64-5.64,14.65-9.48,3.85,5-1.4,1.43-2.62-4.48L172.59,282Z" transform="translate(-9.46 -137.2)"/><path class="cls-3" d="M184.66,295.34a4.13,4.13,0,0,0-.42-2.07c-1.1-2.44-4.57-3.12-8.61-1.3s-6,4.56-4.67,7.53a5.18,5.18,0,0,0,.85,1.26l-0.56.7a6.79,6.79,0,0,1-1.72-2.31l-0.1-.21c-1-2.75-.4-6.09,4.87-8.46,0.28-.13.59-0.26,0.9-0.38,5-1.94,9.17-1.61,10.9,2.25a5.5,5.5,0,0,1,.62,2.89Z" transform="translate(-9.46 -137.2)"/><path class="cls-3" d="M172.7,305.66l16.39-4.82L188,298l1.93-1,2,9.73-1-.1-1-3.2L172.71,307Z" transform="translate(-9.46 -137.2)"/><path class="cls-3" d="M181.25,318.19l-0.63-4.35-6-.86-0.5-1.42,19.05,0.79L193,314.19l-16.73,8.53-0.73-2.6Zm0.41-4.29,1,3.64,4.7-2.17c1.22-.55,2.52-1.12,3.78-1.62l-0.14-.17Z" transform="translate(-9.46 -137.2)"/><path class="cls-3" d="M193.23,321.84a8.71,8.71,0,0,1,.72,2.37,6.92,6.92,0,0,1-.64,4.36,4.42,4.42,0,0,1-3.37,2,3.63,3.63,0,0,1-3.88-2.3l-0.07.06a5.23,5.23,0,0,1-4.7,4.17c-2.3.32-4.4-.79-4.91-4.65a9.13,9.13,0,0,1,.17-3.25Zm-8.16,3.45-7.1.62a5.68,5.68,0,0,0-.07,1.57,3.71,3.71,0,0,0,7.33-1.15Zm1.37,1a3.52,3.52,0,0,0,0,.52,2.7,2.7,0,0,0,3,2.39c1.69-.23,2.61-1.22,2.53-3.5a4.55,4.55,0,0,0-.06-0.8,2.14,2.14,0,0,0-.09-0.43l-5.4.65Z" transform="translate(-9.46 -137.2)"/><path class="cls-3" d="M177.45,335.77l16.8-3.09,0.68,1.88-16,2.33,1.43,5.06-1.45.78Z" transform="translate(-9.46 -137.2)"/><path class="cls-3" d="M189.43,349.66l-1,.45-1-4.36-6.43-.17,0.19,5.54-1.06.27-1.34-7.18L196.16,343l0.95,6.26-1.92.58-0.13-5.19-5.84.91Z" transform="translate(-9.46 -137.2)"/><path class="cls-3" d="M312,197.56l-0.7-7.08c-0.1-1.1-.14-1.53-0.26-2.43h1.05l0.21,1.31h0.1a2.53,2.53,0,0,1,2.34-1.63,2.18,2.18,0,0,1,2.25,1.43h0a2.88,2.88,0,0,1,2.37-1.79c1.09-.06,2.51.41,2.64,2.73a5.36,5.36,0,0,1,0,.57l-0.17,6.38h-1.28l0.07-6c0-1.38-.43-2.6-1.72-2.53-1.07.06-1.64,1.18-1.56,2.61l0.38,6.09h-1L316,191.13c-0.15-1.18-.43-2.3-1.66-2.24s-1.74,1.42-1.6,2.61l0.81,5.85Z" transform="translate(-9.46 -137.2)"/><path class="cls-3" d="M323.61,192.74c-0.16-2.87,1.21-4.2,2.73-4.28s3,1.33,3.11,4.13-1.05,4.21-2.73,4.3-2.89-1-3.1-4v-0.15Zm4.62,0.46c-0.07-1.35-.59-3.91-2.13-3.83-1.3.11-1.32,1.89-1.25,3.07,0.13,2.41,1.13,3.65,2.09,3.56C328,195.9,328.3,194.56,328.22,193.2Z" transform="translate(-9.46 -137.2)"/><path class="cls-3" d="M335.49,188l0.62,6,0.26,2.17-1,.19-0.22-1.5L335,195a1.92,1.92,0,0,1-1.71,1.53c-1.35.07-2.12-.7-2.42-3l-0.6-4.79,1.22-.29,0.54,4.92c0.19,1.67.48,2.28,1.41,2.23s1.19-1.22,1.29-1.82a4.88,4.88,0,0,0,0-.75l-0.09-4.64Z" transform="translate(-9.46 -137.2)"/><path class="cls-3" d="M337.7,186.56l0.89-.73,0.29,2.2,1.27-.39,0.36,1.08-1.66,0,0.67,5.06a1.11,1.11,0,0,0,1,1.18,2.28,2.28,0,0,0,.67-0.17L341.13,196a2.05,2.05,0,0,1-.87.22c-1.67.09-1.94-1.42-2-2.41l-0.33-5-0.92.14-0.19-.65,1-.23Z" transform="translate(-9.46 -137.2)"/><path class="cls-3" d="M347.32,195.17l-1.16.33,0.2-5.14c0-1-.27-2.14-1.43-2.1-0.9,0-1.4,1.07-1.45,2l0,5.18-0.88,0-0.42-11.24,1.19-.2-0.06,4.4h0.08a2.51,2.51,0,0,1,.72-0.81,2.06,2.06,0,0,1,1.15-.36c1,0,2.16.65,2.14,2.83Z" transform="translate(-9.46 -137.2)"/><path class="cls-3" d="M349.11,187l1.45,0.25,0.53,3.86c0.12,0.88.29,1.77,0.45,2.61h0.07c0.14-.85.39-1.81,0.6-2.6l1.12-4.14,1.09,0.08,0.7,3.88,0.48,2.56h0.05c0.14-.72.37-1.55,0.6-2.51l1-4.19,0.85,0.1-1.66,8.27-1.12,0L354.12,191c-0.25-.82-0.41-1.49-0.57-2.15l-0.12-.06c-0.16.75-.3,1.45-0.46,2.27l-0.81,4.08-1.16.25Z" transform="translate(-9.46 -137.2)"/><path class="cls-3" d="M359.3,187.45a3.38,3.38,0,0,1,2-.85c1.57-.06,2.42.79,2.49,2.7l0.13,3.53a12.6,12.6,0,0,0,.2,1.85l-0.67.28-0.36-1.15H363a2.06,2.06,0,0,1-1.78,1.22,2.13,2.13,0,0,1-2.12-2.31c-0.07-1.88,1.48-2.88,3.52-3.19-0.16-1.45-.31-2.1-1.63-2.06a2.82,2.82,0,0,0-1.41.42Zm3.54,3.34c-0.17,0-.39,0-0.63,0-1.3,0-2.09.59-2,2a1.14,1.14,0,0,0,1.15,1.28,1.5,1.5,0,0,0,1.36-1.27,4.38,4.38,0,0,0,.05-0.48Z" transform="translate(-9.46 -137.2)"/><path class="cls-3" d="M366.3,185.75l0.88-.74,0.31,2.2,1.26-.41,0.38,1.08-1.66.06L368.2,193a1.11,1.11,0,0,0,1.06,1.17,2.28,2.28,0,0,0,.67-0.18l-0.1,1.12a2.05,2.05,0,0,1-.87.23c-1.67.11-2-1.4-2-2.39l-0.38-5-0.92.15-0.2-.65,1-.24Z" transform="translate(-9.46 -137.2)"/><path class="cls-3" d="M375.73,194.36a3.94,3.94,0,0,1-1.59.42c-2.61.22-3.53-2-3.69-3.9-0.2-2.41.61-4.45,2.41-4.6h0.22c1.82,0,2.44,1.51,2.58,3.26,0,0.35,0,.57,0,1h-4.28c0.15,2.62,1.38,3,2.41,3.06h0.25a2.6,2.6,0,0,0,1.21-.39Zm-1.31-4.85c-0.13-1.53-.72-2.45-1.59-2.38s-1.33,1.37-1.3,2.54Z" transform="translate(-9.46 -137.2)"/><path class="cls-3" d="M377.55,194.36l-0.43-6.07a12.26,12.26,0,0,0-.36-2.11l0.78-.25,0.46,1.45,0,0c0-.19.35-1.9,1.78-2l0.39,1.44a3.84,3.84,0,0,0-.44.05c-0.87.12-1.74,1.15-1.47,2.91l0.56,4.26Z" transform="translate(-9.46 -137.2)"/><path class="cls-3" d="M380.74,183.5a0.74,0.74,0,0,1,.66-0.89,0.85,0.85,0,0,1,.88.82,0.73,0.73,0,0,1-.61.83A0.82,0.82,0,0,1,380.74,183.5Zm2.58,10.1-1.34.25-0.79-8.2,1,0.1Z" transform="translate(-9.46 -137.2)"/><path class="cls-3" d="M385.06,193.52c-0.08-3-.13-6.39-0.4-8.1l0.75,0.09,0.13,0.89h0a2.17,2.17,0,0,1,1.87-1.35,2.13,2.13,0,0,1,2.31,2.27,3.7,3.7,0,0,1,0,.42v5.45l-1,0-0.13-5.1c0-1.08-.41-2.1-1.49-2-0.93.08-1.41,1.14-1.32,2.3l0.57,5.16h-1.34Z" transform="translate(-9.46 -137.2)"/><path class="cls-3" d="M396.4,184.43c0,0.27,0,.58,0,1s0.09,0.87.2,1.51l0.77,4.53a8.45,8.45,0,0,1,.11.89c0.2,2.39-.8,3.58-2.89,3.76a4.79,4.79,0,0,1-2.16-.41l0.42-.66a3.3,3.3,0,0,0,1.62.25c1.1-.09,1.8-0.85,1.63-2.82l-0.08-.91h0a1.85,1.85,0,0,1-1.66,1.24c-1.5.13-2.7-1.38-2.9-3.81-0.25-3,1.09-4.37,2.37-4.48a1.85,1.85,0,0,1,1.8,1h0l-0.31-1.11Zm-0.81,2.7c-0.14-.84-0.79-1.94-1.82-1.85s-1.37,1.1-1.24,2.63c0.16,1.84.95,3.76,2.31,3.64,0.91-.08,1.22-1.05,1-2.18Z" transform="translate(-9.46 -137.2)"/><path class="cls-3" d="M242.39,411.95l-1.4,0-0.55-6.21L236,397.3l1.28,0.17,4.4,6.48h0l1.32-6.78,2.42-.61-3.28,8.9Z" transform="translate(-9.46 -137.2)"/><path class="cls-3" d="M252.85,398.37L252.7,406c-0.06,2.79-1.4,4.18-3.37,4.18s-3.19-1.08-3.26-4l-0.19-7.23,1-.22,0.69,7.45c0.21,2.2,1,3,2.16,3s1.92-.71,1.92-2.49a4.48,4.48,0,0,0,0-.49l-0.5-7.31Z" transform="translate(-9.46 -137.2)"/><path class="cls-3" d="M263.24,411l-0.63-9.41h-0.07l-2.91,9.68-0.84-.29L256,401.71H256l-0.28,9.71-1.49-.39,1-11.13,1.45-.29,2.55,9.49h0.15l2.26-8.93,2.09-.42,0.37,11.41Z" transform="translate(-9.46 -137.2)"/><path class="cls-3" d="M296.44,303.61l-3.32-8.14c-0.5-1.26-.71-1.76-1.17-2.78l1.93-.59,0.77,1.46,0.18-.06c0.33-1.22,1.62-2.51,3.83-3.26,1.73-.59,3.42-0.55,4.54.48l0.07,0a6.42,6.42,0,0,1,3.84-3.47c2-.68,4.74-0.9,5.64,1.82a4.57,4.57,0,0,1,.19.68l1.52,7.77-2.35.7L310.54,291c-0.35-1.68-1.54-2.89-3.89-2.09a3,3,0,0,0-2.11,4L307,300l-1.82.55-3.2-6.92c-0.61-1.33-1.46-2.53-3.7-1.77a3.11,3.11,0,0,0-2.18,4l3.18,6.59Z" transform="translate(-9.46 -137.2)"/><path class="cls-3" d="M321.17,296.07l-1.77-7.43c-0.26-1.15-.37-1.61-0.64-2.55l1.72-.24,0.47,1.35,0.16,0c0.44-1,1.7-1.94,3.67-2.29a3.8,3.8,0,0,1,3.8,1h0.07a5.49,5.49,0,0,1,3.71-2.47c1.77-.32,4.14-0.14,4.56,2.32a4,4,0,0,1,.07.61l0.29,6.88-2.08.29-0.42-6.43c-0.08-1.49-.93-2.69-3-2.31a2.63,2.63,0,0,0-2.31,3.16l1.16,6.44-1.62.23-1.83-6.37c-0.34-1.23-.91-2.37-2.92-2a2.69,2.69,0,0,0-2.37,3.17l1.85,6.09Z" transform="translate(-9.46 -137.2)"/><path class="cls-3" d="M343.52,291.61l-1-6.86c-0.14-1.06-.21-1.48-0.37-2.35l1.67-.08,0.32,1.26h0.16c0.52-.87,1.81-1.61,3.73-1.78a3.73,3.73,0,0,1,3.54,1.22h0.06a5.45,5.45,0,0,1,3.79-1.94c1.73-.15,4,0.2,4.15,2.46a3.44,3.44,0,0,1,0,.56l-0.38,6.25-2,.09,0.21-5.85c0.06-1.35-.64-2.51-2.69-2.33a2.47,2.47,0,0,0-2.51,2.67l0.5,5.92-1.57.07L350,285c-0.21-1.14-.65-2.22-2.6-2.05a2.52,2.52,0,0,0-2.57,2.68l1.19,5.65Z" transform="translate(-9.46 -137.2)"/><path class="cls-3" d="M366.27,289.58l-1-6.85c-0.15-1.06-.22-1.48-0.39-2.35l1.67-.1,0.33,1.26,0.16,0c0.51-.87,1.8-1.63,3.72-1.81a3.73,3.73,0,0,1,3.55,1.19h0.06a5.46,5.46,0,0,1,3.77-2c1.73-.16,4,0.17,4.16,2.42a3.33,3.33,0,0,1,0,.56L382,288.15l-2,.11,0.16-5.85c0.05-1.35-.66-2.5-2.7-2.31a2.47,2.47,0,0,0-2.49,2.7l0.55,5.92-1.57.09-1.19-5.89c-0.22-1.14-.67-2.21-2.62-2a2.52,2.52,0,0,0-2.55,2.7l1.24,5.64Z" transform="translate(-9.46 -137.2)"/><path class="cls-3" d="M388.38,288.22l0-7.36c0-1.14,0-1.59,0-2.53l1.72,0.17,0.14,1.37h0.17c0.66-.83,2.1-1.42,4.09-1.29a3.85,3.85,0,0,1,3.44,1.83H398a5.56,5.56,0,0,1,4.17-1.45c1.79,0.11,4,.83,3.88,3.22a3.63,3.63,0,0,1-.07.59l-1.32,6.5-2.09-.21,1.1-6.11c0.27-1.41-.28-2.73-2.4-2.86a2.57,2.57,0,0,0-3,2.42l-0.37,6.29-1.62-.16L396,282.28c0-1.23-.33-2.43-2.36-2.56a2.63,2.63,0,0,0-3,2.42l0.37,6.12Z" transform="translate(-9.46 -137.2)"/><path class="cls-3" d="M411.79,290l-0.09-7.1c0-1.1,0-1.53-.06-2.44l1.67,0.14,0.15,1.32h0.16c0.63-.81,2-1.39,4-1.3a3.74,3.74,0,0,1,3.36,1.72H421a5.4,5.4,0,0,1,4-1.45c1.74,0.09,3.93.75,3.81,3.06a3.49,3.49,0,0,1-.06.57l-1.19,6.29-2-.18,1-5.91c0.24-1.37-.31-2.63-2.37-2.73a2.49,2.49,0,0,0-2.85,2.38L421,290.49l-1.58-.14-0.37-6.15c-0.06-1.18-.36-2.34-2.32-2.43a2.54,2.54,0,0,0-2.91,2.37l0.45,5.9h-2.52Z" transform="translate(-9.46 -137.2)"/><path class="cls-3" d="M320,384.51l-8.44-59.84-7.48,2.82L302,320.29l24.84-3.45-0.48,3.68-8.25,2.3,5.14,62.1Z" transform="translate(-9.46 -137.2)"/><path class="cls-3" d="M349.14,358l-12.41.18-4.84,17.87-4.18.95,9.87-57.09,5.11,1.14,17.11,53.77L352.25,376Zm-11.84-2.92,10.58-1.63-4.17-15c-1.05-3.9-2.12-8-3-12l-0.53.37Z" transform="translate(-9.46 -137.2)"/><path class="cls-3" d="M364.8,373.65a10.69,10.69,0,0,0,7,2.51c5.18-.4,7.78-6.12,7.29-12.38-0.5-6.46-3.71-10.24-7.7-14.46-5-5.41-9.8-8.39-10.58-18.37s3.58-17.41,10.79-18c3-.24,5.66.54,7,1.62l-0.74,6.95a8.59,8.59,0,0,0-6-1.89c-4.91.38-7.05,5.08-6.69,9.77,0.54,6.95,3.64,10.25,8.35,13.23,5.57,3.7,10.24,8,11,17.94,0.86,11.05-4.78,19.37-12.32,20a12.84,12.84,0,0,1-8.77-3Z" transform="translate(-9.46 -137.2)"/><path class="cls-3" d="M393.5,379.73L395,321.58l-7.59,1.48-0.85-7.16,24.27,0.68-1,3.42-8.25.86-5,59.77Z" transform="translate(-9.46 -137.2)"/><path class="cls-3" d="M423.63,381.34l-4-1.07,2.5-26.38L415,315.58l3.54,1.6,8.34,30.17H427l8.22-27.45,7.33-.84L427.33,354Z" transform="translate(-9.46 -137.2)"/></svg>