<svg id="Layer_1" data-name="Layer 1" xmlns="http://www.w3.org/2000/svg" viewBox="0 0 693.08 387.64"><defs><style>.cls-1{fill:none;stroke-miterlimit:10;stroke-width:3px;}.cls-1,.cls-3{stroke:#fff;}.cls-2,.cls-3{fill:#fff;}</style></defs><title>pigonly</title><path class="cls-1" d="M138.06,51.94a0.65,0.65,0,0,0,.1-0.63c-1.14-3-10.22-25.44-36.35-40.32a0.66,0.66,0,0,0-1,.52c-0.24,3.25-2.53,12.56-6.56,19.55-9.4,16.32-12.44,28.49-7.79,50.31,0.1,0.46.42-.32,0.81-0.59,3.22-2.26,17.41-10.31,35.89-10.32" transform="translate(-3.5 -9.39)"/><path class="cls-1" d="M188.73,75.13c36.43-30.78,94.47-15.58,94.47-15.58,65.06,8.18,203.75-8.18,203.75-8.18,101.72-8.36,147.91,42.9,157,54.34,1,1.31,12.74.51,20.93-1.55" transform="translate(-3.5 -9.39)"/><path class="cls-1" d="M335.46,299.39s95.39,29.35,202.91-2.59c0,0,30,19.48,0,77.53,0,0-4.19,13.15-12.47,17.82,0,0,0,5.31,32.83,2.63a3.84,3.84,0,0,0,3.17-2.2l6.86-14.74s12.08-15.58,33.89-30.39c0,0,121.55-89.21,56.1-223.62,0,0-3.46-6.89,12.2-13.89,0.26-.11.49-0.28,0.75-0.38,2.46-.93,16-6.17,19.17-10.08,8.94-11.15,1.49-22.3-2.34-25.35-8.23-6.55-25.39-5.64-30.88,4.37C652,88.76,659,97.86,664.84,104.15a43,43,0,0,0,16.62-9.57,12.79,12.79,0,0,0,2.53-6,10.78,10.78,0,0,0-2.79-7.71c-2.63-2.68-9.68-3.08-12.56-.19-1.71,1.72-2.09,6.09-1.95,8.51,0.44,7.74,4.58,11.88,4.58,11.88" transform="translate(-3.5 -9.39)"/><path class="cls-1" d="M167.88,129.67h0c27.82-23,24-45.61,19.95-61.16-8.88-33.84-1.06-46.59-.08-47.82a0.06,0.06,0,0,0-.05-0.09c-17.75.45-25.88,12.57-33.84,19.28-5.45,4.6-10.74,8.66-16,12.31-0.06,0-10.88,7.8-15,18.27" transform="translate(-3.5 -9.39)"/><path class="cls-1" d="M91.53,226.28c-24.93,21.43-33.11,23.37-33.11,23.37C1.54,248.1,5,179.15,5,179.15c3.14-5.59,16.63,1,19.38,2.47a0.71,0.71,0,0,0,.87-0.17l1.95-2.23a2.08,2.08,0,0,1,1-.63c21.33-6,27.45-23.21,27.45-23.21-2.34-84.15,67.2-84.92,67.2-84.92-12.27,25.71,1.36,55.71,1.36,55.71h0" transform="translate(-3.5 -9.39)"/><path class="cls-1" d="M246.22,354.39c3.78-8.86,4.65-40.06,4.65-40.06-0.36-6.16-3.58-13-6.93-18.53-0.47-.77-0.93-1.52-1.4-2.23l-0.62-1a88.88,88.88,0,0,0-5.85-7.89c-28.34-14-29.56-14.62-38.57-20.86-28.49-19.76-44-9.59-57.66-4.85-45.6,15.84-60.64,4.59-63.92,1.18a1.35,1.35,0,0,1-.13-1.72c3.24-4.65,17.6-27,15.75-32.18" transform="translate(-3.5 -9.39)"/><path class="cls-1" d="M250.19,385.1s-7.61,4,39,1.72a0.58,0.58,0,0,0,.55-0.63c-0.22-2.22-.91-10.13,0-15.46a2.65,2.65,0,0,1,.18-0.61c1.2-2.78,10.79-24.16,26.4-38.7h0c0.92-1.15,19.48-22.69,23.34-43.93,0-.1,5.21-29.51-18.31-56.12h0" transform="translate(-3.5 -9.39)"/><path class="cls-1" d="M84.74,166.94c-0.26.52-.07,0.12-0.07,0.12s9.86-18.47,28.72-9.14l0.35,0.18h0" transform="translate(-3.5 -9.39)"/><path class="cls-1" d="M250.74,313s14.1,21.21,12.89,45.37a55.43,55.43,0,0,1-.69,6.4s4.26,8.28,26.48,9" transform="translate(-3.5 -9.39)"/><path class="cls-1" d="M263.63,358.38c-11.58-.17-16.66-4.7-16.66-4.7s-0.82,5.62-7.72,13.61a0.42,0.42,0,0,0,0,.54c0.73,0.89,4.09,3.29,18.54,2.21" transform="translate(-3.5 -9.39)"/><path class="cls-1" d="M250.19,385.1" transform="translate(-3.5 -9.39)"/><path class="cls-1" d="M262.94,364.78" transform="translate(-3.5 -9.39)"/><path class="cls-1" d="M523.48,254.48a160.29,160.29,0,0,0,14.89,42.32" transform="translate(-3.5 -9.39)"/><path class="cls-1" d="M599,350.07c-3.8,18.9-8.18,21.43-8.18,21.43,1.65,5.79-.5,8.95-1.9,10.3a3.52,3.52,0,0,1-2,.94c-15.83,2-19.51-2.13-19.51-2.13-19.89,1.8-29.1-6.28-29.1-6.28s-7.79,10.37-17.92,11.15c0,0-1.36,1.22,7.84,3.75" transform="translate(-3.5 -9.39)"/><path class="cls-1" d="M574.78,371s2.06,3.71,16.08.5" transform="translate(-3.5 -9.39)"/><path class="cls-1" d="M244.48,363.61" transform="translate(-3.5 -9.39)"/><path class="cls-1" d="M250.19,385.1s2.36-1.24,5.94-5.56l0.45-.56,0.57-.73c2.48-3.31,5.45-7.94,5.79-13.48,0,0-8.3,10.92-16,11.21" transform="translate(-3.5 -9.39)"/><path class="cls-1" d="M247,376c-0.16-.23.86,3.93,8.26,4.61" transform="translate(-3.5 -9.39)"/><path class="cls-1" d="M247,353.68s-6.38,6.24-10.66,7.76a0.21,0.21,0,0,0-.1.34c0.4,0.47,1.66,1.49,5.42,2.12" transform="translate(-3.5 -9.39)"/><path class="cls-1" d="M73.68,208.54c-0.22-1.69-.17-0.86-0.17-0.86S76.82,232.42,116,229.4h0" transform="translate(-3.5 -9.39)"/><path class="cls-1" d="M244.64,297c-7.88-12.71-6.87-23.48-6.87-31.56h0" transform="translate(-3.5 -9.39)"/><path class="cls-1" d="M670.55,110.2c-1.11.47,12.37,8.58,21.92,3.31,2.12-1.17-15.56-2.14-15.52-6.05" transform="translate(-3.5 -9.39)"/><path class="cls-2" d="M125.52,160.69a12.34,12.34,0,0,1,5.3.5" transform="translate(-3.5 -9.39)"/><path class="cls-2" d="M125.52,161.31a10.64,10.64,0,0,1,5.13.48c0.75,0.3,1.07-.91.33-1.21a11.41,11.41,0,0,0-5.46-.52c-0.79.1-.8,1.35,0,1.25h0Z" transform="translate(-3.5 -9.39)"/><path class="cls-2" d="M139.39,164.15a38.11,38.11,0,0,1,6.4,3.27" transform="translate(-3.5 -9.39)"/><path class="cls-2" d="M139.23,164.75a27.27,27.27,0,0,1,6.25,3.2c0.64,0.49,1.26-.6.63-1.08a28.53,28.53,0,0,0-6.55-3.33c-0.74-.3-1.07.9-0.33,1.21h0Z" transform="translate(-3.5 -9.39)"/><path class="cls-2" d="M152.74,171.65a79.12,79.12,0,0,1,6,5.44" transform="translate(-3.5 -9.39)"/><path class="cls-2" d="M152.3,172.09a68.86,68.86,0,0,1,6,5.44,0.63,0.63,0,0,0,.88-0.88,68.85,68.85,0,0,0-6-5.44c-0.62-.51-1.51.37-0.88,0.88h0Z" transform="translate(-3.5 -9.39)"/><path class="cls-2" d="M164.31,182.58a47.18,47.18,0,0,1,4.6,5.9" transform="translate(-3.5 -9.39)"/><path class="cls-2" d="M163.87,183a34.58,34.58,0,0,1,4.5,5.77,0.63,0.63,0,0,0,1.08-.63,36.15,36.15,0,0,0-4.7-6c-0.54-.6-1.42.29-0.88,0.88h0Z" transform="translate(-3.5 -9.39)"/><path class="cls-2" d="M173.31,196a39.11,39.11,0,0,1,3,5.9" transform="translate(-3.5 -9.39)"/><path class="cls-2" d="M172.77,196.29A31.92,31.92,0,0,1,175.7,202c0.27,0.75,1.48.43,1.21-.33a33.45,33.45,0,0,0-3.06-6,0.63,0.63,0,0,0-1.08.63h0Z" transform="translate(-3.5 -9.39)"/><path class="cls-2" d="M178.61,211.37a33,33,0,0,1,.5,6.2" transform="translate(-3.5 -9.39)"/><path class="cls-2" d="M178,211.54a29.83,29.83,0,0,1,.48,6,0.63,0.63,0,0,0,1.25,0,31.48,31.48,0,0,0-.52-6.36c-0.15-.79-1.35-0.46-1.21.33h0Z" transform="translate(-3.5 -9.39)"/><path class="cls-2" d="M179.71,225.87a27.93,27.93,0,0,1,0,6.1" transform="translate(-3.5 -9.39)"/><path class="cls-2" d="M179.08,225.87a24.21,24.21,0,0,1,0,5.93c-0.11.79,1.1,1.13,1.21,0.33a25.4,25.4,0,0,0,0-6.26c-0.09-.79-1.34-0.8-1.25,0h0Z" transform="translate(-3.5 -9.39)"/><path class="cls-2" d="M178.47,239.9a33,33,0,0,1-1.3,4.17" transform="translate(-3.5 -9.39)"/><path class="cls-2" d="M177.86,239.73a26.26,26.26,0,0,1-1.24,4c-0.31.73,0.77,1.37,1.08,0.63a28.13,28.13,0,0,0,1.37-4.32,0.63,0.63,0,0,0-1.21-.33h0Z" transform="translate(-3.5 -9.39)"/><path class="cls-2" d="M191.4,117.17a59.45,59.45,0,0,1,5.11,5.56c0.48,0.63,1.57,0,1.08-.63a61.81,61.81,0,0,0-5.31-5.81,0.63,0.63,0,0,0-.88.88h0Z" transform="translate(-3.5 -9.39)"/><path class="cls-2" d="M200.85,127.84l4.92,8.28a0.63,0.63,0,0,0,1.08-.63l-4.92-8.28a0.63,0.63,0,0,0-1.08.63h0Z" transform="translate(-3.5 -9.39)"/><path class="cls-2" d="M209.61,141.8l3.51,6.94c0.36,0.72,1.44.09,1.08-.63l-3.51-6.94c-0.36-.72-1.44-0.09-1.08.63h0Z" transform="translate(-3.5 -9.39)"/><path class="cls-2" d="M216.44,155.87l3.16,7.42c0.31,0.74,1.39.1,1.08-.63l-3.16-7.42c-0.31-.74-1.39-0.1-1.08.63h0Z" transform="translate(-3.5 -9.39)"/><path class="cls-2" d="M221.73,169.57l2.29,8a0.63,0.63,0,0,0,1.21-.33l-2.29-8a0.63,0.63,0,0,0-1.21.33h0Z" transform="translate(-3.5 -9.39)"/><path class="cls-2" d="M225.94,185.19l1.87,8a0.63,0.63,0,0,0,1.21-.33l-1.87-8a0.63,0.63,0,0,0-1.21.33h0Z" transform="translate(-3.5 -9.39)"/><path class="cls-2" d="M229.27,200.3l1.51,8.13c0.15,0.79,1.35.46,1.21-.33L230.48,200c-0.15-.79-1.35-0.46-1.21.33h0Z" transform="translate(-3.5 -9.39)"/><path class="cls-2" d="M231.59,215.08l0.88,7.84c0.09,0.79,1.34.8,1.25,0l-0.88-7.84c-0.09-.79-1.34-0.8-1.25,0h0Z" transform="translate(-3.5 -9.39)"/><path class="cls-2" d="M236.93,258.86v-5a0.63,0.63,0,0,0-1.25,0v5a0.63,0.63,0,0,0,1.25,0h0Z" transform="translate(-3.5 -9.39)"/><path class="cls-2" d="M236.93,243.23v-4.82a0.63,0.63,0,0,0-1.25,0v4.82a0.63,0.63,0,0,0,1.25,0h0Z" transform="translate(-3.5 -9.39)"/><path class="cls-2" d="M239.24,229.09l1.61-5a0.63,0.63,0,0,0-1.21-.33l-1.61,5a0.63,0.63,0,0,0,1.21.33h0Z" transform="translate(-3.5 -9.39)"/><path class="cls-2" d="M243.48,215.08l2.14-5.67c0.28-.75-0.92-1.08-1.21-0.33l-2.14,5.67c-0.28.75,0.92,1.08,1.21,0.33h0Z" transform="translate(-3.5 -9.39)"/><path class="cls-2" d="M249.11,203.25l4.84-5.67c0.52-.61-0.36-1.5-0.88-0.88l-4.84,5.67c-0.52.61,0.36,1.5,0.88,0.88h0Z" transform="translate(-3.5 -9.39)"/><path class="cls-2" d="M259.24,192.39l4.14-3.67c0.6-.53-0.28-1.42-0.88-0.88l-4.14,3.67c-0.6.53,0.28,1.42,0.88,0.88h0Z" transform="translate(-3.5 -9.39)"/><path class="cls-2" d="M269.64,184.6l7.4-5.49c0.64-.47,0-1.56-0.63-1.08l-7.4,5.49c-0.64.47,0,1.56,0.63,1.08h0Z" transform="translate(-3.5 -9.39)"/><path class="cls-2" d="M282.61,181.76l4.21,4.21a0.63,0.63,0,0,0,.88-0.88l-4.21-4.21a0.63,0.63,0,0,0-.88.88h0Z" transform="translate(-3.5 -9.39)"/><path class="cls-2" d="M290.26,190l4.24,6.29c0.45,0.66,1.53,0,1.08-.63l-4.24-6.29c-0.45-.66-1.53,0-1.08.63h0Z" transform="translate(-3.5 -9.39)"/><path class="cls-2" d="M299.17,203.81l4.09,6.43a0.63,0.63,0,0,0,1.08-.63l-4.09-6.43a0.63,0.63,0,0,0-1.08.63h0Z" transform="translate(-3.5 -9.39)"/><path class="cls-2" d="M307.79,217.1l2.63,4.82a0.63,0.63,0,0,0,1.08-.63l-2.63-4.82a0.63,0.63,0,0,0-1.08.63h0Z" transform="translate(-3.5 -9.39)"/><path class="cls-2" d="M283.18,66l2.48,6.14c0.3,0.74,1.51.41,1.21-.33l-2.48-6.14c-0.3-.74-1.51-0.41-1.21.33h0Z" transform="translate(-3.5 -9.39)"/><path class="cls-2" d="M287.42,80.68l2,5.38c0.28,0.74,1.49.42,1.21-.33l-2-5.38c-0.28-.74-1.49-0.42-1.21.33h0Z" transform="translate(-3.5 -9.39)"/><path class="cls-2" d="M290.46,92.46l0.88,7.74c0.09,0.79,1.34.8,1.25,0l-0.88-7.74c-0.09-.79-1.34-0.8-1.25,0h0Z" transform="translate(-3.5 -9.39)"/><path class="cls-2" d="M292.31,106.51l1.06,7.69c0.11,0.79,1.31.46,1.21-.33l-1.06-7.69c-0.11-.79-1.31-0.46-1.21.33h0Z" transform="translate(-3.5 -9.39)"/><path class="cls-2" d="M293.43,121l-0.67,6.53c-0.08.8,1.17,0.79,1.25,0l0.67-6.53c0.08-.8-1.17-0.79-1.25,0h0Z" transform="translate(-3.5 -9.39)"/><path class="cls-2" d="M292.12,134.2l-0.78,7.5c-0.08.8,1.17,0.79,1.25,0l0.78-7.5c0.08-.8-1.17-0.79-1.25,0h0Z" transform="translate(-3.5 -9.39)"/><path class="cls-2" d="M290,149.13l-1.58,7.4c-0.17.78,1,1.12,1.21,0.33l1.58-7.4c0.17-.78-1-1.12-1.21-0.33h0Z" transform="translate(-3.5 -9.39)"/><path class="cls-2" d="M286.46,162.86l-3.21,7c-0.33.73,0.74,1.36,1.08,0.63l3.21-7c0.33-.73-0.74-1.36-1.08-0.63h0Z" transform="translate(-3.5 -9.39)"/><path class="cls-2" d="M294,179.73l-7.46-3.65c-0.72-.35-1.35.73-0.63,1.08l7.46,3.65c0.72,0.35,1.35-.73.63-1.08h0Z" transform="translate(-3.5 -9.39)"/><path class="cls-2" d="M299.27,180.45l8-.58c0.8-.06.8-1.31,0-1.25l-8,.58c-0.8.06-.8,1.31,0,1.25h0Z" transform="translate(-3.5 -9.39)"/><path class="cls-2" d="M314.9,179.43l7.53-.47c0.8,0,.8-1.3,0-1.25l-7.53.47c-0.8,0-.8,1.3,0,1.25h0Z" transform="translate(-3.5 -9.39)"/><path class="cls-2" d="M330.95,178.14l6.89-.91c0.79-.1.8-1.35,0-1.25l-6.89.91c-0.79.1-.8,1.35,0,1.25h0Z" transform="translate(-3.5 -9.39)"/><path class="cls-2" d="M346.05,176.65l6.9-.22a0.63,0.63,0,0,0,0-1.25l-6.9.22a0.63,0.63,0,0,0,0,1.25h0Z" transform="translate(-3.5 -9.39)"/><path class="cls-2" d="M361.42,175.61l6.72-.6c0.79-.07.8-1.32,0-1.25l-6.72.6c-0.79.07-.8,1.32,0,1.25h0Z" transform="translate(-3.5 -9.39)"/><path class="cls-2" d="M376.44,174.5l6.68-.46c0.8-.05.8-1.3,0-1.25l-6.68.46c-0.8.05-.8,1.3,0,1.25h0Z" transform="translate(-3.5 -9.39)"/><path class="cls-2" d="M391.89,173l6.72-.55c0.8-.06.8-1.32,0-1.25l-6.72.55c-0.8.06-.8,1.32,0,1.25h0Z" transform="translate(-3.5 -9.39)"/><path class="cls-2" d="M407.85,171.54l6.14-.37c0.8,0,.8-1.3,0-1.25l-6.14.37c-0.8,0-.8,1.3,0,1.25h0Z" transform="translate(-3.5 -9.39)"/><path class="cls-2" d="M423.81,170.2l6.78-1.17c0.79-.14.46-1.34-0.33-1.21L423.48,169c-0.79.14-.46,1.34,0.33,1.21h0Z" transform="translate(-3.5 -9.39)"/><path class="cls-2" d="M438.44,167.9l7.3-1.35c0.79-.15.46-1.35-0.33-1.21l-7.3,1.35c-0.79.15-.46,1.35,0.33,1.21h0Z" transform="translate(-3.5 -9.39)"/><path class="cls-2" d="M453.23,165.42l7.85-1.31c0.79-.13.46-1.34-0.33-1.21l-7.85,1.31c-0.79.13-.46,1.34,0.33,1.21h0Z" transform="translate(-3.5 -9.39)"/><path class="cls-2" d="M468.17,163.15l7-1.24c0.79-.14.46-1.35-0.33-1.21l-7,1.24c-0.79.14-.46,1.35,0.33,1.21h0Z" transform="translate(-3.5 -9.39)"/><path class="cls-2" d="M482.49,160.63l7.45-1.39c0.79-.15.46-1.35-0.33-1.21l-7.45,1.39c-0.79.15-.46,1.35,0.33,1.21h0Z" transform="translate(-3.5 -9.39)"/><path class="cls-2" d="M496.8,157.93l8.33-1.59c0.79-.15.46-1.36-0.33-1.21l-8.33,1.59c-0.79.15-.46,1.36,0.33,1.21h0Z" transform="translate(-3.5 -9.39)"/><path class="cls-2" d="M316.24,223.46l5-2.19c0.73-.32.1-1.4-0.63-1.08l-5,2.19c-0.73.32-.1,1.4,0.63,1.08h0Z" transform="translate(-3.5 -9.39)"/><path class="cls-2" d="M325.73,219.73l8.55-2.89c0.76-.26.43-1.46-0.33-1.21l-8.55,2.89c-0.76.26-.43,1.46,0.33,1.21h0Z" transform="translate(-3.5 -9.39)"/><path class="cls-2" d="M339.28,214.75l8.32-3.56c0.74-.32.1-1.39-0.63-1.08l-8.32,3.56c-0.74.32-.1,1.39,0.63,1.08h0Z" transform="translate(-3.5 -9.39)"/><path class="cls-2" d="M352.47,209.21l8.77-2.63a0.63,0.63,0,0,0-.33-1.21L352.13,208a0.63,0.63,0,0,0,.33,1.21h0Z" transform="translate(-3.5 -9.39)"/><path class="cls-2" d="M366.05,205.16l9.5-2.63a0.63,0.63,0,0,0-.33-1.21l-9.5,2.63a0.63,0.63,0,0,0,.33,1.21h0Z" transform="translate(-3.5 -9.39)"/><path class="cls-2" d="M380.08,201.54l8.29-1.75c0.79-.17.45-1.37-0.33-1.21l-8.29,1.75c-0.79.17-.45,1.37,0.33,1.21h0Z" transform="translate(-3.5 -9.39)"/><path class="cls-2" d="M394.1,198.91l7.16-1c0.79-.11.46-1.31-0.33-1.21l-7.16,1c-0.79.11-.46,1.31,0.33,1.21h0Z" transform="translate(-3.5 -9.39)"/><path class="cls-2" d="M406.35,197.54l9.18-1.06c0.79-.09.8-1.34,0-1.25l-9.18,1.06c-0.79.09-.8,1.34,0,1.25h0Z" transform="translate(-3.5 -9.39)"/><path class="cls-2" d="M421.55,196.08c3.1,0,6.21-.19,9.31-0.29a0.63,0.63,0,0,0,0-1.25c-3.1.1-6.21,0.26-9.31,0.29a0.63,0.63,0,0,0,0,1.25h0Z" transform="translate(-3.5 -9.39)"/><path class="cls-2" d="M437.76,195.79h8.33a0.63,0.63,0,0,0,0-1.25h-8.33a0.63,0.63,0,0,0,0,1.25h0Z" transform="translate(-3.5 -9.39)"/><path class="cls-2" d="M453.25,195.79c2.5,0.16,5,.42,7.49.7,0.8,0.09.79-1.16,0-1.25-2.49-.27-5-0.54-7.49-0.7-0.8-.05-0.8,1.2,0,1.25h0Z" transform="translate(-3.5 -9.39)"/><path class="cls-2" d="M466.76,197.25l9.75,0.92c0.8,0.08.8-1.18,0-1.25l-9.75-.92c-0.8-.08-0.8,1.18,0,1.25h0Z" transform="translate(-3.5 -9.39)"/><path class="cls-2" d="M481,198.64l8.18,0.73c0.8,0.07.8-1.18,0-1.25l-8.18-.73c-0.8-.07-0.8,1.18,0,1.25h0Z" transform="translate(-3.5 -9.39)"/><path class="cls-2" d="M494.32,199.82l8.95,1.24c0.79,0.11,1.13-1.1.33-1.21l-8.95-1.24c-0.79-.11-1.13,1.1-0.33,1.21h0Z" transform="translate(-3.5 -9.39)"/><path class="cls-2" d="M523,248.34l-0.69-7.6c-0.07-.79-1.32-0.8-1.25,0l0.69,7.6c0.07,0.79,1.32.8,1.25,0h0Z" transform="translate(-3.5 -9.39)"/><path class="cls-2" d="M521.93,235.56l-0.75-9.72c-0.06-.8-1.31-0.8-1.25,0l0.75,9.72c0.06,0.8,1.31.8,1.25,0h0Z" transform="translate(-3.5 -9.39)"/><path class="cls-2" d="M520.78,220.73V213.5a0.63,0.63,0,0,0-1.25,0v7.23a0.63,0.63,0,0,0,1.25,0h0Z" transform="translate(-3.5 -9.39)"/><path class="cls-2" d="M520.38,207.62l-0.51-8.4c0-.8-1.3-0.8-1.25,0l0.51,8.4c0,0.8,1.3.8,1.25,0h0Z" transform="translate(-3.5 -9.39)"/><path class="cls-2" d="M509,201.76l5,0.73c0.79,0.12,1.13-1.09.33-1.21l-5-.73c-0.79-.12-1.13,1.09-0.33,1.21h0Z" transform="translate(-3.5 -9.39)"/><path class="cls-2" d="M519.18,192.21l-0.29-9.09a0.63,0.63,0,0,0-1.25,0l0.29,9.09a0.63,0.63,0,0,0,1.25,0h0Z" transform="translate(-3.5 -9.39)"/><path class="cls-2" d="M518.37,177.12l-0.22-7.71a0.63,0.63,0,0,0-1.25,0l0.22,7.71a0.63,0.63,0,0,0,1.25,0h0Z" transform="translate(-3.5 -9.39)"/><path class="cls-2" d="M511.3,155.45l2.48-.45c0.79-.14.46-1.35-0.33-1.21l-2.48.45c-0.79.14-.46,1.35,0.33,1.21h0Z" transform="translate(-3.5 -9.39)"/><path class="cls-2" d="M518.81,162.15l0.69-7.3c0.08-.8-1.17-0.8-1.25,0l-0.69,7.3c-0.08.8,1.17,0.8,1.25,0h0Z" transform="translate(-3.5 -9.39)"/><path class="cls-2" d="M519.88,147.2l1.42-8c0.14-.79-1.06-1.12-1.21-0.33l-1.42,8c-0.14.79,1.06,1.12,1.21,0.33h0Z" transform="translate(-3.5 -9.39)"/><path class="cls-2" d="M522.66,131.05l1.31-6.87c0.15-.79-1.05-1.12-1.21-0.33l-1.31,6.87c-0.15.79,1.05,1.12,1.21,0.33h0Z" transform="translate(-3.5 -9.39)"/><path class="cls-2" d="M525.62,117.43l2.15-7.85a0.63,0.63,0,0,0-1.21-.33l-2.15,7.85a0.63,0.63,0,0,0,1.21.33h0Z" transform="translate(-3.5 -9.39)"/><path class="cls-2" d="M530.4,100.81l2.19-7a0.63,0.63,0,0,0-1.21-.33l-2.19,7a0.63,0.63,0,0,0,1.21.33h0Z" transform="translate(-3.5 -9.39)"/><path class="cls-2" d="M534.49,88l2.74-6.83c0.3-.75-0.91-1.07-1.21-0.33l-2.74,6.83c-0.3.75,0.91,1.07,1.21,0.33h0Z" transform="translate(-3.5 -9.39)"/><path class="cls-2" d="M540.24,73l2.67-5.89c0.33-.73-0.75-1.36-1.08-0.63l-2.67,5.89c-0.33.73,0.75,1.36,1.08,0.63h0Z" transform="translate(-3.5 -9.39)"/><path class="cls-2" d="M528.8,99.16l-5.11-2.48c-0.72-.35-1.36.73-0.63,1.08l5.11,2.48c0.72,0.35,1.36-.73.63-1.08h0Z" transform="translate(-3.5 -9.39)"/><path class="cls-2" d="M519,94.07l-6.77-3c-0.73-.32-1.37.76-0.63,1.08l6.77,3c0.73,0.32,1.37-.76.63-1.08h0Z" transform="translate(-3.5 -9.39)"/><path class="cls-2" d="M506.64,89.74l-7.16-1.61a0.63,0.63,0,0,0-.33,1.21l7.16,1.61a0.63,0.63,0,0,0,.33-1.21h0Z" transform="translate(-3.5 -9.39)"/><path class="cls-2" d="M493.13,87.31l-7.45-.44c-0.8,0-.8,1.2,0,1.25l7.45,0.44c0.8,0,.8-1.2,0-1.25h0Z" transform="translate(-3.5 -9.39)"/><path class="cls-2" d="M479.36,87.09l-7.46.76c-0.79.08-.8,1.33,0,1.25l7.46-.76c0.79-.08.8-1.33,0-1.25h0Z" transform="translate(-3.5 -9.39)"/><path class="cls-2" d="M466.35,88.43l-7.84.74c-0.79.08-.8,1.33,0,1.25l7.84-.74c0.79-.08.8-1.33,0-1.25h0Z" transform="translate(-3.5 -9.39)"/><path class="cls-2" d="M451.5,89.17h-8.62a0.63,0.63,0,0,0,0,1.25h8.62a0.63,0.63,0,0,0,0-1.25h0Z" transform="translate(-3.5 -9.39)"/><path class="cls-2" d="M433.62,89.43h-7.3a0.63,0.63,0,0,0,0,1.25h7.3a0.63,0.63,0,0,0,0-1.25h0Z" transform="translate(-3.5 -9.39)"/><path class="cls-2" d="M418.77,89.43l-9.06.5c-0.8,0-.81,1.29,0,1.25l9.06-.5c0.8,0,.81-1.29,0-1.25h0Z" transform="translate(-3.5 -9.39)"/><path class="cls-2" d="M402.24,90.77l-7.16,1.53c-0.79.17-.45,1.37,0.33,1.21L402.58,92c0.79-.17.45-1.37-0.33-1.21h0Z" transform="translate(-3.5 -9.39)"/><path class="cls-2" d="M388,93.5l-9.11.93c-0.79.08-.8,1.33,0,1.25l9.11-.93c0.79-.08.8-1.33,0-1.25h0Z" transform="translate(-3.5 -9.39)"/><path class="cls-2" d="M371.95,94.42h-9.28a0.63,0.63,0,0,0,0,1.25h9.28a0.63,0.63,0,0,0,0-1.25h0Z" transform="translate(-3.5 -9.39)"/><path class="cls-2" d="M355.66,94.42h-7.74a0.63,0.63,0,0,0,0,1.25h7.74a0.63,0.63,0,0,0,0-1.25h0Z" transform="translate(-3.5 -9.39)"/><path class="cls-2" d="M340.47,94.42h-6.14a0.63,0.63,0,0,0,0,1.25h6.14a0.63,0.63,0,0,0,0-1.25h0Z" transform="translate(-3.5 -9.39)"/><path class="cls-2" d="M325.57,94.62h-6.28a0.63,0.63,0,0,0,0,1.25h6.28a0.63,0.63,0,0,0,0-1.25h0Z" transform="translate(-3.5 -9.39)"/><path class="cls-2" d="M310.78,93.93l-6.62-.88c-0.79-.11-0.79,1.15,0,1.25l6.62,0.88c0.79,0.11.79-1.15,0-1.25h0Z" transform="translate(-3.5 -9.39)"/><path class="cls-2" d="M298.51,91.23l-3.8-1.37c-0.76-.27-1.08.93-0.33,1.21l3.8,1.37c0.76,0.27,1.08-.93.33-1.21h0Z" transform="translate(-3.5 -9.39)"/><path class="cls-2" d="M555.78,333.91l4.48,2.73a0.63,0.63,0,0,0,.63-1.08l-4.48-2.73a0.63,0.63,0,0,0-.63,1.08h0Z" transform="translate(-3.5 -9.39)"/><path class="cls-2" d="M564,338.06l7.74,1.9a0.63,0.63,0,0,0,.33-1.21l-7.74-1.9a0.63,0.63,0,0,0-.33,1.21h0Z" transform="translate(-3.5 -9.39)"/><path class="cls-2" d="M576,341.3l6.27,0.68c0.8,0.09.79-1.16,0-1.25L576,340c-0.8-.09-0.79,1.16,0,1.25h0Z" transform="translate(-3.5 -9.39)"/><path class="cls-2" d="M587.21,342.56l7,0.29a0.63,0.63,0,0,0,0-1.25l-7-.29a0.63,0.63,0,0,0,0,1.25h0Z" transform="translate(-3.5 -9.39)"/><path class="cls-2" d="M599.41,342.25l5.06-1c0.79-.15.46-1.36-0.33-1.21l-5.06,1c-0.79.15-.46,1.36,0.33,1.21h0Z" transform="translate(-3.5 -9.39)"/><path class="cls-2" d="M531.83,271.59l5.75,2.38c0.74,0.31,1.07-.9.33-1.21l-5.75-2.38c-0.74-.31-1.07.9-0.33,1.21h0Z" transform="translate(-3.5 -9.39)"/><path class="cls-2" d="M541.47,275.58l7.89,3c0.75,0.29,1.08-.92.33-1.21l-7.89-3c-0.75-.29-1.08.92-0.33,1.21h0Z" transform="translate(-3.5 -9.39)"/><path class="cls-2" d="M555,280.21l8.13,2.19a0.63,0.63,0,0,0,.33-1.21L555.34,279a0.63,0.63,0,0,0-.33,1.21h0Z" transform="translate(-3.5 -9.39)"/><path class="cls-2" d="M570.83,284l8.18,1.17c0.79,0.11,1.13-1.09.33-1.21l-8.18-1.17c-0.79-.11-1.13,1.09-0.33,1.21h0Z" transform="translate(-3.5 -9.39)"/><path class="cls-2" d="M585.75,286.08l8.77,0.37a0.63,0.63,0,0,0,0-1.25l-8.77-.37a0.63,0.63,0,0,0,0,1.25h0Z" transform="translate(-3.5 -9.39)"/><path class="cls-2" d="M601.29,286.81h8.57a0.63,0.63,0,0,0,0-1.25h-8.57a0.63,0.63,0,0,0,0,1.25h0Z" transform="translate(-3.5 -9.39)"/><path class="cls-2" d="M617.55,287H626a0.63,0.63,0,0,0,0-1.25h-8.47a0.63,0.63,0,0,0,0,1.25h0Z" transform="translate(-3.5 -9.39)"/><path class="cls-2" d="M633.67,286.62l9.35-1.1c0.79-.09.8-1.34,0-1.25l-9.35,1.1c-0.79.09-.8,1.34,0,1.25h0Z" transform="translate(-3.5 -9.39)"/><path class="cls-2" d="M649.62,283.58l4.67-2.48a0.63,0.63,0,0,0-.63-1.08L649,282.5a0.63,0.63,0,0,0,.63,1.08h0Z" transform="translate(-3.5 -9.39)"/><path class="cls-2" d="M245,288l5.38,3.51a0.63,0.63,0,0,0,.63-1.08L245.68,287A0.63,0.63,0,0,0,245,288h0Z" transform="translate(-3.5 -9.39)"/><path class="cls-2" d="M253.67,293.21l6.57,2.34c0.76,0.27,1.09-.94.33-1.21L254,292c-0.76-.27-1.09.94-0.33,1.21h0Z" transform="translate(-3.5 -9.39)"/><path class="cls-2" d="M264.79,297.62l7.84,1c0.8,0.1.79-1.15,0-1.25l-7.84-1c-0.8-.1-0.79,1.15,0,1.25h0Z" transform="translate(-3.5 -9.39)"/><path class="cls-2" d="M279.55,299.37h7a0.63,0.63,0,0,0,0-1.25h-7a0.63,0.63,0,0,0,0,1.25h0Z" transform="translate(-3.5 -9.39)"/><path class="cls-2" d="M292.55,299.37l9.45-.49c0.8,0,.81-1.29,0-1.25l-9.45.49c-0.8,0-.81,1.29,0,1.25h0Z" transform="translate(-3.5 -9.39)"/><path class="cls-2" d="M308.49,298.11l8.19-2.31a0.63,0.63,0,0,0-.33-1.21l-8.19,2.31a0.63,0.63,0,0,0,.33,1.21h0Z" transform="translate(-3.5 -9.39)"/><path class="cls-2" d="M321.94,293.15l6-3.36a0.63,0.63,0,0,0-.63-1.08l-6,3.36a0.63,0.63,0,0,0,.63,1.08h0Z" transform="translate(-3.5 -9.39)"/><path class="cls-2" d="M264.18,338.88l4.82,3.36c0.66,0.46,1.29-.62.63-1.08l-4.82-3.36c-0.66-.46-1.29.62-0.63,1.08h0Z" transform="translate(-3.5 -9.39)"/><path class="cls-2" d="M273.39,345.07l7.06,2.24a0.63,0.63,0,0,0,.33-1.21l-7.06-2.24a0.63,0.63,0,0,0-.33,1.21h0Z" transform="translate(-3.5 -9.39)"/><path class="cls-2" d="M285.39,347.58l6.43-.24a0.63,0.63,0,0,0,0-1.25l-6.43.24a0.63,0.63,0,0,0,0,1.25h0Z" transform="translate(-3.5 -9.39)"/><path class="cls-2" d="M296.37,346l5.41-1.95c0.75-.27.43-1.48-0.33-1.21L296,344.75c-0.75.27-.43,1.48,0.33,1.21h0Z" transform="translate(-3.5 -9.39)"/><path class="cls-2" d="M332.6,286.76l3.54-2.44c0.66-.45,0-1.54-0.63-1.08L332,285.68c-0.66.45,0,1.54,0.63,1.08h0Z" transform="translate(-3.5 -9.39)"/><path class="cls-2" d="M544.95,62.39L547,58c0.35-.72-0.73-1.36-1.08-0.63l-2.09,4.38c-0.35.72,0.73,1.36,1.08,0.63h0Z" transform="translate(-3.5 -9.39)"/><path class="cls-2" d="M81.42,193.14A21.18,21.18,0,0,1,82,199a0.63,0.63,0,0,0,1.25,0,22.46,22.46,0,0,0-.62-6.16,0.63,0.63,0,0,0-1.21.33h0Z" transform="translate(-3.5 -9.39)"/><path class="cls-2" d="M78.28,179.6a18.88,18.88,0,0,1,1.81,6.28c0.1,0.79,1.35.8,1.25,0a20.59,20.59,0,0,0-2-6.91,0.63,0.63,0,0,0-1.08.63h0Z" transform="translate(-3.5 -9.39)"/><path class="cls-2" d="M73.26,168.19a12.42,12.42,0,0,1,2.24,3.28,0.63,0.63,0,0,0,1.08-.63,13.45,13.45,0,0,0-2.44-3.54,0.63,0.63,0,0,0-.88.88h0Z" transform="translate(-3.5 -9.39)"/><path class="cls-2" d="M61.82,159.32c1.77,0,3.61,1.4,4.94,2.41,0.64,0.48,1.27-.6.63-1.08-1.52-1.15-3.56-2.53-5.57-2.58a0.63,0.63,0,0,0,0,1.25h0Z" transform="translate(-3.5 -9.39)"/><path class="cls-2" d="M159.78,134a28.13,28.13,0,0,1-7.16,3.2,0.63,0.63,0,0,0,.33,1.21,29.35,29.35,0,0,0,7.45-3.33,0.63,0.63,0,0,0-.63-1.08h0Z" transform="translate(-3.5 -9.39)"/><path class="cls-2" d="M137.28,139.33c2,0.76,4.66.39,6.69,0.27,0.8-.05.8-1.3,0-1.25-1.92.12-4.49,0.49-6.36-.22-0.75-.29-1.08.92-0.33,1.21h0Z" transform="translate(-3.5 -9.39)"/><path class="cls-2" d="M126.83,134a6.47,6.47,0,0,0,3.26,3.59c0.73,0.32,1.37-.76.63-1.08a4.81,4.81,0,0,1-2.07-1.75,7.4,7.4,0,0,1-.47-0.8l-0.14-.3c-0.07-.14,0,0,0,0-0.29-.74-1.5-0.42-1.21.33h0Z" transform="translate(-3.5 -9.39)"/><path class="cls-3" d="M335,112.94c11.09-.67,14.23,8.36,15.28,16.49,1.49,11.49-.29,21.93-11.86,23.42a24.86,24.86,0,0,1-5.83,0l-3.71-38.46a21.07,21.07,0,0,1,5.13-1.31Zm2.07,35.6a7.38,7.38,0,0,0,2.18.07c8.55-1.11,8.07-10.07,7.32-15.87-1.89-14.62-7.55-17.37-11.61-16.84a10.29,10.29,0,0,0-2.81.78Z" transform="translate(-3.5 -9.39)"/><path class="cls-3" d="M365.8,128.07l0.88,2.08-7.47,2.16,0.3,12.9,9.59-.59,0.57,2.12-12.31,3-3.77-34.87,10.75-2.14,1.18,3.82-9,.46,2.13,11.69Z" transform="translate(-3.5 -9.39)"/><path class="cls-3" d="M374.1,146l-3.76-35.26,3.44-1.09,2.49,33.58,9.2-2.13,1.23,3.13Z" transform="translate(-3.5 -9.39)"/><path class="cls-3" d="M388.65,107l2.51,0.85,3.29,35.24-3.6.78Z" transform="translate(-3.5 -9.39)"/><path class="cls-3" d="M410.93,111.69a6.58,6.58,0,0,0-3.75-.71c-4.79.33-8,6.56-7.39,15.74,0.62,9,4.08,15,9.88,14.61a8.18,8.18,0,0,0,2.63-.72l0.85,1.6a10.77,10.77,0,0,1-4.93,1.63l-0.41,0c-5.27,0-10.52-3.73-11.34-15.69,0-.64-0.09-1.34-0.09-2-0.25-11.14,2.82-19,10.37-19.49a8.77,8.77,0,0,1,5.24.93Z" transform="translate(-3.5 -9.39)"/><path class="cls-3" d="M415.28,106.35l2.51,0.85,3.29,35.24-3.6.78Z" transform="translate(-3.5 -9.39)"/><path class="cls-3" d="M422.41,125c-0.7-13.93,3.76-19.88,9.2-20.15,6-.3,9.29,5,9.91,17.23,0.82,16.32-4.72,20.15-9,20.36C426.79,142.72,423.06,138.05,422.41,125Zm15.88-.31c-0.37-7.45-2.52-16.78-7.59-16.53-4.74.24-5.51,7.26-5.17,14,0.48,9.58,3.06,17.25,7.66,17S438.62,131.33,438.28,124.69Z" transform="translate(-3.5 -9.39)"/><path class="cls-3" d="M462,103l0.85,24.39c0.31,9-2.81,13.61-7.74,13.86-4.7.24-8.13-3.08-8.78-12.49l-1.63-23.21,2.38-.83L450,128.63c0.87,7,3.08,9.44,5.87,9.3s4.67-2.52,4.39-8.24c0-.49-0.05-1-0.13-1.58l-2.44-23.44Z" transform="translate(-3.5 -9.39)"/><path class="cls-3" d="M468.65,136.42a8.27,8.27,0,0,0,4.73,1.45c3.58-.18,5.52-3.33,5.34-6.81s-2.29-5.72-4.93-8.1c-3.32-3.05-6.53-4.74-6.81-10.29s2.92-9.64,7.89-9.89a8.28,8.28,0,0,1,4.76,1L479,107.6a6.73,6.73,0,0,0-4.11-1.1,4.9,4.9,0,0,0-4.86,5.37c0.19,3.86,2.24,5.72,5.41,7.42,3.74,2.1,6.84,4.51,7.12,10.06,0.31,6.15-3.8,10.72-9,11a10,10,0,0,1-6-1.72Z" transform="translate(-3.5 -9.39)"/><path class="cls-3" d="M296.17,285a5.08,5.08,0,0,0,.42-3.6c-0.57-1.82-2.07-2.29-4-1.51-1.54.62-2.62,1.94-3.2,4.27-0.8,3.13-1.51,5.21-4.79,6.55s-6,0-6.82-2.66a5.89,5.89,0,0,1,.21-4.27l1.38,0.53a4.07,4.07,0,0,0,0,2.68c0.5,1.59,2.54,1.68,3.87,1.14,1.71-.69,2.3-1.77,3-3.86,0.95-2.81,2.14-5.26,5.09-6.46,3.7-1.5,6.64.43,7.41,2.88a6.86,6.86,0,0,1,.27,3.86Z" transform="translate(-3.5 -9.39)"/><path class="cls-3" d="M272.3,270.08L287,263.39l5.26-2.48,1.05,2.16-3.6,1.8,0.13,0.12a4.14,4.14,0,0,1,4.76,2.49c0.93,3-.57,5.37-6.18,8.07l-11.6,5.55-1.39-2.49,11.94-5.53c4-1.89,5.4-3.08,4.77-5.11s-3.68-1.6-5.23-1.3a14.46,14.46,0,0,0-1.88.6l-11.49,4.26Z" transform="translate(-3.5 -9.39)"/><path class="cls-3" d="M291.18,256.34c-1.08.44-3.35,1.41-4.67,2L263.08,268.9,261.57,266,273,261.8l-0.18-.13a4,4,0,0,1-4.22-2.72l-0.08-.26c-0.93-3,1.86-7.23,9.42-10.31,7.14-2.91,10.32-1.15,11.24,1.82,0.57,1.82-.06,3.54-1.59,5.24l0,0.15,2.68-1Zm-8.83,1.42c2.27-.84,5.28-3.48,4.64-5.52-0.79-2.52-4.42-2.3-9-.68-0.37.15-.72,0.25-1,0.39-4.78,1.94-6.25,4.25-5.65,6.18,0.39,1.26,2.27,2.76,6,1.44Z" transform="translate(-3.5 -9.39)"/><path class="cls-3" d="M286.13,244.06L255,251.47l1-2.17,29.1-8.23Z" transform="translate(-3.5 -9.39)"/><path class="cls-3" d="M257.81,244.6c-1.5.41-2.23-.33-2.34-1.11a2.48,2.48,0,0,1,2-2.49,1.62,1.62,0,0,1,2.19,1A2.39,2.39,0,0,1,257.81,244.6Zm25.4-11,0.8,3-20.78,5.89,0.14-2.35Z" transform="translate(-3.5 -9.39)"/><path class="cls-3" d="M284.61,230.18L269,233.05c-2.42.43-3.36,0.61-5.35,1l0.13-2.11,2.89-.7v-0.2a4.21,4.21,0,0,1-3.28-4.35,5.26,5.26,0,0,1,3.41-4.8v-0.08c-3-1-3.62-3.22-3.62-4.39,0-2.17,1.21-5.13,6.3-5.87,0.39-.06.82-0.12,1.25-0.14l13.93-1L284.53,213l-13.07,1.1c-3,.24-5.74,1.4-5.74,4,0,2.13,2.37,3,5.52,2.58l13.37-2-0.13,2L271,223.46c-2.59.54-5.09,1.35-5.09,3.8,0,2.25,2.89,3.2,5.52,2.66l12.89-2.84Z" transform="translate(-3.5 -9.39)"/><path class="cls-3" d="M284.58,193.87a8.14,8.14,0,0,1,.73,3.76c0,6.24-5.78,8.81-10.7,9.53-6.17.9-11.17-.71-11.17-5,0-.16,0-0.37,0-0.53,0.39-4.36,4.36-6.11,8.84-6.76,0.91-.13,1.47-0.17,2.59-0.26L274,204.87c6.68-.81,8-3.83,8.28-6.32,0-.2,0-0.41,0-0.61a5.29,5.29,0,0,0-.73-2.83Zm-12.59,4c-3.93.57-6.38,2.14-6.38,4.23,0,2.38,3.19,3,6.16,2.69Z" transform="translate(-3.5 -9.39)"/><path class="cls-3" d="M133.2,103.66l2-4.56,19.29,1.42,0-.1L138,89.48l1.53-2.06,12.92,7c5.79,3.12,10.2,6.21,13.28,10.8a13,13,0,0,1,1.81,5.7l-1.76.82c-1-5.27-7.59-8.65-8.41-8.87a2,2,0,0,0-1-.09Z" transform="translate(-3.5 -9.39)"/><path class="cls-3" d="M167.77,76.21a13.63,13.63,0,0,1-.79,5.21c-2.58,8-9.62,8.16-15,6.43-6.75-2.18-11.26-6.94-9.48-12.45,0.07-.21.2-0.45,0.26-0.66,2.21-5.38,7-5.47,11.94-3.89,1,0.32,1.59.57,2.78,1.07l-5.19,12.67c7.25,2.57,9.88-.57,11.18-3.62,0.08-.26.21-0.5,0.3-0.76a9,9,0,0,0,.41-4ZM153.1,74.49c-4.3-1.39-7.49-.71-8.35,2-1,3,2.08,5.51,5.27,6.77Z" transform="translate(-3.5 -9.39)"/><path class="cls-3" d="M167,71.55A7.23,7.23,0,0,0,170.18,68c1-2.46.18-4.31-1.94-5.16-1.7-.68-3.6-0.22-5.9,1.77-3.1,2.67-5.31,4.29-8.94,2.83s-4.74-5.23-3.27-8.9a8.7,8.7,0,0,1,3.54-4.42L154.35,56a6.21,6.21,0,0,0-2.12,2.88,3.66,3.66,0,0,0,2.14,4.65c1.89,0.76,3.21.12,5.42-1.5,3-2.19,5.85-3.78,9.12-2.47,4.1,1.65,4.88,6.34,3.55,9.66a10.89,10.89,0,0,1-2.84,4.41Z" transform="translate(-3.5 -9.39)"/><path class="cls-3" d="M562.65,127.91c0.25-11.39,6.06-16.22,12.08-16.09,6.43,0.14,11.26,6.15,11,17.27-0.24,10.92-5.45,16.3-12.08,16.15-6.83-.15-11.08-5-11-16.73v-0.6Zm18.09,3.21c0.12-5.36-1.13-15.64-7.23-15.78-5.16,0-5.79,7-5.89,11.73-0.21,9.58,3.36,14.75,7.18,14.7C579.23,141.75,580.62,136.55,580.74,131.13Z" transform="translate(-3.5 -9.39)"/><path class="cls-3" d="M590.55,143l2-24.13c0.33-3.74.45-5.21,0.63-8.29l3.43,0.63-0.09,4.51,0.33,0a8.38,8.38,0,0,1,8.61-4.06,7.24,7.24,0,0,1,6.46,6.14l0.13,0c3-4.29,6.88-4.81,8.81-4.57,3.59,0.45,7.94,2.88,7,10.73-0.07.6-.16,1.26-0.31,1.92l-4.41,21.26-4.16-.79,3.85-20c0.91-4.61.17-9-4.08-9.49-3.52-.44-6,3-6.65,7.81l-2.44,20.63-3.23-.61,1.13-20.93c0.23-4,0-8-4.07-8.48-3.72-.47-6.54,3.71-6.78,7.8l-0.89,20.08Z" transform="translate(-3.5 -9.39)"/><path class="cls-3" d="M546.72,187.33c0.68-11.93,1.62-25.26,1.16-32.1l2.95,0.6,0.2,3.55h0.13A8.58,8.58,0,0,1,559,154.7c3.89,0,8.37,2.48,8.37,9.72a14.63,14.63,0,0,1-.07,1.67l-1.89,21.51-4-.4L562.68,167c0.27-4.29-.93-8.44-5.22-8.45-3.69,0-6,4-6,8.64L552,187.8Z" transform="translate(-3.5 -9.39)"/><path class="cls-3" d="M573.16,172.39c0.94-11.35,7-15.82,13-15.33,6.41,0.53,10.87,6.82,10,17.9-0.9,10.89-6.43,15.94-13,15.39-6.81-.56-10.76-5.66-10-17.37Zm17.87,4.3c0.44-5.34-.18-15.68-6.26-16.18-5.15-.29-6.2,6.68-6.59,11.36-0.79,9.55,2.46,14.93,6.28,15.11C588.87,187.2,590.57,182.1,591,176.69Z" transform="translate(-3.5 -9.39)"/><path class="cls-3" d="M600.43,191.83l2.87-24c0.47-3.73.64-5.19,0.93-8.27l3.41,0.76-0.25,4.51,0.33,0.05a8.37,8.37,0,0,1,8.75-3.74,7.24,7.24,0,0,1,6.23,6.37l0.13,0c3.12-4.18,7.05-4.56,9-4.25,3.57,0.58,7.84,3.17,6.57,11-0.1.6-.2,1.26-0.38,1.91l-5.18,21.09-4.12-.94,4.57-19.83c1.08-4.58.5-8.95-3.73-9.63-3.51-.57-6.15,2.74-6.93,7.57l-3.19,20.53-3.21-.72,1.88-20.87c0.38-4,.27-8-3.76-8.62-3.7-.6-6.67,3.47-7.06,7.55l-1.61,20Z" transform="translate(-3.5 -9.39)"/><path class="cls-3" d="M547.06,238.62c-0.51-11.94-.89-25.3-2-32.05l3,0.31,0.55,3.51h0.13a8.58,8.58,0,0,1,7.34-5.44c3.87-.38,8.58,1.64,9.29,8.84a14.65,14.65,0,0,1,.1,1.67L565.69,237h-4l-0.79-20.19c-0.16-4.29-1.77-8.31-6-7.89-3.67.36-5.54,4.59-5.08,9.19l2.56,20.42Z" transform="translate(-3.5 -9.39)"/><path class="cls-3" d="M571.49,219.73c0.64-11.37,6.61-16,12.63-15.66,6.42,0.36,11,6.53,10.41,17.64-0.62,10.9-6,16.1-12.64,15.73-6.82-.39-10.9-5.38-10.44-17.1Zm18,3.84c0.3-5.35-.59-15.67-6.68-16-5.16-.16-6,6.84-6.29,11.52-0.54,9.57,2.85,14.86,6.67,14.94C587.59,234.13,589.16,229,589.46,223.57Z" transform="translate(-3.5 -9.39)"/><path class="cls-3" d="M597.35,238.43l2.14-24.12c0.35-3.74.48-5.21,0.68-8.29l3.43,0.65-0.12,4.51,0.33,0a8.38,8.38,0,0,1,8.63-4,7.24,7.24,0,0,1,6.42,6.18l0.13,0c3-4.27,6.91-4.77,8.84-4.52,3.59,0.47,7.93,2.93,6.9,10.77-0.08.6-.17,1.26-0.32,1.92l-4.53,21.23-4.15-.81,4-20c0.94-4.61.23-9-4-9.52-3.52-.46-6.06,2.92-6.7,7.77l-2.56,20.61-3.23-.63,1.25-20.92c0.26-4,0-8-4-8.5-3.72-.49-6.56,3.67-6.83,7.76l-1,20.07Z" transform="translate(-3.5 -9.39)"/><path class="cls-3" d="M229.34,113.22a7.87,7.87,0,0,0,4.31,0,4.88,4.88,0,0,0,3.25-6.38c-0.84-2.69-3-3.83-5.75-5-3.41-1.57-6.47-2.13-7.77-6.29a7.09,7.09,0,0,1,4.83-9.29,8,8,0,0,1,4.23-.34L232.59,89a6.42,6.42,0,0,0-3.71.09c-2.86.89-3.72,3.22-3.11,5.18,0.91,2.89,3,3.84,6,4.42,3.59,0.75,6.69,1.88,8,6a8.18,8.18,0,0,1-5.56,10.37,9.5,9.5,0,0,1-5.4,0Z" transform="translate(-3.5 -9.39)"/><path class="cls-3" d="M241.63,97.86c-2.41-10.13.48-15.21,4.93-16.27,4.91-1.17,8.32,2.2,10.44,11.1,2.83,11.87-1.24,15.56-4.77,16.4C247.59,110.2,243.89,107.36,241.63,97.86Zm13.05-2.74c-1.29-5.42-4.29-11.94-8.44-11-3.88.92-3.58,6.21-2.42,11.07,1.66,7,4.8,12.2,8.56,11.3S255.84,100,254.69,95.13Z" transform="translate(-3.5 -9.39)"/><path class="cls-3" d="M229.15,136.46l6.06-1.8,3.68,11.25a13.53,13.53,0,0,1-4.2,2.48,8.21,8.21,0,0,1-6.72-.5c-2.23-1.2-4.25-4.12-5.72-8.27-3-8.62.17-13.49,4.52-15a7.67,7.67,0,0,1,3.84-.36L230,125.76a6.67,6.67,0,0,0-2.59.38c-3.86,1.36-5.35,5.48-3.28,11.33,2.26,6.4,5.74,9.3,9.7,7.9a4.42,4.42,0,0,0,2.32-1.55l-2.82-6.54-3,1.72Z" transform="translate(-3.5 -9.39)"/><path class="cls-3" d="M237.55,134.53c-3.07-8.71-1-13.46,2.83-14.81,4.22-1.49,7.55,1.16,10.25,8.82,3.6,10.21.36,13.84-2.68,14.91C243.95,144.86,240.43,142.69,237.55,134.53Zm11.26-3.63c-1.64-4.66-4.9-10.13-8.46-8.87-3.34,1.18-2.58,5.81-1.11,10,2.11,6,5.37,10.31,8.61,9.17S250.27,135,248.81,130.9Z" transform="translate(-3.5 -9.39)"/><path class="cls-3" d="M253.57,128.57c-2.51-8.89-.14-13.5,3.77-14.6,4.31-1.22,7.46,1.64,9.66,9.45,2.94,10.41-.52,13.83-3.63,14.71C259.31,139.29,255.93,136.91,253.57,128.57ZM265,125.67c-1.34-4.76-4.24-10.42-7.88-9.39-3.4,1-2.95,5.63-1.74,9.9,1.73,6.11,4.7,10.63,8,9.7S266.24,129.9,265,125.67Z" transform="translate(-3.5 -9.39)"/><path class="cls-3" d="M273.23,110.56c7.31-.61,9.42,4.92,10.16,9.91,1,7.07-.07,13.54-7.69,14.66a17.52,17.52,0,0,1-3.84.09l-2.66-23.68a14.84,14.84,0,0,1,3.37-.9Zm1.56,21.94a5.19,5.19,0,0,0,1.44,0c5.63-.83,5.27-6.36,4.74-9.93-1.33-9-5.07-10.59-7.75-10.2a7.26,7.26,0,0,0-1.85.53Z" transform="translate(-3.5 -9.39)"/><path class="cls-3" d="M559.78,292.34l2.08,0.85-2.81,7,5.28,1.32,1.64-7.1,1.95,0.35-4.51,16.46-1.56-.29,1.94-7.62-5-1.78L556,309.18l-1.15-.59Z" transform="translate(-3.5 -9.39)"/><path class="cls-3" d="M574.29,304.1l0.21,1.08-4.22.09-1.42,6.08,5.15,0.9,0,1.06-6.88-.13,2.28-16.79,6,0.32,0.16,1.93-4.81-.88-0.3,5.73Z" transform="translate(-3.5 -9.39)"/><path class="cls-3" d="M583.16,309.53l-3.78-.66-2.49,5-1.33,0,6.27-16.43,1.49,0.63,2.13,17-2.36-.08ZM579.73,308L583,308.1l-0.41-4.71c-0.1-1.22-.18-2.52-0.23-3.76l-0.18.08Z" transform="translate(-3.5 -9.39)"/><path class="cls-3" d="M592.2,316.69l-2,.19-2.82-17.55,2.15,0.61,1.39,14.58H591l5.24-14,1.22-.2Z" transform="translate(-3.5 -9.39)"/><path class="cls-3" d="M604.13,307.61l0.34,0.92-3.8.64-0.46,5.52,4.78,0.1,0.18,0.93-6.24.8-0.22-15,5.43-.51,0.4,1.68-4.47-.14,0.5,5.07h3.56Z" transform="translate(-3.5 -9.39)"/><path class="cls-3" d="M610.61,315.71l-1.23.48-1.31-15,2.35-.16,5.12,12.52h0l-0.52-13.21,1.65,0.26-0.1,14.73-1.13.28-5.65-12.5h0c0,2.11.07,3.91,0.34,7Z" transform="translate(-3.5 -9.39)"/><path class="cls-3" d="M620.84,315.15L619,300.54l1.65-.49,1.2,13.92,4.42-1,0.59,1.29Z" transform="translate(-3.5 -9.39)"/><path class="cls-3" d="M629.55,314.19l-1.3-.07-0.37-6.23L624,299.3l1.18,0.22,3.92,6.64h0l1.38-6.73,2.25-.51-3.24,8.77Z" transform="translate(-3.5 -9.39)"/><path class="cls-3" d="M178.77,138.54c4,7.08-.15,11.68-4.48,14.66-6.12,4.21-12.69,6-17.34-1.17a20.84,20.84,0,0,1-1.9-3.82l20.89-13.27a17.36,17.36,0,0,1,2.43,3ZM159,149.93a6.22,6.22,0,0,0,.67,1.45c3.43,5.29,8.43,2.45,11.52.32,7.78-5.36,7.51-9.84,5.88-12.36a8.32,8.32,0,0,0-1.37-1.62Z" transform="translate(-3.5 -9.39)"/><path class="cls-3" d="M182.7,161.87L181.78,163l-3.89-4.23-7.54,3.8,3.7,6-1.06,1-6.06-7.14,19.34-12.17,5,6.35-1.85,1.83L186,152.8l-6.18,4.64Z" transform="translate(-3.5 -9.39)"/><path class="cls-3" d="M176.46,173.55l18.18-12.95,1.87,1.77L178.8,174l4.56,5-1.29,1.7Z" transform="translate(-3.5 -9.39)"/><path class="cls-3" d="M196.45,182.49l-0.82,1.05-3.48-3.9-6.68,3.45,3.32,5.57-0.93.88-5.42-6.59,17.12-11.08,4.5,5.87-1.64,1.67-3.06-5.23-5.47,4.23Z" transform="translate(-3.5 -9.39)"/><path class="cls-3" d="M208,194a4.82,4.82,0,0,0-.49-2.42c-1.28-2.86-5.34-3.64-10.06-1.52s-7,5.33-5.46,8.8a6.05,6.05,0,0,0,1,1.47l-0.65.82a7.94,7.94,0,0,1-2-2.7l-0.11-.25c-1.22-3.22-.46-7.12,5.69-9.89,0.33-.15.69-0.31,1.06-0.44,5.85-2.27,10.71-1.88,12.74,2.63a6.43,6.43,0,0,1,.72,3.37Z" transform="translate(-3.5 -9.39)"/><path class="cls-3" d="M194,206l19.15-5.64L211.9,197l2.25-1.17,2.29,11.37-1.22-.12-1.14-3.74-20,4.18Z" transform="translate(-3.5 -9.39)"/><path class="cls-3" d="M204,220.66l-0.74-5.08-7.06-1-0.59-1.66,22.27,0.92L217.75,216l-19.55,10-0.85-3Zm0.47-5,1.19,4.25,5.5-2.53c1.43-.64,2.95-1.31,4.42-1.9l-0.17-.2Z" transform="translate(-3.5 -9.39)"/><path class="cls-3" d="M218,224.93a10.17,10.17,0,0,1,.84,2.77,8.09,8.09,0,0,1-.75,5.09,5.16,5.16,0,0,1-3.94,2.31,4.24,4.24,0,0,1-4.54-2.68l-0.08.07a6.11,6.11,0,0,1-5.5,4.87c-2.69.37-5.15-.93-5.74-5.44a10.67,10.67,0,0,1,.2-3.8Zm-9.54,4-8.29.73a6.64,6.64,0,0,0-.08,1.84,4.34,4.34,0,0,0,8.57-1.34Zm1.6,1.21a4.12,4.12,0,0,0,0,.6,3.15,3.15,0,0,0,3.52,2.79c2-.27,3.06-1.43,3-4.09a5.32,5.32,0,0,0-.07-0.93,2.5,2.5,0,0,0-.1-0.5l-6.31.76Z" transform="translate(-3.5 -9.39)"/><path class="cls-3" d="M199.58,241.21l19.63-3.61,0.79,2.2-18.75,2.73,1.67,5.91-1.7.91Z" transform="translate(-3.5 -9.39)"/><path class="cls-3" d="M213.58,257.44l-1.22.53-1.16-5.1-7.52-.2,0.22,6.48-1.24.32-1.56-8.39,20.34-1.44,1.11,7.31-2.24.68-0.16-6.06-6.83,1.07Z" transform="translate(-3.5 -9.39)"/><path class="cls-3" d="M340.31,90.41l-1.57-11.34c-0.23-1.76-.33-2.45-0.57-3.89l1.69-.07,0.43,2.09,0.16,0a4.07,4.07,0,0,1,3.65-2.77,3.51,3.51,0,0,1,3.7,2.16h0.06a4.63,4.63,0,0,1,3.7-3c1.75-.17,4.07.5,4.42,4.22a8.62,8.62,0,0,1,.05.92L356.17,89l-2.05.07-0.26-9.62c0-2.22-.85-4.15-2.92-4-1.71.16-2.55,2-2.33,4.3l1,9.77-1.59.06-1.65-9.77c-0.31-1.88-.84-3.67-2.81-3.49-1.81.17-2.71,2.39-2.4,4.3L342.82,90Z" transform="translate(-3.5 -9.39)"/><path class="cls-3" d="M358.73,81.92c-0.44-4.6,1.67-6.83,4.11-7.06,2.6-.25,4.83,1.94,5.26,6.44s-1.43,6.83-4.11,7.09-4.71-1.49-5.24-6.22Zm7.45,0.44c-0.21-2.17-1.2-6.25-3.66-6-2.08.25-2,3.11-1.82,5,0.37,3.87,2.05,5.79,3.59,5.59C366.07,86.71,366.39,84.55,366.18,82.36Z" transform="translate(-3.5 -9.39)"/><path class="cls-3" d="M377.53,73.57l1.39,9.68,0.55,3.47-1.66.38-0.45-2.39-0.1.06a3.09,3.09,0,0,1-2.65,2.58c-2.17.21-3.45-1-4.08-4.69L369.25,75l1.94-.54,1.19,7.87c0.42,2.67.92,3.63,2.41,3.49s1.83-2,2-3a7.86,7.86,0,0,0,0-1.2l-0.44-7.45Z" transform="translate(-3.5 -9.39)"/><path class="cls-3" d="M381,71.08l1.39-1.23L383,73.38l2-.71,0.66,1.71-2.66.17,1.4,8.09c0.25,1.51,1.16,1.88,1.76,1.83a3.67,3.67,0,0,0,1.06-.32L387.1,86a3.3,3.3,0,0,1-1.38.4c-2.68.26-3.21-2.15-3.39-3.75l-0.84-8-1.48.28-0.34-1,1.65-.43Z" transform="translate(-3.5 -9.39)"/><path class="cls-3" d="M397,84.31l-1.84.61V76.65c0-1.61-.56-3.42-2.44-3.28-1.44.11-2.18,1.8-2.2,3.33L390.78,85l-1.42,0L388,67l1.91-.39,0.19,7.08h0.13a4,4,0,0,1,1.1-1.34,3.32,3.32,0,0,1,1.83-.66c1.55-.12,3.51.9,3.61,4.41Z" transform="translate(-3.5 -9.39)"/><path class="cls-3" d="M399.36,71.09l2.34,0.31,1.1,6.16c0.24,1.4.57,2.82,0.89,4.16l0.11,0c0.17-1.38.51-2.93,0.8-4.21l1.53-6.72,1.75,0.06,1.38,6.2,0.94,4.08h0.08c0.18-1.16.49-2.52,0.81-4.07l1.39-6.79,1.37,0.11-2.14,13.4h-1.8l-2.25-6.57c-0.46-1.3-.75-2.37-1.05-3.41l-0.2-.09c-0.21,1.22-.39,2.35-0.59,3.67l-1,6.6-1.85.47Z" transform="translate(-3.5 -9.39)"/><path class="cls-3" d="M415.76,71.14a5.44,5.44,0,0,1,3.21-1.5c2.52-.19,3.93,1.12,4.17,4.18l0.44,5.67a20.26,20.26,0,0,0,.45,3l-1.05.49-0.66-1.83h-0.13a3.31,3.31,0,0,1-2.79,2.07c-1.85.14-3.37-1.24-3.55-3.57-0.23-3,2.2-4.73,5.45-5.36-0.34-2.32-.64-3.36-2.76-3.2a4.54,4.54,0,0,0-2.23.77Zm5.91,5.14c-0.27,0-.63,0-1,0-2.09.16-3.33,1.07-3.15,3.35a1.84,1.84,0,0,0,1.93,2,2.42,2.42,0,0,0,2.1-2.13,7,7,0,0,0,.05-0.77Z" transform="translate(-3.5 -9.39)"/><path class="cls-3" d="M426.89,68l1.37-1.24,0.65,3.52,2-.73,0.67,1.71-2.66.2,1.49,8.08c0.27,1.5,1.18,1.87,1.78,1.81a3.67,3.67,0,0,0,1.06-.33l-0.08,1.81a3.3,3.3,0,0,1-1.38.42c-2.68.28-3.23-2.12-3.43-3.71l-0.93-7.95-1.47.29-0.36-1,1.65-.45Z" transform="translate(-3.5 -9.39)"/><path class="cls-3" d="M442.61,81.19a6.33,6.33,0,0,1-2.54.78c-4.18.52-5.8-3-6.18-6-0.48-3.86.69-7.19,3.58-7.55l0.35,0c2.92-.12,4,2.27,4.36,5.08,0.07,0.57.09,0.92,0.12,1.63l-6.87.28c0.41,4.2,2.41,4.8,4.08,4.76l0.41,0a4.19,4.19,0,0,0,1.91-.7Zm-2.41-7.7c-0.31-2.46-1.31-3.89-2.71-3.72-1.59.2-2,2.28-1.92,4.16Z" transform="translate(-3.5 -9.39)"/><path class="cls-3" d="M445.52,81.07l-1.08-9.74a19.71,19.71,0,0,0-.72-3.36l1.23-.45,0.84,2.31,0.08,0c0-.31.44-3.07,2.73-3.36l0.73,2.29a6.17,6.17,0,0,0-.7.11c-1.39.26-2.72,2-2.17,4.77l1.18,6.82Z" transform="translate(-3.5 -9.39)"/><path class="cls-3" d="M450,63.41a1.19,1.19,0,0,1,1-1.47,1.37,1.37,0,0,1,1.47,1.27,1.18,1.18,0,0,1-.92,1.38A1.32,1.32,0,0,1,450,63.41Zm4.8,16.07-2.13.49-1.8-13.13,1.58,0.11Z" transform="translate(-3.5 -9.39)"/><path class="cls-3" d="M457.55,79.24c-0.33-4.84-.62-10.26-1.15-13l1.22,0.09,0.26,1.42h0.05a3.48,3.48,0,0,1,2.92-2.28c1.57-.2,3.5.58,3.86,3.49a6,6,0,0,1,.06.68l0.33,8.76-1.61,0L463,70.26c-0.11-1.74-.8-3.35-2.53-3.14-1.48.19-2.2,1.92-2,3.78l1.25,8.26Z" transform="translate(-3.5 -9.39)"/><path class="cls-3" d="M475.18,63.91c0,0.44.06,0.92,0.14,1.57s0.2,1.4.41,2.42l1.53,7.24a13.58,13.58,0,0,1,.23,1.42c0.48,3.83-1.06,5.81-4.41,6.22a7.7,7.7,0,0,1-3.49-.52l0.63-1.09a5.3,5.3,0,0,0,2.61.3c1.75-.22,2.83-1.48,2.44-4.64l-0.18-1.46h-0.05a3,3,0,0,1-2.59,2.1c-2.4.3-4.42-2.05-4.91-5.94-0.6-4.81,1.47-7.09,3.52-7.35A3,3,0,0,1,474,65.64h0.05l-0.58-1.77Zm-1.13,4.39c-0.28-1.34-1.4-3.06-3-2.86-1.48.19-2.13,1.86-1.82,4.31,0.37,2.94,1.76,6,3.95,5.7,1.46-.18,1.89-1.77,1.53-3.56Z" transform="translate(-3.5 -9.39)"/><path class="cls-3" d="M270.52,331.42l-2.52,0-1-11.16-7.94-15.12,2.29,0.31,7.9,11.63h0.09l2.37-12.18,4.35-1.09-5.9,16Z" transform="translate(-3.5 -9.39)"/><path class="cls-3" d="M289.31,307L289,320.65c-0.1,5-2.51,7.51-6.06,7.51-3.38,0-5.73-1.95-5.86-7.2l-0.34-13,1.74-.4L279.76,321c0.37,4,1.88,5.35,3.88,5.35s3.45-1.28,3.45-4.47a8,8,0,0,0,0-.88l-0.91-13.13Z" transform="translate(-3.5 -9.39)"/><path class="cls-3" d="M308,329.76l-1.14-16.9h-0.13l-5.23,17.39-1.51-.52L295,313h-0.1l-0.5,17.45-2.68-.7,1.78-20,2.61-.52,4.59,17.05H301l4.05-16.05,3.75-.76L309.49,330Z" transform="translate(-3.5 -9.39)"/><path class="cls-3" d="M338.65,203.62l-3.88-9.51c-0.59-1.48-.83-2.06-1.37-3.25l2.26-.68,0.9,1.7,0.22-.07c0.39-1.42,1.9-2.93,4.47-3.81,2-.69,4-0.65,5.31.56l0.09,0a7.5,7.5,0,0,1,4.49-4.06c2.32-.79,5.54-1.05,6.59,2.13a5.34,5.34,0,0,1,.22.8l1.78,9.09-2.74.82-1.86-8.46c-0.41-2-1.79-3.38-4.54-2.44a3.55,3.55,0,0,0-2.46,4.68l2.86,8.32-2.13.64L345.11,192c-0.71-1.56-1.7-3-4.32-2.06-2.41.82-3.27,3.13-2.55,4.71l3.71,7.7Z" transform="translate(-3.5 -9.39)"/><path class="cls-3" d="M367.55,194.81l-2.07-8.69c-0.31-1.35-.44-1.88-0.74-3l2-.29,0.55,1.58,0.19,0c0.51-1.17,2-2.26,4.29-2.68,1.8-.32,3.48,0,4.44,1.19h0.08a6.41,6.41,0,0,1,4.34-2.89c2.07-.37,4.84-0.17,5.33,2.71a4.7,4.7,0,0,1,.08.71l0.34,8-2.44.34-0.49-7.51c-0.1-1.74-1.09-3.14-3.55-2.7a3.07,3.07,0,0,0-2.69,3.7l1.36,7.53-1.89.26-2.14-7.44c-0.4-1.43-1.07-2.77-3.41-2.35a3.14,3.14,0,0,0-2.77,3.71l2.16,7.11Z" transform="translate(-3.5 -9.39)"/><path class="cls-3" d="M393.67,189.59l-1.16-8c-0.17-1.24-.24-1.73-0.43-2.75l2-.1,0.37,1.48,0.19,0c0.6-1,2.12-1.89,4.37-2.08,1.76-.15,3.33.26,4.13,1.43h0.08a6.37,6.37,0,0,1,4.43-2.26c2-.17,4.65.24,4.84,2.88a4,4,0,0,1,0,.65l-0.44,7.3-2.36.11,0.25-6.83c0.07-1.58-.74-2.93-3.14-2.73a2.88,2.88,0,0,0-2.93,3.13l0.59,6.92-1.84.09-1.34-6.9c-0.25-1.33-.76-2.59-3-2.4-2.1.18-3.26,1.78-3,3.13l1.39,6.6Z" transform="translate(-3.5 -9.39)"/><path class="cls-3" d="M420.26,187.22l-1.22-8c-0.18-1.24-.26-1.73-0.45-2.75l1.95-.12,0.39,1.47,0.19,0c0.59-1,2.1-1.91,4.35-2.12,1.76-.16,3.33.23,4.15,1.39h0.07a6.38,6.38,0,0,1,4.41-2.3c2-.19,4.65.19,4.87,2.83a3.9,3.9,0,0,1,0,.65l-0.38,7.3-2.36.13,0.19-6.83c0.06-1.58-.77-2.92-3.16-2.7a2.89,2.89,0,0,0-2.91,3.15l0.64,6.91-1.84.1-1.39-6.89c-0.26-1.33-.78-2.58-3.06-2.37-2.09.2-3.24,1.81-3,3.16l1.45,6.59Z" transform="translate(-3.5 -9.39)"/><path class="cls-3" d="M446.1,185.63l0-8.6c0-1.33,0-1.86,0-3l2,0.2,0.16,1.61h0.19c0.77-1,2.46-1.65,4.79-1.51,1.83,0.12,3.38.79,4,2.14h0.08a6.49,6.49,0,0,1,4.88-1.69c2.1,0.13,4.73,1,4.53,3.77a4.24,4.24,0,0,1-.09.69l-1.55,7.6-2.44-.25L464,179.5c0.31-1.65-.32-3.19-2.81-3.35a3,3,0,0,0-3.47,2.83l-0.44,7.36-1.9-.19L455,178.69c-0.06-1.43-.39-2.84-2.76-3-2.17-.14-3.61,1.37-3.55,2.82l0.44,7.15Z" transform="translate(-3.5 -9.39)"/><path class="cls-3" d="M473.45,187.76l-0.1-8.3c0-1.29,0-1.79-.07-2.85l2,0.16,0.18,1.55h0.19c0.73-1,2.36-1.63,4.62-1.52,1.77,0.09,3.28.71,3.93,2h0.07a6.31,6.31,0,0,1,4.7-1.7c2,0.1,4.6.87,4.45,3.58a4.08,4.08,0,0,1-.07.66l-1.39,7.35-2.37-.21,1.14-6.9c0.28-1.6-.36-3.07-2.77-3.19a2.91,2.91,0,0,0-3.33,2.78l-0.32,7.11-1.84-.16L482,180.94c-0.07-1.38-.42-2.73-2.71-2.85-2.11-.1-3.47,1.37-3.4,2.77l0.52,6.9h-2.95Z" transform="translate(-3.5 -9.39)"/><path class="cls-3" d="M366.23,298.17l-9.87-69.94-8.74,3.29-2.44-8.41,29-4-0.56,4.3L364,226.07l6,72.57Z" transform="translate(-3.5 -9.39)"/><path class="cls-3" d="M400.23,267.19l-14.51.22-5.65,20.88-4.89,1.11,11.54-66.73,6,1.33,20,62.84-8.82,1.37Zm-13.83-3.41,12.37-1.91-4.87-17.56c-1.23-4.56-2.48-9.4-3.53-14.07l-0.61.43Z" transform="translate(-3.5 -9.39)"/><path class="cls-3" d="M418.54,285.48c2.11,1.68,5.23,3.16,8.14,2.93,6.06-.47,9.1-7.15,8.53-14.47-0.59-7.55-4.34-12-9-16.9-5.88-6.33-11.45-9.8-12.36-21.46s4.19-20.34,12.61-21c3.54-.28,6.62.63,8.14,1.89l-0.87,8.12a10,10,0,0,0-7.06-2.21c-5.74.45-8.24,5.94-7.81,11.42,0.63,8.12,4.26,12,9.76,15.46,6.51,4.32,12,9.3,12.88,21,1,12.92-5.59,22.64-14.4,23.33a15,15,0,0,1-10.24-3.46Z" transform="translate(-3.5 -9.39)"/><path class="cls-3" d="M452.08,292.58l1.73-68-8.87,1.73L444,218l28.37,0.8-1.22,4-9.64,1-5.83,69.85Z" transform="translate(-3.5 -9.39)"/><path class="cls-3" d="M487.29,294.47l-4.68-1.25,2.92-30.83-8.34-44.77,4.14,1.87,9.75,35.26h0.16l9.61-32.08,8.57-1-17.8,40.83Z" transform="translate(-3.5 -9.39)"/></svg>