<svg id="pig" xmlns="http://www.w3.org/2000/svg" viewBox="0 0 1251.93 1333.43"><defs><style>.cls-1{fill:none;stroke-miterlimit:10;stroke-width:3px;}.cls-1,.cls-3{stroke:#fff;}.cls-2,.cls-3,.cls-4,.cls-5{fill:#fff;}.cls-4{font-size:119.55px;}.cls-4,.cls-5{font-family:Vast Shadow;}.cls-5{font-size:110.17px;}</style></defs><title>pigandlogo</title><path class="cls-1" d="M370.37,313.23a0.74,0.74,0,0,0,.12-0.72c-1.29-3.46-11.62-28.91-41.32-45.83a0.75,0.75,0,0,0-1.12.59c-0.27,3.69-2.88,14.28-7.46,22.23-10.68,18.55-14.14,32.38-8.86,57.18,0.11,0.52.48-.37,0.92-0.67,3.66-2.57,19.79-11.72,40.79-11.72" transform="translate(0 1.97)"/><path class="cls-1" d="M428,339.59c41.4-35,107.38-17.71,107.38-17.71,73.95,9.3,231.58-9.3,231.58-9.3,115.61-9.5,168.12,48.76,178.41,61.77,1.18,1.49,14.48.58,23.78-1.77" transform="translate(0 1.97)"/><path class="cls-1" d="M594.74,594.49s108.42,33.36,230.63-2.95c0,0,34.1,22.14,0,88.12,0,0-4.76,14.94-14.17,20.26,0,0,0,6,37.32,3a4.36,4.36,0,0,0,3.6-2.5l7.79-16.76s13.73-17.71,38.52-34.54c0,0,138.15-101.4,63.76-254.16,0,0-3.93-7.83,13.86-15.78,0.29-.13.56-0.32,0.85-0.43,2.8-1.05,18.23-7,21.79-11.46,10.16-12.68,1.69-25.35-2.66-28.81-9.36-7.45-28.86-6.41-35.1,5-6.39,11.66,1.52,22,8.17,29.15A48.82,48.82,0,0,0,988,361.71a14.54,14.54,0,0,0,2.87-6.77,12.25,12.25,0,0,0-3.17-8.76c-3-3-11-3.5-14.28-.21-1.95,2-2.37,6.92-2.22,9.68,0.5,8.8,5.2,13.51,5.2,13.51" transform="translate(0 1.97)"/><path class="cls-1" d="M404.27,401.59h0c31.62-26.12,27.31-51.84,22.67-69.52-10.09-38.46-1.2-52.95-.09-54.35a0.07,0.07,0,0,0-.06-0.11c-20.18.51-29.42,14.29-38.46,21.91-6.2,5.23-12.21,9.84-18.18,14-0.07,0-12.37,8.87-17,20.77" transform="translate(0 1.97)"/><path class="cls-1" d="M317.48,511.4C289.15,535.75,279.85,538,279.85,538c-64.65-1.77-60.66-80.15-60.66-80.15,3.57-6.35,18.9,1.18,22,2.8a0.81,0.81,0,0,0,1-.19l2.21-2.53a2.37,2.37,0,0,1,1.14-.71c24.25-6.82,31.2-26.38,31.2-26.38-2.66-95.64,76.38-96.53,76.38-96.53-13.95,29.22,1.55,63.32,1.55,63.32h0" transform="translate(0 1.97)"/><path class="cls-1" d="M493.31,657c4.29-10.07,5.28-45.53,5.28-45.53-0.41-7-4.07-14.76-7.88-21.06-0.53-.88-1.06-1.72-1.59-2.54l-0.71-1.08a101,101,0,0,0-6.65-9c-32.21-15.94-33.6-16.61-43.84-23.71-32.38-22.46-50-10.9-65.53-5.51-51.83,18-68.92,5.21-72.65,1.34a1.54,1.54,0,0,1-.15-2c3.68-5.28,20-30.65,17.9-36.58" transform="translate(0 1.97)"/><path class="cls-1" d="M497.83,691.92s-8.65,4.59,44.34,2a0.66,0.66,0,0,0,.63-0.71c-0.25-2.52-1-11.51,0-17.57a3,3,0,0,1,.21-0.7c1.36-3.16,12.26-27.46,30-44,0,0,0,0,0,0,1-1.31,22.15-25.79,26.53-49.93,0-.11,5.92-33.54-20.81-63.79h0" transform="translate(0 1.97)"/><path class="cls-1" d="M309.77,444c-0.29.59-.08,0.14-0.08,0.14s11.2-21,32.64-10.38l0.4,0.2h0" transform="translate(0 1.97)"/><path class="cls-1" d="M498.45,610s16,24.1,14.65,51.57a63,63,0,0,1-.78,7.28s4.84,9.41,30.09,10.24" transform="translate(0 1.97)"/><path class="cls-1" d="M513.1,661.54c-13.16-.19-18.94-5.34-18.94-5.34s-0.94,6.39-8.78,15.47a0.48,0.48,0,0,0,0,.62c0.83,1,4.64,3.74,21.07,2.51" transform="translate(0 1.97)"/><path class="cls-1" d="M497.83,691.92" transform="translate(0 1.97)"/><path class="cls-1" d="M512.31,668.81" transform="translate(0 1.97)"/><path class="cls-1" d="M808.45,543.45a182.18,182.18,0,0,0,16.92,48.1" transform="translate(0 1.97)"/><path class="cls-1" d="M894.33,652.1C890,673.58,885,676.45,885,676.45c1.88,6.58-.56,10.17-2.15,11.7a4,4,0,0,1-2.27,1.07c-18,2.32-22.17-2.42-22.17-2.42-22.61,2-33.07-7.14-33.07-7.14s-8.86,11.79-20.37,12.68c0,0-1.55,1.38,8.91,4.26" transform="translate(0 1.97)"/><path class="cls-1" d="M866.76,675.88s2.34,4.22,18.28.57" transform="translate(0 1.97)"/><path class="cls-1" d="M491.34,667.48" transform="translate(0 1.97)"/><path class="cls-1" d="M497.83,691.92s2.69-1.41,6.75-6.32l0.51-.64,0.64-.83c2.82-3.76,6.2-9,6.58-15.32,0,0-9.44,12.41-18.15,12.74" transform="translate(0 1.97)"/><path class="cls-1" d="M494.16,681.56c-0.19-.27,1,4.46,9.39,5.24" transform="translate(0 1.97)"/><path class="cls-1" d="M494.16,656.19S486.91,663.28,482,665a0.24,0.24,0,0,0-.11.39c0.45,0.53,1.89,1.7,6.16,2.41" transform="translate(0 1.97)"/><path class="cls-1" d="M297.2,491.23c-0.25-1.92-.19-1-0.19-1s3.76,28.12,48.26,24.69h0" transform="translate(0 1.97)"/><path class="cls-1" d="M491.51,591.77c-9-14.45-7.81-26.69-7.81-35.87h0" transform="translate(0 1.97)"/><path class="cls-1" d="M975.61,379.45c-1.26.54,14.06,9.75,24.92,3.76,2.41-1.33-17.68-2.43-17.64-6.88" transform="translate(0 1.97)"/><path class="cls-2" d="M356.12,436.84s3.64-.46,6,0.57" transform="translate(0 1.97)"/><path class="cls-2" d="M356.12,437.46A12.15,12.15,0,0,1,362,438c0.75,0.3,1.07-.91.33-1.21a12.92,12.92,0,0,0-6.19-.59c-0.79.1-.8,1.35,0,1.25h0Z" transform="translate(0 1.97)"/><path class="cls-2" d="M371.89,440.77s5.36,2.18,7.27,3.71" transform="translate(0 1.97)"/><path class="cls-2" d="M371.72,441.38a31.08,31.08,0,0,1,7.12,3.65c0.64,0.49,1.26-.6.63-1.08a32.34,32.34,0,0,0-7.42-3.77c-0.74-.3-1.07.9-0.33,1.21h0Z" transform="translate(0 1.97)"/><path class="cls-2" d="M387.06,449.3a89.93,89.93,0,0,1,6.77,6.19" transform="translate(0 1.97)"/><path class="cls-2" d="M386.62,449.74a78.26,78.26,0,0,1,6.77,6.19,0.63,0.63,0,0,0,.88-0.88,78.26,78.26,0,0,0-6.77-6.19c-0.62-.51-1.51.37-0.88,0.88h0Z" transform="translate(0 1.97)"/><path class="cls-2" d="M400.21,461.73a53.63,53.63,0,0,1,5.23,6.7" transform="translate(0 1.97)"/><path class="cls-2" d="M399.77,462.17a39.41,39.41,0,0,1,5.13,6.58,0.63,0.63,0,0,0,1.08-.63,41,41,0,0,0-5.32-6.83c-0.54-.6-1.42.29-0.88,0.88h0Z" transform="translate(0 1.97)"/><path class="cls-2" d="M410.44,477a44.45,44.45,0,0,1,3.41,6.7" transform="translate(0 1.97)"/><path class="cls-2" d="M409.9,477.27a36.39,36.39,0,0,1,3.35,6.56c0.27,0.75,1.48.43,1.21-.33a37.91,37.91,0,0,0-3.47-6.85,0.63,0.63,0,0,0-1.08.63h0Z" transform="translate(0 1.97)"/><path class="cls-2" d="M416.46,494.45a37.53,37.53,0,0,1,.57,7" transform="translate(0 1.97)"/><path class="cls-2" d="M415.86,494.62a34,34,0,0,1,.55,6.88,0.63,0.63,0,0,0,1.25,0,35.67,35.67,0,0,0-.59-7.21c-0.15-.79-1.35-0.46-1.21.33h0Z" transform="translate(0 1.97)"/><path class="cls-2" d="M417.71,510.93a31.74,31.74,0,0,1,0,6.93" transform="translate(0 1.97)"/><path class="cls-2" d="M417.08,510.93a27.6,27.6,0,0,1,0,6.77c-0.11.79,1.1,1.13,1.21,0.33a28.79,28.79,0,0,0,0-7.1c-0.09-.79-1.34-0.8-1.25,0h0Z" transform="translate(0 1.97)"/><path class="cls-2" d="M416.3,526.87a37.46,37.46,0,0,1-1.48,4.74" transform="translate(0 1.97)"/><path class="cls-2" d="M415.7,526.71a30,30,0,0,1-1.42,4.59c-0.31.73,0.77,1.37,1.08,0.63A31.85,31.85,0,0,0,416.9,527a0.63,0.63,0,0,0-1.21-.33h0Z" transform="translate(0 1.97)"/><path class="cls-2" d="M431.06,387.32a67.73,67.73,0,0,1,5.83,6.33c0.48,0.63,1.57,0,1.08-.63a70.09,70.09,0,0,0-6-6.59,0.63,0.63,0,0,0-.88.88h0Z" transform="translate(0 1.97)"/><path class="cls-2" d="M441.81,399.47l5.59,9.41a0.63,0.63,0,0,0,1.08-.63l-5.59-9.41a0.63,0.63,0,0,0-1.08.63h0Z" transform="translate(0 1.97)"/><path class="cls-2" d="M451.77,415.33l4,7.88c0.36,0.72,1.44.09,1.08-.63l-4-7.88c-0.36-.72-1.44-0.09-1.08.63h0Z" transform="translate(0 1.97)"/><path class="cls-2" d="M459.53,431.32l3.59,8.44c0.31,0.74,1.39.1,1.08-.63l-3.59-8.44c-0.31-.74-1.39-0.1-1.08.63h0Z" transform="translate(0 1.97)"/><path class="cls-2" d="M465.55,446.92l2.6,9.07a0.63,0.63,0,0,0,1.21-.33l-2.6-9.07a0.63,0.63,0,0,0-1.21.33h0Z" transform="translate(0 1.97)"/><path class="cls-2" d="M470.34,464.66l2.13,9a0.63,0.63,0,0,0,1.21-.33l-2.13-9a0.63,0.63,0,0,0-1.21.33h0Z" transform="translate(0 1.97)"/><path class="cls-2" d="M474.13,481.84l1.72,9.24c0.15,0.79,1.35.46,1.21-.33l-1.72-9.24c-0.15-.79-1.35-0.46-1.21.33h0Z" transform="translate(0 1.97)"/><path class="cls-2" d="M476.76,498.67l1,8.91c0.09,0.79,1.34.8,1.25,0l-1-8.91c-0.09-.79-1.34-0.8-1.25,0h0Z" transform="translate(0 1.97)"/><path class="cls-2" d="M482.66,548.43v-5.65a0.63,0.63,0,0,0-1.25,0v5.65a0.63,0.63,0,0,0,1.25,0h0Z" transform="translate(0 1.97)"/><path class="cls-2" d="M482.66,530.66v-5.48a0.63,0.63,0,0,0-1.25,0v5.48a0.63,0.63,0,0,0,1.25,0h0Z" transform="translate(0 1.97)"/><path class="cls-2" d="M485.3,514.56l1.83-5.65a0.63,0.63,0,0,0-1.21-.33l-1.83,5.65a0.63,0.63,0,0,0,1.21.33h0Z" transform="translate(0 1.97)"/><path class="cls-2" d="M490.11,498.64l2.44-6.45c0.28-.75-0.92-1.08-1.21-0.33l-2.44,6.45c-0.28.75,0.92,1.08,1.21,0.33h0Z" transform="translate(0 1.97)"/><path class="cls-2" d="M496.54,485.16l5.5-6.45c0.52-.61-0.36-1.5-0.88-0.88l-5.5,6.45c-0.52.61,0.36,1.5,0.88,0.88h0Z" transform="translate(0 1.97)"/><path class="cls-2" d="M508.05,472.82l4.7-4.17c0.6-.53-0.28-1.42-0.88-0.88l-4.7,4.17c-0.6.53,0.28,1.42,0.88,0.88h0Z" transform="translate(0 1.97)"/><path class="cls-2" d="M519.88,464l8.41-6.25c0.64-.47,0-1.56-0.63-1.08l-8.41,6.25c-0.64.47,0,1.56,0.63,1.08h0Z" transform="translate(0 1.97)"/><path class="cls-2" d="M534.73,460.73l4.79,4.79a0.63,0.63,0,0,0,.88-0.88l-4.79-4.79a0.63,0.63,0,0,0-.88.88h0Z" transform="translate(0 1.97)"/><path class="cls-2" d="M543.43,470.12l4.82,7.15c0.45,0.66,1.53,0,1.08-.63l-4.82-7.15c-0.45-.66-1.53,0-1.08.63h0Z" transform="translate(0 1.97)"/><path class="cls-2" d="M553.56,485.81l4.65,7.31a0.63,0.63,0,0,0,1.08-.63l-4.65-7.31a0.63,0.63,0,0,0-1.08.63h0Z" transform="translate(0 1.97)"/><path class="cls-2" d="M563.36,500.92l3,5.48a0.63,0.63,0,0,0,1.08-.63l-3-5.48a0.63,0.63,0,0,0-1.08.63h0Z" transform="translate(0 1.97)"/><path class="cls-2" d="M535.4,329.24l2.82,7c0.3,0.74,1.51.41,1.21-.33l-2.82-7c-0.3-.74-1.51-0.41-1.21.33h0Z" transform="translate(0 1.97)"/><path class="cls-2" d="M540.22,345.88l2.32,6.11c0.28,0.74,1.49.42,1.21-.33l-2.32-6.11c-0.28-.74-1.49-0.42-1.21.33h0Z" transform="translate(0 1.97)"/><path class="cls-2" d="M543.68,359.3l1,8.8c0.09,0.79,1.34.8,1.25,0l-1-8.8c-0.09-.79-1.34-0.8-1.25,0h0Z" transform="translate(0 1.97)"/><path class="cls-2" d="M545.78,375.24L547,384c0.11,0.79,1.31.46,1.21-.33L547,374.91c-0.11-.79-1.31-0.46-1.21.33h0Z" transform="translate(0 1.97)"/><path class="cls-2" d="M547.06,391.73l-0.76,7.42c-0.08.8,1.17,0.79,1.25,0l0.76-7.42c0.08-.8-1.17-0.79-1.25,0h0Z" transform="translate(0 1.97)"/><path class="cls-2" d="M545.56,406.73l-0.89,8.52c-0.08.8,1.17,0.79,1.25,0l0.89-8.52c0.08-.8-1.17-0.79-1.25,0h0Z" transform="translate(0 1.97)"/><path class="cls-2" d="M543.12,423.73l-1.8,8.41c-0.17.78,1,1.12,1.21,0.33l1.8-8.41c0.17-.78-1-1.12-1.21-0.33h0Z" transform="translate(0 1.97)"/><path class="cls-2" d="M539.12,439.35l-3.65,8c-0.33.73,0.74,1.36,1.08,0.63l3.65-8c0.33-.73-0.74-1.36-1.08-0.63h0Z" transform="translate(0 1.97)"/><path class="cls-2" d="M547.62,458.55l-8.48-4.15c-0.72-.35-1.35.73-0.63,1.08l8.48,4.15c0.72,0.35,1.35-.73.63-1.08h0Z" transform="translate(0 1.97)"/><path class="cls-2" d="M553.61,459.22l9-.66c0.8-.06.8-1.31,0-1.25l-9,.66c-0.8.06-.8,1.31,0,1.25h0Z" transform="translate(0 1.97)"/><path class="cls-2" d="M571.37,458.06l8.55-.53c0.8,0,.8-1.3,0-1.25l-8.55.53c-0.8,0-.8,1.3,0,1.25h0Z" transform="translate(0 1.97)"/><path class="cls-2" d="M589.61,456.6l7.83-1c0.79-.1.8-1.35,0-1.25l-7.83,1c-0.79.1-.8,1.35,0,1.25h0Z" transform="translate(0 1.97)"/><path class="cls-2" d="M606.78,454.9l7.85-.25a0.63,0.63,0,0,0,0-1.25l-7.85.25a0.63,0.63,0,0,0,0,1.25h0Z" transform="translate(0 1.97)"/><path class="cls-2" d="M624.25,453.72l7.64-.69c0.79-.07.8-1.32,0-1.25l-7.64.69c-0.79.07-.8,1.32,0,1.25h0Z" transform="translate(0 1.97)"/><path class="cls-2" d="M641.32,452.45l7.6-.52c0.8-.05.8-1.3,0-1.25l-7.6.52c-0.8.05-.8,1.3,0,1.25h0Z" transform="translate(0 1.97)"/><path class="cls-2" d="M658.88,450.71l7.64-.62c0.8-.06.8-1.32,0-1.25l-7.64.62c-0.8.06-.8,1.32,0,1.25h0Z" transform="translate(0 1.97)"/><path class="cls-2" d="M677,449.09l7-.42c0.8,0,.8-1.3,0-1.25l-7,.42c-0.8,0-.8,1.3,0,1.25h0Z" transform="translate(0 1.97)"/><path class="cls-2" d="M695.14,447.57l7.7-1.33c0.79-.14.46-1.34-0.33-1.21l-7.7,1.33c-0.79.14-.46,1.34,0.33,1.21h0Z" transform="translate(0 1.97)"/><path class="cls-2" d="M711.77,445l8.3-1.54c0.79-.15.46-1.35-0.33-1.21l-8.3,1.54c-0.79.15-.46,1.35,0.33,1.21h0Z" transform="translate(0 1.97)"/><path class="cls-2" d="M728.58,442.14l8.93-1.49c0.79-.13.46-1.34-0.33-1.21l-8.93,1.49c-0.79.13-.46,1.34,0.33,1.21h0Z" transform="translate(0 1.97)"/><path class="cls-2" d="M745.56,439.56l7.93-1.41c0.79-.14.46-1.35-0.33-1.21l-7.93,1.41c-0.79.14-.46,1.35,0.33,1.21h0Z" transform="translate(0 1.97)"/><path class="cls-2" d="M761.83,436.7l8.47-1.58c0.79-.15.46-1.35-0.33-1.21l-8.47,1.58c-0.79.15-.46,1.35,0.33,1.21h0Z" transform="translate(0 1.97)"/><path class="cls-2" d="M778.1,433.63l9.46-1.81c0.79-.15.46-1.36-0.33-1.21l-9.46,1.81c-0.79.15-.46,1.36,0.33,1.21h0Z" transform="translate(0 1.97)"/><path class="cls-2" d="M572.85,508.12l5.65-2.49c0.73-.32.1-1.4-0.63-1.08L572.22,507c-0.73.32-.1,1.4,0.63,1.08h0Z" transform="translate(0 1.97)"/><path class="cls-2" d="M583.66,503.87l9.71-3.28c0.76-.26.43-1.46-0.33-1.21l-9.71,3.28c-0.76.26-.43,1.46,0.33,1.21h0Z" transform="translate(0 1.97)"/><path class="cls-2" d="M599,498.22l9.46-4c0.74-.32.1-1.39-0.63-1.08l-9.46,4c-0.74.32-.1,1.39,0.63,1.08h0Z" transform="translate(0 1.97)"/><path class="cls-2" d="M614,491.91l10-3a0.63,0.63,0,0,0-.33-1.21l-10,3a0.63,0.63,0,0,0,.33,1.21h0Z" transform="translate(0 1.97)"/><path class="cls-2" d="M629.49,487.3l10.79-3a0.63,0.63,0,0,0-.33-1.21l-10.79,3a0.63,0.63,0,0,0,.33,1.21h0Z" transform="translate(0 1.97)"/><path class="cls-2" d="M645.43,483.19l9.42-2c0.79-.17.45-1.37-0.33-1.21l-9.42,2c-0.79.17-.45,1.37,0.33,1.21h0Z" transform="translate(0 1.97)"/><path class="cls-2" d="M661.37,480.2l8.14-1.12c0.79-.11.46-1.31-0.33-1.21L661,479c-0.79.11-.46,1.31,0.33,1.21h0Z" transform="translate(0 1.97)"/><path class="cls-2" d="M675.32,478.65l10.43-1.2c0.79-.09.8-1.34,0-1.25l-10.43,1.2c-0.79.09-.8,1.34,0,1.25h0Z" transform="translate(0 1.97)"/><path class="cls-2" d="M692.59,477c3.53,0,7.06-.21,10.59-0.33a0.63,0.63,0,0,0,0-1.25c-3.53.12-7.06,0.3-10.59,0.33a0.63,0.63,0,0,0,0,1.25h0Z" transform="translate(0 1.97)"/><path class="cls-2" d="M711,476.66h9.46a0.63,0.63,0,0,0,0-1.25H711a0.63,0.63,0,0,0,0,1.25h0Z" transform="translate(0 1.97)"/><path class="cls-2" d="M728.62,476.66c2.84,0.18,5.68.48,8.51,0.79,0.8,0.09.79-1.16,0-1.25-2.83-.31-5.67-0.61-8.51-0.79-0.8-.05-0.8,1.2,0,1.25h0Z" transform="translate(0 1.97)"/><path class="cls-2" d="M744,478.32l11.08,1c0.8,0.08.8-1.18,0-1.25l-11.08-1c-0.8-.08-0.8,1.18,0,1.25h0Z" transform="translate(0 1.97)"/><path class="cls-2" d="M760.21,479.89l9.3,0.83c0.8,0.07.8-1.18,0-1.25l-9.3-.83c-0.8-.07-0.8,1.18,0,1.25h0Z" transform="translate(0 1.97)"/><path class="cls-2" d="M775.32,481.24l10.17,1.41c0.79,0.11,1.13-1.1.33-1.21L775.65,480c-0.79-.11-1.13,1.1-0.33,1.21h0Z" transform="translate(0 1.97)"/><path class="cls-2" d="M807.87,536.47l-0.79-8.63c-0.07-.79-1.32-0.8-1.25,0l0.79,8.63c0.07,0.79,1.32.8,1.25,0h0Z" transform="translate(0 1.97)"/><path class="cls-2" d="M806.6,521.94l-0.85-11c-0.06-.8-1.31-0.8-1.25,0l0.85,11c0.06,0.8,1.31.8,1.25,0h0Z" transform="translate(0 1.97)"/><path class="cls-2" d="M805.3,505.09v-8.22a0.63,0.63,0,0,0-1.25,0v8.22a0.63,0.63,0,0,0,1.25,0h0Z" transform="translate(0 1.97)"/><path class="cls-2" d="M804.84,490.19l-0.58-9.55c0-.8-1.3-0.8-1.25,0l0.58,9.55c0,0.8,1.3.8,1.25,0h0Z" transform="translate(0 1.97)"/><path class="cls-2" d="M792.05,483.44l5.65,0.83c0.79,0.12,1.13-1.09.33-1.21l-5.65-.83c-0.79-.12-1.13,1.09-0.33,1.21h0Z" transform="translate(0 1.97)"/><path class="cls-2" d="M803.47,472.67l-0.33-10.34a0.63,0.63,0,0,0-1.25,0l0.33,10.34a0.63,0.63,0,0,0,1.25,0h0Z" transform="translate(0 1.97)"/><path class="cls-2" d="M802.56,455.52l-0.25-8.76a0.63,0.63,0,0,0-1.25,0l0.25,8.76a0.63,0.63,0,0,0,1.25,0h0Z" transform="translate(0 1.97)"/><path class="cls-2" d="M794.58,430.8l2.82-.51c0.79-.14.46-1.35-0.33-1.21l-2.82.51c-0.79.14-.46,1.35,0.33,1.21h0Z" transform="translate(0 1.97)"/><path class="cls-2" d="M803.05,438.5l0.79-8.3c0.08-.8-1.17-0.8-1.25,0l-0.79,8.3c-0.08.8,1.17,0.8,1.25,0h0Z" transform="translate(0 1.97)"/><path class="cls-2" d="M804.28,421.48l1.62-9.09c0.14-.79-1.06-1.12-1.21-0.33l-1.62,9.09c-0.14.79,1.06,1.12,1.21,0.33h0Z" transform="translate(0 1.97)"/><path class="cls-2" d="M807.43,403.14l1.49-7.8c0.15-.79-1.05-1.12-1.21-0.33l-1.49,7.8c-0.15.79,1.05,1.12,1.21,0.33h0Z" transform="translate(0 1.97)"/><path class="cls-2" d="M810.79,387.65l2.45-8.93a0.63,0.63,0,0,0-1.21-.33l-2.45,8.93a0.63,0.63,0,0,0,1.21.33h0Z" transform="translate(0 1.97)"/><path class="cls-2" d="M816.23,368.76l2.49-8a0.63,0.63,0,0,0-1.21-.33l-2.49,8a0.63,0.63,0,0,0,1.21.33h0Z" transform="translate(0 1.97)"/><path class="cls-2" d="M820.88,354.15l3.11-7.76c0.3-.75-0.91-1.07-1.21-0.33l-3.11,7.76c-0.3.75,0.91,1.07,1.21,0.33h0Z" transform="translate(0 1.97)"/><path class="cls-2" d="M827.42,337.17l3-6.7c0.33-.73-0.75-1.36-1.08-0.63l-3,6.7c-0.33.73,0.75,1.36,1.08,0.63h0Z" transform="translate(0 1.97)"/><path class="cls-2" d="M814.45,367l-5.81-2.82c-0.72-.35-1.36.73-0.63,1.08l5.81,2.82c0.72,0.35,1.36-.73.63-1.08h0Z" transform="translate(0 1.97)"/><path class="cls-2" d="M803.28,361.19l-7.69-3.38c-0.73-.32-1.37.76-0.63,1.08l7.69,3.38c0.73,0.32,1.37-.76.63-1.08h0Z" transform="translate(0 1.97)"/><path class="cls-2" d="M789.28,356.29l-8.14-1.83a0.63,0.63,0,0,0-.33,1.21l8.14,1.83a0.63,0.63,0,0,0,.33-1.21h0Z" transform="translate(0 1.97)"/><path class="cls-2" d="M774,353.52l-8.47-.5c-0.8,0-.8,1.2,0,1.25l8.47,0.5c0.8,0,.8-1.2,0-1.25h0Z" transform="translate(0 1.97)"/><path class="cls-2" d="M758.3,353.27l-8.48.86c-0.79.08-.8,1.33,0,1.25l8.48-.86c0.79-.08.8-1.33,0-1.25h0Z" transform="translate(0 1.97)"/><path class="cls-2" d="M743.51,354.8l-8.91.84c-0.79.08-.8,1.33,0,1.25l8.91-.84c0.79-.08.8-1.33,0-1.25h0Z" transform="translate(0 1.97)"/><path class="cls-2" d="M726.63,355.64h-9.8a0.63,0.63,0,0,0,0,1.25h9.8a0.63,0.63,0,0,0,0-1.25h0Z" transform="translate(0 1.97)"/><path class="cls-2" d="M706.31,355.93H698a0.63,0.63,0,0,0,0,1.25h8.3a0.63,0.63,0,0,0,0-1.25h0Z" transform="translate(0 1.97)"/><path class="cls-2" d="M689.43,355.93l-10.3.57c-0.8,0-.81,1.29,0,1.25l10.3-.57c0.8,0,.81-1.29,0-1.25h0Z" transform="translate(0 1.97)"/><path class="cls-2" d="M670.67,357.45l-8.14,1.74c-0.79.17-.45,1.37,0.33,1.21l8.14-1.74c0.79-.17.45-1.37-0.33-1.21h0Z" transform="translate(0 1.97)"/><path class="cls-2" d="M654.45,360.56l-10.35,1.05c-0.79.08-.8,1.33,0,1.25l10.35-1.05c0.79-.08.8-1.33,0-1.25h0Z" transform="translate(0 1.97)"/><path class="cls-2" d="M636.21,361.61H625.67a0.63,0.63,0,0,0,0,1.25h10.54a0.63,0.63,0,0,0,0-1.25h0Z" transform="translate(0 1.97)"/><path class="cls-2" d="M617.7,361.61h-8.8a0.63,0.63,0,0,0,0,1.25h8.8a0.63,0.63,0,0,0,0-1.25h0Z" transform="translate(0 1.97)"/><path class="cls-2" d="M600.43,361.61h-7a0.63,0.63,0,0,0,0,1.25h7a0.63,0.63,0,0,0,0-1.25h0Z" transform="translate(0 1.97)"/><path class="cls-2" d="M583.49,361.83h-7.14a0.63,0.63,0,0,0,0,1.25h7.14a0.63,0.63,0,0,0,0-1.25h0Z" transform="translate(0 1.97)"/><path class="cls-2" d="M566.69,361.05l-7.53-1c-0.79-.11-0.79,1.15,0,1.25l7.53,1c0.79,0.11.79-1.15,0-1.25h0Z" transform="translate(0 1.97)"/><path class="cls-2" d="M552.72,358l-4.32-1.56c-0.76-.27-1.08.93-0.33,1.21l4.32,1.56c0.76,0.27,1.08-.93.33-1.21h0Z" transform="translate(0 1.97)"/><path class="cls-2" d="M845.2,633.65l5.09,3.1a0.63,0.63,0,0,0,.63-1.08l-5.09-3.1a0.63,0.63,0,0,0-.63,1.08h0Z" transform="translate(0 1.97)"/><path class="cls-2" d="M854.49,638.36l8.8,2.16a0.63,0.63,0,0,0,.33-1.21l-8.8-2.16a0.63,0.63,0,0,0-.33,1.21h0Z" transform="translate(0 1.97)"/><path class="cls-2" d="M868.12,642l7.12,0.77c0.8,0.09.79-1.16,0-1.25l-7.12-.77c-0.8-.09-0.79,1.16,0,1.25h0Z" transform="translate(0 1.97)"/><path class="cls-2" d="M880.89,643.48l7.91,0.33a0.63,0.63,0,0,0,0-1.25l-7.91-.33a0.63,0.63,0,0,0,0,1.25h0Z" transform="translate(0 1.97)"/><path class="cls-2" d="M894.72,643.12l5.76-1.11c0.79-.15.46-1.36-0.33-1.21l-5.76,1.11c-0.79.15-.46,1.36,0.33,1.21h0Z" transform="translate(0 1.97)"/><path class="cls-2" d="M818,562.81l6.53,2.71c0.74,0.31,1.07-.9.33-1.21l-6.53-2.71c-0.74-.31-1.07.9-0.33,1.21h0Z" transform="translate(0 1.97)"/><path class="cls-2" d="M828.91,567.35l9,3.43c0.75,0.29,1.08-.92.33-1.21l-9-3.43c-0.75-.29-1.08.92-0.33,1.21h0Z" transform="translate(0 1.97)"/><path class="cls-2" d="M844.3,572.61l9.24,2.49a0.63,0.63,0,0,0,.33-1.21l-9.24-2.49a0.63,0.63,0,0,0-.33,1.21h0Z" transform="translate(0 1.97)"/><path class="cls-2" d="M862.29,576.93l9.3,1.33c0.79,0.11,1.13-1.09.33-1.21l-9.3-1.33c-0.79-.11-1.13,1.09-0.33,1.21h0Z" transform="translate(0 1.97)"/><path class="cls-2" d="M879.23,579.27l10,0.42a0.63,0.63,0,0,0,0-1.25l-10-.42a0.63,0.63,0,0,0,0,1.25h0Z" transform="translate(0 1.97)"/><path class="cls-2" d="M896.88,580.1h9.74a0.63,0.63,0,0,0,0-1.25h-9.74a0.63,0.63,0,0,0,0,1.25h0Z" transform="translate(0 1.97)"/><path class="cls-2" d="M915.37,580.31H925a0.63,0.63,0,0,0,0-1.25h-9.63a0.63,0.63,0,0,0,0,1.25h0Z" transform="translate(0 1.97)"/><path class="cls-2" d="M933.69,579.9l10.63-1.25c0.79-.09.8-1.34,0-1.25l-10.63,1.25c-0.79.09-.8,1.34,0,1.25h0Z" transform="translate(0 1.97)"/><path class="cls-2" d="M951.77,576.45l5.31-2.82a0.63,0.63,0,0,0-.63-1.08l-5.31,2.82a0.63,0.63,0,0,0,.63,1.08h0Z" transform="translate(0 1.97)"/><path class="cls-2" d="M492,581.51l6.12,4a0.63,0.63,0,0,0,.63-1.08l-6.12-4a0.63,0.63,0,0,0-.63,1.08h0Z" transform="translate(0 1.97)"/><path class="cls-2" d="M501.8,587.39l7.47,2.66c0.76,0.27,1.09-.94.33-1.21l-7.47-2.66c-0.76-.27-1.09.94-0.33,1.21h0Z" transform="translate(0 1.97)"/><path class="cls-2" d="M514.42,592.39l8.91,1.16c0.8,0.1.79-1.15,0-1.25l-8.91-1.16c-0.8-.1-0.79,1.15,0,1.25h0Z" transform="translate(0 1.97)"/><path class="cls-2" d="M531.19,594.38h8a0.63,0.63,0,0,0,0-1.25h-8a0.63,0.63,0,0,0,0,1.25h0Z" transform="translate(0 1.97)"/><path class="cls-2" d="M546,594.38l10.74-.55c0.8,0,.81-1.29,0-1.25l-10.74.55c-0.8,0-.81,1.29,0,1.25h0Z" transform="translate(0 1.97)"/><path class="cls-2" d="M564.07,593l9.31-2.63a0.63,0.63,0,0,0-.33-1.21l-9.31,2.63a0.63,0.63,0,0,0,.33,1.21h0Z" transform="translate(0 1.97)"/><path class="cls-2" d="M579.33,587.32l6.81-3.82a0.63,0.63,0,0,0-.63-1.08l-6.81,3.82a0.63,0.63,0,0,0,.63,1.08h0Z" transform="translate(0 1.97)"/><path class="cls-2" d="M513.77,639.3l5.48,3.82c0.66,0.46,1.29-.62.63-1.08l-5.48-3.82c-0.66-.46-1.29.62-0.63,1.08h0Z" transform="translate(0 1.97)"/><path class="cls-2" d="M524.21,646.33l8,2.55a0.63,0.63,0,0,0,.33-1.21l-8-2.55a0.63,0.63,0,0,0-.33,1.21h0Z" transform="translate(0 1.97)"/><path class="cls-2" d="M537.83,649.18l7.31-.28a0.63,0.63,0,0,0,0-1.25l-7.31.28a0.63,0.63,0,0,0,0,1.25h0Z" transform="translate(0 1.97)"/><path class="cls-2" d="M550.28,647.33l6.14-2.22c0.75-.27.43-1.48-0.33-1.21L550,646.13c-0.75.27-.43,1.48,0.33,1.21h0Z" transform="translate(0 1.97)"/><path class="cls-2" d="M591.44,580.06l4-2.78c0.66-.45,0-1.54-0.63-1.08l-4,2.78c-0.66.45,0,1.54,0.63,1.08h0Z" transform="translate(0 1.97)"/><path class="cls-2" d="M832.77,325.08l2.38-5c0.35-.72-0.73-1.36-1.08-0.63l-2.38,5c-0.35.72,0.73,1.36,1.08,0.63h0Z" transform="translate(0 1.97)"/><path class="cls-2" d="M306.08,473.71a24.15,24.15,0,0,1,.66,6.65,0.63,0.63,0,0,0,1.25,0,25.44,25.44,0,0,0-.7-7,0.63,0.63,0,0,0-1.21.33h0Z" transform="translate(0 1.97)"/><path class="cls-2" d="M302.5,458.29a21.58,21.58,0,0,1,2.07,7.18c0.1,0.79,1.35.8,1.25,0a23.28,23.28,0,0,0-2.24-7.82,0.63,0.63,0,0,0-1.08.63h0Z" transform="translate(0 1.97)"/><path class="cls-2" d="M296.78,445.31a14.19,14.19,0,0,1,2.56,3.75,0.63,0.63,0,0,0,1.08-.63,15.21,15.21,0,0,0-2.75-4,0.63,0.63,0,0,0-.88.88h0Z" transform="translate(0 1.97)"/><path class="cls-2" d="M283.72,435.2c2,0,4.14,1.6,5.66,2.75,0.64,0.48,1.27-.6.63-1.08-1.72-1.3-4-2.87-6.29-2.92a0.63,0.63,0,0,0,0,1.25h0Z" transform="translate(0 1.97)"/><path class="cls-2" d="M395.1,406.53a32.06,32.06,0,0,1-8.15,3.65,0.63,0.63,0,0,0,.33,1.21,33.28,33.28,0,0,0,8.45-3.77,0.63,0.63,0,0,0-.63-1.08h0Z" transform="translate(0 1.97)"/><path class="cls-2" d="M369.51,412.48c2.24,0.86,5.29.44,7.58,0.3,0.8-.05.8-1.3,0-1.25-2.19.14-5.12,0.56-7.25-.25-0.75-.29-1.08.92-0.33,1.21h0Z" transform="translate(0 1.97)"/><path class="cls-2" d="M357.69,406.52a7.27,7.27,0,0,0,3.66,4c0.73,0.32,1.37-.76.63-1.08a5.55,5.55,0,0,1-2.38-2,8.41,8.41,0,0,1-.54-0.9l-0.16-.34v0c-0.29-.74-1.5-0.42-1.21.33h0Z" transform="translate(0 1.97)"/><path class="cls-3" d="M594.25,382.57c12.61-.76,16.17,9.51,17.36,18.74,1.69,13.06-.33,24.92-13.48,26.62a28.25,28.25,0,0,1-6.63,0l-4.22-43.71a24,24,0,0,1,5.83-1.49ZM596.6,423a8.38,8.38,0,0,0,2.48.08c9.71-1.26,9.18-11.45,8.32-18-2.15-16.62-8.58-19.74-13.2-19.15a11.7,11.7,0,0,0-3.2.88Z" transform="translate(0 1.97)"/><path class="cls-3" d="M629.23,399.77l1,2.37-8.49,2.45,0.34,14.67,10.9-.67,0.65,2.41-14,3.35-4.29-39.63,12.22-2.43,1.34,4.34-10.2.52,2.43,13.29Z" transform="translate(0 1.97)"/><path class="cls-3" d="M638.66,420.18l-4.27-40.08,3.91-1.24L641.13,417l10.45-2.42,1.4,3.56Z" transform="translate(0 1.97)"/><path class="cls-3" d="M655.19,375.82l2.85,1,3.74,40.05-4.09.89Z" transform="translate(0 1.97)"/><path class="cls-3" d="M680.52,381.15a7.48,7.48,0,0,0-4.26-.81c-5.44.37-9.11,7.45-8.4,17.89,0.7,10.26,4.64,17.06,11.23,16.61a9.3,9.3,0,0,0,3-.81l1,1.82a12.24,12.24,0,0,1-5.6,1.85l-0.47,0c-6,0-12-4.24-12.89-17.84,0-.73-0.1-1.52-0.11-2.31-0.29-12.66,3.2-21.56,11.78-22.15,3-.21,5.08.44,6,1.06Z" transform="translate(0 1.97)"/><path class="cls-3" d="M685.46,375.08l2.85,1,3.74,40.05L688,417Z" transform="translate(0 1.97)"/><path class="cls-3" d="M693.56,396.27c-0.79-15.83,4.27-22.59,10.45-22.9,6.82-.34,10.56,5.67,11.26,19.58,0.93,18.55-5.37,22.9-10.28,23.14C698.55,416.42,694.31,411.12,693.56,396.27Zm18-.35c-0.43-8.47-2.86-19.07-8.63-18.79-5.39.27-6.26,8.25-5.88,15.86,0.55,10.88,3.47,19.6,8.71,19.34S712,403.47,711.61,395.93Z" transform="translate(0 1.97)"/><path class="cls-3" d="M738.56,371.33l1,27.72c0.35,10.21-3.2,15.47-8.8,15.75-5.34.27-9.24-3.5-10-14.19l-1.85-26.38,2.71-.94,3.32,27.11c1,8,3.51,10.73,6.68,10.58s5.31-2.87,5-9.36c0-.56-0.06-1.17-0.14-1.79l-2.77-26.64Z" transform="translate(0 1.97)"/><path class="cls-3" d="M746.13,409.26a9.4,9.4,0,0,0,5.38,1.65c4.07-.2,6.27-3.79,6.07-7.74s-2.6-6.5-5.6-9.2c-3.78-3.47-7.42-5.39-7.74-11.7s3.32-11,9-11.24a9.41,9.41,0,0,1,5.41,1.09l-0.79,4.38a7.65,7.65,0,0,0-4.67-1.25,5.57,5.57,0,0,0-5.52,6.1c0.22,4.39,2.55,6.51,6.14,8.43,4.25,2.39,7.78,5.13,8.1,11.43,0.35,7-4.32,12.18-10.23,12.48a11.34,11.34,0,0,1-6.77-2Z" transform="translate(0 1.97)"/><path class="cls-3" d="M550.08,578.17a5.78,5.78,0,0,0,.48-4.09c-0.65-2.07-2.36-2.6-4.53-1.72-1.75.71-3,2.21-3.64,4.85-0.91,3.56-1.71,5.92-5.44,7.44s-6.79.05-7.75-3a6.69,6.69,0,0,1,.24-4.85l1.57,0.6a4.63,4.63,0,0,0,0,3c0.57,1.81,2.89,1.91,4.39,1.3,1.94-.79,2.62-2,3.42-4.38,1.08-3.19,2.44-6,5.79-7.34,4.2-1.71,7.55.49,8.42,3.27a7.8,7.8,0,0,1,.31,4.39Z" transform="translate(0 1.97)"/><path class="cls-3" d="M523,561.18l16.72-7.61,6-2.81,1.2,2.46-4.09,2,0.15,0.13c2-.45,4.71.6,5.41,2.84,1.05,3.37-.64,6.11-7,9.18l-13.19,6.31-1.58-2.83,13.57-6.28c4.59-2.15,6.14-3.5,5.42-5.81s-4.19-1.81-5.94-1.48a16.44,16.44,0,0,0-2.13.68l-13.06,4.84Z" transform="translate(0 1.97)"/><path class="cls-3" d="M544.41,545.57c-1.23.5-3.81,1.6-5.31,2.25l-26.62,12-1.72-3.29,13-4.78-0.21-.15a4.59,4.59,0,0,1-4.8-3.09l-0.09-.3c-1.05-3.37,2.11-8.22,10.7-11.71,8.12-3.3,11.72-1.3,12.78,2.07,0.65,2.07-.07,4-1.81,6l0.05,0.17,3-1.14Zm-10,1.61c2.58-1,6-4,5.27-6.28-0.9-2.87-5-2.62-10.25-.77-0.42.17-.81,0.28-1.19,0.44-5.43,2.21-7.11,4.84-6.42,7,0.45,1.43,2.58,3.13,6.84,1.64Z" transform="translate(0 1.97)"/><path class="cls-3" d="M538.67,531.6L503.24,540l1.1-2.47,33.08-9.35Z" transform="translate(0 1.97)"/><path class="cls-3" d="M506.48,532.22c-1.7.46-2.53-.38-2.66-1.26a2.82,2.82,0,0,1,2.26-2.83,1.84,1.84,0,0,1,2.49,1.17A2.71,2.71,0,0,1,506.48,532.22Zm28.87-12.55,0.91,3.45-23.61,6.69,0.16-2.67Z" transform="translate(0 1.97)"/><path class="cls-3" d="M536.94,515.83l-17.69,3.26c-2.75.49-3.82,0.69-6.08,1.16l0.15-2.4,3.28-.8v-0.23a4.78,4.78,0,0,1-3.72-4.95c0-2.15,1.18-4.2,3.87-5.46v-0.09c-3.38-1.16-4.11-3.66-4.11-5,0-2.47,1.37-5.83,7.16-6.67,0.44-.06.93-0.14,1.42-0.16l15.83-1.12-0.2,2.91L522,497.55c-3.43.27-6.52,1.59-6.52,4.52,0,2.43,2.69,3.45,6.27,2.93l15.19-2.3L536.8,505l-15.29,3.23c-2.94.61-5.79,1.53-5.79,4.32,0,2.56,3.28,3.64,6.27,3l14.66-3.23Z" transform="translate(0 1.97)"/><path class="cls-3" d="M536.91,474.56a9.25,9.25,0,0,1,.83,4.27c0,7.09-6.57,10-12.16,10.83-7,1-12.69-.81-12.69-5.7,0-.18,0-0.42,0-0.6,0.44-5,5-6.95,10-7.69,1-.15,1.67-0.2,2.94-0.29l-1,11.68c7.6-.92,9.12-4.35,9.41-7.18,0-.23.05-0.47,0.05-0.69a6,6,0,0,0-.83-3.22Zm-14.31,4.51c-4.46.65-7.26,2.43-7.26,4.81,0,2.7,3.62,3.36,7,3.05Z" transform="translate(0 1.97)"/><path class="cls-3" d="M364.85,372l2.33-5.18,21.93,1.61,0-.12L370.34,355.9l1.74-2.34,14.68,8c6.58,3.55,11.59,7.06,15.1,12.27a14.82,14.82,0,0,1,2.06,6.48l-2,.93c-1.19-6-8.63-9.84-9.56-10.09a2.31,2.31,0,0,0-1.08-.1Z" transform="translate(0 1.97)"/><path class="cls-3" d="M404.14,340.82a15.49,15.49,0,0,1-.9,5.92c-2.93,9.08-10.94,9.28-17.05,7.3-7.68-2.48-12.8-7.89-10.78-14.16,0.08-.24.22-0.51,0.3-0.75,2.51-6.11,8-6.22,13.57-4.42,1.13,0.36,1.81.65,3.16,1.22l-5.89,14.4c8.24,2.92,11.23-.65,12.71-4.12,0.09-.29.24-0.57,0.34-0.86a10.17,10.17,0,0,0,.47-4.57Zm-16.67-2c-4.88-1.58-8.51-.81-9.49,2.24-1.12,3.46,2.36,6.26,6,7.69Z" transform="translate(0 1.97)"/><path class="cls-3" d="M403.27,335.53a8.22,8.22,0,0,0,3.61-4c1.13-2.8.21-4.9-2.2-5.86-1.93-.78-4.09-0.25-6.71,2-3.52,3-6,4.88-10.16,3.22s-5.39-5.95-3.71-10.12a9.89,9.89,0,0,1,4-5l0.76,2a7.06,7.06,0,0,0-2.41,3.28,4.15,4.15,0,0,0,2.43,5.29c2.15,0.86,3.65.14,6.15-1.71,3.37-2.49,6.65-4.3,10.36-2.8,4.66,1.87,5.55,7.21,4,11a12.38,12.38,0,0,1-3.23,5Z" transform="translate(0 1.97)"/><path class="cls-3" d="M853,399.59c0.29-12.94,6.88-18.44,13.73-18.29,7.31,0.16,12.8,7,12.52,19.63-0.27,12.41-6.2,18.53-13.73,18.36-7.77-.17-12.6-5.69-12.53-19Zm20.56,3.65c0.13-6.09-1.29-17.78-8.21-17.93-5.87,0-6.58,8-6.69,13.34-0.24,10.89,3.82,16.77,8.16,16.71C871.81,415.32,873.39,409.41,873.53,403.24Z" transform="translate(0 1.97)"/><path class="cls-3" d="M884.68,416.78L887,389.36c0.38-4.25.51-5.92,0.72-9.43l3.9,0.72-0.1,5.13,0.38,0a9.52,9.52,0,0,1,9.79-4.61,8.23,8.23,0,0,1,7.34,7l0.15,0c3.37-4.87,7.82-5.47,10-5.2,4.08,0.51,9,3.28,7.92,12.19-0.08.68-.18,1.44-0.35,2.18l-5,24.16-4.72-.9,4.37-22.71c1-5.24.2-10.18-4.64-10.79-4-.5-6.87,3.36-7.56,8.88l-2.77,23.45-3.67-.69L904,395c0.26-4.57,0-9.06-4.63-9.63-4.23-.53-7.43,4.21-7.71,8.86l-1,22.82Z" transform="translate(0 1.97)"/><path class="cls-3" d="M834.86,467.12c0.77-13.56,1.84-28.71,1.32-36.48l3.35,0.69,0.23,4h0.15a9.75,9.75,0,0,1,8.91-5.33c4.42,0,9.52,2.82,9.51,11a16.63,16.63,0,0,1-.08,1.9l-2.15,24.45-4.49-.46L853,444.06c0.31-4.87-1.06-9.6-5.93-9.6-4.19,0-6.78,4.57-6.78,9.82l0.6,23.38Z" transform="translate(0 1.97)"/><path class="cls-3" d="M864.91,450.14c1.07-12.9,8-18,14.82-17.42,7.29,0.6,12.35,7.75,11.31,20.35-1,12.37-7.31,18.12-14.82,17.5-7.74-.64-12.23-6.44-11.36-19.74ZM885.22,455c0.5-6.07-.21-17.82-7.11-18.39-5.86-.33-7,7.59-7.49,12.91-0.9,10.85,2.8,17,7.14,17.17C882.77,467,884.71,461.17,885.22,455Z" transform="translate(0 1.97)"/><path class="cls-3" d="M895.9,472.24l3.27-27.32c0.53-4.23.72-5.9,1.06-9.4l3.87,0.86-0.29,5.12,0.38,0.06a9.52,9.52,0,0,1,9.95-4.25,8.23,8.23,0,0,1,7.08,7.24l0.15,0c3.55-4.75,8-5.18,10.2-4.83,4.06,0.66,8.91,3.6,7.47,12.47-0.11.68-.23,1.43-0.43,2.17l-5.89,24L928,477.28l5.19-22.54c1.23-5.2.57-10.17-4.25-10.95-4-.65-7,3.11-7.87,8.6l-3.62,23.33-3.65-.82L916,451.18c0.43-4.56.31-9.05-4.28-9.8-4.21-.68-7.58,3.94-8,8.58l-1.83,22.77Z" transform="translate(0 1.97)"/><path class="cls-3" d="M835.24,525.42c-0.58-13.57-1-28.75-2.31-36.43l3.4,0.35,0.63,4,0.15,0a9.75,9.75,0,0,1,8.34-6.19c4.4-.44,9.75,1.86,10.56,10.05a16.65,16.65,0,0,1,.11,1.9l0.29,24.54H851.9L851,500.66c-0.18-4.88-2-9.44-6.86-9-4.17.41-6.29,5.22-5.78,10.45l2.91,23.21Z" transform="translate(0 1.97)"/><path class="cls-3" d="M863,504c0.73-12.93,7.51-18.19,14.36-17.8,7.3,0.41,12.55,7.42,11.83,20-0.7,12.39-6.84,18.3-14.36,17.88-7.76-.44-12.39-6.12-11.87-19.44Zm20.43,4.36c0.34-6.08-.67-17.81-7.59-18.2-5.86-.18-6.85,7.77-7.15,13.1-0.62,10.87,3.24,16.89,7.58,17C881.32,520.32,883.1,514.47,883.45,508.31Z" transform="translate(0 1.97)"/><path class="cls-3" d="M892.41,525.2l2.44-27.41c0.4-4.25.54-5.92,0.77-9.42l3.9,0.74-0.13,5.13,0.38,0a9.52,9.52,0,0,1,9.81-4.55,8.23,8.23,0,0,1,7.3,7l0.15,0c3.4-4.85,7.85-5.42,10-5.14,4.08,0.53,9,3.33,7.85,12.24-0.09.68-.19,1.43-0.36,2.18l-5.15,24.14-4.72-.92,4.5-22.68c1.07-5.24.26-10.18-4.58-10.81-4-.52-6.89,3.32-7.61,8.84L914.08,528l-3.67-.71,1.42-23.78c0.29-4.57,0-9.06-4.57-9.66-4.23-.55-7.46,4.17-7.76,8.82l-1.14,22.82Z" transform="translate(0 1.97)"/><path class="cls-3" d="M474.12,382.89a8.94,8.94,0,0,0,4.9,0,5.55,5.55,0,0,0,3.69-7.25c-1-3.05-3.46-4.35-6.53-5.73-3.88-1.78-7.35-2.42-8.83-7.15a8.06,8.06,0,0,1,5.49-10.56,9.08,9.08,0,0,1,4.81-.39l0.17,3.5a7.29,7.29,0,0,0-4.22.1c-3.25,1-4.23,3.66-3.53,5.88,1,3.29,3.42,4.37,6.85,5,4.08,0.86,7.61,2.14,9.09,6.86A9.3,9.3,0,0,1,479.68,385a10.8,10.8,0,0,1-6.14,0Z" transform="translate(0 1.97)"/><path class="cls-3" d="M488.09,365.43c-2.74-11.51.54-17.29,5.6-18.49,5.58-1.33,9.46,2.5,11.87,12.62,3.22,13.49-1.41,17.68-5.43,18.64C494.86,379.46,490.67,376.23,488.09,365.43Zm14.84-3.11c-1.47-6.16-4.88-13.57-9.59-12.45-4.41,1.05-4.07,7.05-2.76,12.59,1.89,7.91,5.45,13.86,9.73,12.84S504.24,367.81,502.93,362.32Z" transform="translate(0 1.97)"/><path class="cls-3" d="M473.91,409.3l6.89-2L485,420.05a15.38,15.38,0,0,1-4.78,2.82,9.33,9.33,0,0,1-7.64-.56c-2.53-1.37-4.83-4.69-6.5-9.4-3.41-9.8.19-15.33,5.14-17.07a8.72,8.72,0,0,1,4.37-.41l-0.73,1.74a7.58,7.58,0,0,0-2.94.43c-4.39,1.55-6.08,6.23-3.73,12.88,2.57,7.27,6.53,10.57,11,9a5,5,0,0,0,2.64-1.76l-3.21-7.43-3.45,2Z" transform="translate(0 1.97)"/><path class="cls-3" d="M483.45,407.11c-3.49-9.9-1.14-15.3,3.21-16.83,4.8-1.69,8.58,1.32,11.65,10,4.09,11.6.41,15.73-3,16.95C490.73,418.85,486.72,416.39,483.45,407.11Zm12.8-4.13c-1.87-5.3-5.57-11.51-9.62-10.08-3.79,1.34-2.94,6.6-1.26,11.36,2.4,6.81,6.1,11.72,9.78,10.42S497.91,407.7,496.25,403Z" transform="translate(0 1.97)"/><path class="cls-3" d="M501.67,400.34c-2.86-10.1-.16-15.34,4.28-16.59,4.89-1.38,8.48,1.87,11,10.74,3.35,11.84-.59,15.72-4.12,16.72C508.18,412.52,504.34,409.81,501.67,400.34Zm13-3.3c-1.53-5.41-4.82-11.85-9-10.68-3.87,1.09-3.35,6.4-2,11.25,2,6.94,5.34,12.08,9.1,11S516.06,401.85,514.7,397Z" transform="translate(0 1.97)"/><path class="cls-3" d="M524,379.86c8.31-.69,10.71,5.59,11.55,11.27,1.19,8-.08,15.39-8.74,16.67a19.91,19.91,0,0,1-4.37.11l-3-26.91a16.86,16.86,0,0,1,3.83-1Zm1.77,24.94a5.9,5.9,0,0,0,1.64,0c6.4-.94,6-7.23,5.39-11.28-1.51-10.22-5.76-12-8.8-11.59a8.25,8.25,0,0,0-2.1.6Z" transform="translate(0 1.97)"/><path class="cls-3" d="M849.71,586.48l2.36,1-3.2,7.9,6,1.5,1.87-8.07,2.21,0.39-5.12,18.71-1.77-.33,2.21-8.66-5.74-2-3.17,8.74-1.3-.67Z" transform="translate(0 1.97)"/><path class="cls-3" d="M866.2,599.85l0.24,1.23-4.8.11L860,608.1l5.85,1,0,1.21-7.82-.14,2.59-19.08,6.77,0.36,0.18,2.2-5.47-1-0.34,6.52Z" transform="translate(0 1.97)"/><path class="cls-3" d="M876.28,606l-4.3-.75L869.15,611l-1.51,0,7.13-18.67,1.69,0.72,2.42,19.31-2.69-.1Zm-3.9-1.76,3.76,0.14L875.68,599c-0.11-1.39-.21-2.86-0.26-4.27l-0.21.09Z" transform="translate(0 1.97)"/><path class="cls-3" d="M886.56,614.16l-2.25.21-3.2-20,2.45,0.7,1.58,16.58h0.08l6-15.87,1.39-.23Z" transform="translate(0 1.97)"/><path class="cls-3" d="M900.11,603.84l0.38,1-4.32.73-0.52,6.28,5.43,0.12,0.21,1.05-7.1.91L894,596.9l6.17-.58,0.46,1.91-5.08-.15,0.57,5.77h4Z" transform="translate(0 1.97)"/><path class="cls-3" d="M907.48,613l-1.4.55-1.49-17.1,2.67-.18,5.82,14.22h0.05l-0.59-15,1.88,0.3-0.12,16.75-1.28.32-6.43-14.21h-0.05c0,2.4.08,4.44,0.38,7.92Z" transform="translate(0 1.97)"/><path class="cls-3" d="M919.11,612.4L917,595.8l1.88-.56,1.37,15.82,5-1.11,0.67,1.47Z" transform="translate(0 1.97)"/><path class="cls-3" d="M929,611.31l-1.48-.08-0.42-7.08-4.43-9.75,1.34,0.25,4.45,7.54h0.05l1.57-7.65,2.56-.58-3.68,10Z" transform="translate(0 1.97)"/><path class="cls-3" d="M416.64,411.67c4.56,8-.18,13.27-5.09,16.66-7,4.79-14.43,6.81-19.71-1.33a23.68,23.68,0,0,1-2.16-4.35l23.74-15.08a19.73,19.73,0,0,1,2.76,3.4Zm-22.49,12.95a7.07,7.07,0,0,0,.77,1.65c3.9,6,9.58,2.79,13.09.37,8.85-6.1,8.54-11.19,6.69-14a9.46,9.46,0,0,0-1.55-1.85Z" transform="translate(0 1.97)"/><path class="cls-3" d="M421.11,438.19l-1.05,1.31-4.42-4.8L407.07,439l4.21,6.86-1.2,1.09-6.89-8.11,22-13.83,5.71,7.22-2.1,2.08-3.88-6.45-7,5.28Z" transform="translate(0 1.97)"/><path class="cls-3" d="M414,451.46l20.67-14.72,2.13,2L416.68,452l5.19,5.64-1.46,1.93Z" transform="translate(0 1.97)"/><path class="cls-3" d="M436.74,461.62l-0.93,1.2-4-4.44-7.59,3.92,3.78,6.33-1.06,1-6.16-7.49,19.46-12.6,5.12,6.67-1.86,1.9-3.48-5.95L433.84,457Z" transform="translate(0 1.97)"/><path class="cls-3" d="M449.87,474.65a5.48,5.48,0,0,0-.56-2.75c-1.46-3.25-6.07-4.14-11.44-1.73s-8,6.06-6.2,10a6.88,6.88,0,0,0,1.13,1.67l-0.74.94a9,9,0,0,1-2.28-3.07l-0.13-.28c-1.38-3.66-.53-8.1,6.47-11.24,0.37-.17.78-0.35,1.2-0.5,6.65-2.58,12.18-2.14,14.48,3a7.31,7.31,0,0,1,.82,3.83Z" transform="translate(0 1.97)"/><path class="cls-3" d="M434,488.37L455.75,482l-1.44-3.83,2.56-1.33,2.6,12.92-1.39-.13-1.29-4.25L434,490.08Z" transform="translate(0 1.97)"/><path class="cls-3" d="M445.35,505l-0.84-5.78-8-1.14-0.67-1.89,25.31,1-0.18,2.46L438.72,511l-1-3.45Zm0.54-5.7,1.35,4.83,6.25-2.88c1.62-.73,3.35-1.49,5-2.16l-0.19-.22Z" transform="translate(0 1.97)"/><path class="cls-3" d="M461.26,509.86a11.56,11.56,0,0,1,1,3.15,9.2,9.2,0,0,1-.85,5.79,5.87,5.87,0,0,1-4.47,2.63,4.82,4.82,0,0,1-5.16-3.05l-0.09.08a7,7,0,0,1-6.25,5.54c-3.05.43-5.85-1.05-6.53-6.18a12.13,12.13,0,0,1,.23-4.32Zm-10.84,4.58-9.43.83a7.55,7.55,0,0,0-.09,2.09,4.93,4.93,0,0,0,9.74-1.53Zm1.82,1.37a4.68,4.68,0,0,0,0,.69,3.58,3.58,0,0,0,4,3.18c2.24-.31,3.47-1.62,3.36-4.65a6,6,0,0,0-.08-1.06,2.84,2.84,0,0,0-.11-0.57l-7.17.86Z" transform="translate(0 1.97)"/><path class="cls-3" d="M440.29,528.37l22.31-4.1,0.9,2.5-21.31,3.1,1.9,6.72-1.93,1Z" transform="translate(0 1.97)"/><path class="cls-3" d="M456.21,546.81l-1.39.6-1.32-5.8-8.54-.23,0.25,7.37-1.41.36L442,539.58l23.12-1.63,1.26,8.31-2.55.77-0.18-6.89-7.76,1.21Z" transform="translate(0 1.97)"/><path class="cls-3" d="M600.25,357l-1.78-12.89c-0.26-2-.38-2.79-0.64-4.42l1.92-.07,0.49,2.38,0.18,0a4.62,4.62,0,0,1,4.15-3.14,4,4,0,0,1,4.21,2.46h0.07a5.26,5.26,0,0,1,4.2-3.44c2-.19,4.62.57,5,4.8a9.8,9.8,0,0,1,.06,1l0.15,11.67-2.33.08-0.3-10.93c-0.06-2.53-1-4.72-3.32-4.49-1.95.19-2.9,2.27-2.65,4.88l1.13,11.1L609,356l-1.87-11.11c-0.35-2.14-1-4.18-3.2-4-2.06.2-3.08,2.72-2.73,4.89l1.9,10.63Z" transform="translate(0 1.97)"/><path class="cls-3" d="M621.19,347.31c-0.5-5.23,1.9-7.76,4.67-8,3-.28,5.49,2.21,6,7.32s-1.62,7.76-4.67,8.06-5.35-1.7-6-7.07Zm8.47,0.5c-0.23-2.46-1.36-7.11-4.16-6.84-2.36.29-2.27,3.54-2.07,5.7,0.42,4.4,2.34,6.58,4.09,6.35C629.54,352.76,629.89,350.3,629.66,347.81Z" transform="translate(0 1.97)"/><path class="cls-3" d="M642.56,337.82l1.58,11,0.62,3.95-1.89.43-0.51-2.72-0.12.07a3.51,3.51,0,0,1-3,2.93c-2.46.23-3.93-1.12-4.64-5.34l-1.45-8.72,2.21-.61,1.35,8.94c0.48,3,1,4.12,2.74,4s2.08-2.31,2.22-3.41a8.93,8.93,0,0,0,0-1.37l-0.5-8.46Z" transform="translate(0 1.97)"/><path class="cls-3" d="M646.48,335l1.58-1.39,0.69,4,2.28-.81,0.74,1.95-3,.2,1.59,9.2c0.29,1.71,1.32,2.14,2,2.08a4.17,4.17,0,0,0,1.21-.36l-0.11,2.06a3.75,3.75,0,0,1-1.57.46c-3,.29-3.65-2.45-3.85-4.26l-1-9-1.68.32L645,338.21l1.88-.49Z" transform="translate(0 1.97)"/><path class="cls-3" d="M664.69,350l-2.09.69v-9.4c0-1.83-.64-3.89-2.77-3.73-1.63.13-2.48,2.05-2.5,3.79l0.29,9.47-1.61,0-1.58-20.5,2.17-.45,0.22,8H657a4.6,4.6,0,0,1,1.25-1.52,3.77,3.77,0,0,1,2.08-.75c1.76-.14,4,1,4.11,5Z" transform="translate(0 1.97)"/><path class="cls-3" d="M667.37,335l2.66,0.35,1.25,7c0.28,1.59.65,3.21,1,4.73l0.13,0c0.19-1.57.58-3.33,0.9-4.78l1.74-7.64,2,0.06,1.56,7,1.07,4.63h0.09c0.21-1.32.56-2.87,0.92-4.63l1.58-7.72,1.56,0.13-2.43,15.23h-2L676.81,342c-0.52-1.48-.86-2.69-1.2-3.88l-0.23-.11c-0.23,1.38-.45,2.67-0.67,4.18l-1.19,7.5-2.1.53Z" transform="translate(0 1.97)"/><path class="cls-3" d="M686,335.06a6.18,6.18,0,0,1,3.65-1.71c2.87-.22,4.47,1.27,4.74,4.75l0.5,6.44a23,23,0,0,0,.51,3.37l-1.2.56-0.75-2.08H693.3a3.76,3.76,0,0,1-3.17,2.35c-2.1.16-3.83-1.41-4-4.06-0.26-3.42,2.5-5.37,6.2-6.09-0.39-2.64-.73-3.82-3.13-3.64a5.16,5.16,0,0,0-2.54.88Zm6.71,5.84c-0.31,0-.71,0-1.15,0-2.37.18-3.78,1.22-3.58,3.81,0.13,1.73,1.23,2.32,2.19,2.25a2.75,2.75,0,0,0,2.39-2.42,8,8,0,0,0,.06-0.87Z" transform="translate(0 1.97)"/><path class="cls-3" d="M698.66,331.44l1.56-1.41,0.74,4,2.27-.83,0.77,1.94-3,.23,1.69,9.18c0.31,1.71,1.35,2.13,2,2.06a4.17,4.17,0,0,0,1.2-.38l-0.09,2.06a3.75,3.75,0,0,1-1.57.48c-3,.32-3.68-2.41-3.9-4.22l-1.05-9-1.67.33-0.4-1.17,1.87-.51Z" transform="translate(0 1.97)"/><path class="cls-3" d="M716.52,346.48a7.2,7.2,0,0,1-2.88.89c-4.76.59-6.59-3.35-7-6.85-0.55-4.39.79-8.17,4.07-8.58l0.4,0c3.32-.13,4.56,2.58,5,5.77,0.08,0.64.1,1,.14,1.85l-7.81.32c0.47,4.77,2.74,5.46,4.63,5.41,0.15,0,.31,0,0.46,0a4.76,4.76,0,0,0,2.18-.8Zm-2.74-8.76c-0.35-2.79-1.49-4.43-3.08-4.23-1.81.23-2.32,2.6-2.18,4.73Z" transform="translate(0 1.97)"/><path class="cls-3" d="M719.84,346.35l-1.22-11.07a22.41,22.41,0,0,0-.82-3.82l1.4-.52,1,2.62,0.09,0c0.05-.35.5-3.49,3.11-3.82l0.82,2.61a7,7,0,0,0-.79.13c-1.58.29-3.09,2.22-2.47,5.42l1.34,7.75Z" transform="translate(0 1.97)"/><path class="cls-3" d="M724.88,326.27a1.35,1.35,0,0,1,1.13-1.67,1.56,1.56,0,0,1,1.68,1.44,1.34,1.34,0,0,1-1.05,1.56A1.5,1.5,0,0,1,724.88,326.27Zm5.46,18.27-2.42.55-2-14.92,1.79,0.12Z" transform="translate(0 1.97)"/><path class="cls-3" d="M733.51,344.27c-0.37-5.5-.71-11.66-1.31-14.76l1.38,0.11,0.29,1.62h0.06a4,4,0,0,1,3.32-2.6c1.78-.22,4,0.66,4.39,4a6.77,6.77,0,0,1,.07.77l0.37,10-1.83,0-0.6-9.31c-0.12-2-.91-3.81-2.87-3.57-1.69.21-2.5,2.18-2.24,4.3l1.42,9.39Z" transform="translate(0 1.97)"/><path class="cls-3" d="M753.55,326.84c0,0.5.07,1.05,0.16,1.79s0.23,1.59.47,2.75l1.74,8.23a15.44,15.44,0,0,1,.26,1.62c0.54,4.36-1.2,6.6-5,7.07a8.75,8.75,0,0,1-4-.6l0.72-1.24a6,6,0,0,0,3,.35c2-.25,3.22-1.68,2.77-5.27l-0.21-1.66H753.4a3.38,3.38,0,0,1-2.94,2.39c-2.73.34-5-2.33-5.58-6.75-0.68-5.46,1.67-8.06,4-8.35a3.38,3.38,0,0,1,3.35,1.64h0.06l-0.66-2Zm-1.28,5c-0.31-1.52-1.59-3.48-3.46-3.25-1.69.21-2.42,2.11-2.07,4.9,0.42,3.34,2,6.79,4.49,6.48,1.66-.21,2.15-2,1.74-4Z" transform="translate(0 1.97)"/><path class="cls-3" d="M520.93,630.9l-2.87,0-1.12-12.69-9-17.19,2.6,0.35,9,13.22h0.1l2.7-13.84,4.95-1.24-6.7,18.17Z" transform="translate(0 1.97)"/><path class="cls-3" d="M542.28,603.18L542,618.66c-0.11,5.7-2.86,8.53-6.89,8.53-3.85,0-6.51-2.21-6.66-8.19L528,604.25l2-.45,1.41,15.2c0.42,4.49,2.13,6.08,4.42,6.08s3.92-1.45,3.92-5.08a9.14,9.14,0,0,0,0-1l-1-14.93Z" transform="translate(0 1.97)"/><path class="cls-3" d="M563.5,629l-1.29-19.21h-0.15l-5.94,19.76L554.4,629l-5.6-19h-0.11l-0.57,19.83-3-.79,2-22.74,3-.59,5.22,19.38h0.3l4.61-18.24,4.26-.86,0.76,23.29Z" transform="translate(0 1.97)"/><path class="cls-3" d="M598.36,485.64L594,474.83c-0.67-1.68-.94-2.34-1.56-3.7l2.57-.78,1,1.94,0.24-.08c0.44-1.62,2.16-3.33,5.09-4.33,2.3-.78,4.54-0.73,6,0.63l0.1,0a8.53,8.53,0,0,1,5.1-4.61c2.64-.9,6.29-1.2,7.5,2.42a6.07,6.07,0,0,1,.25.9l2,10.33-3.12.93-2.11-9.61c-0.47-2.23-2-3.84-5.17-2.77a4,4,0,0,0-2.8,5.32l3.26,9.46-2.42.73-4.25-9.19c-0.81-1.77-1.93-3.36-4.91-2.35-2.73.93-3.71,3.55-2.9,5.36l4.22,8.76Z" transform="translate(0 1.97)"/><path class="cls-3" d="M631.21,475.62l-2.36-9.87c-0.35-1.53-.5-2.14-0.84-3.38l2.28-.33,0.62,1.8,0.22,0c0.58-1.33,2.26-2.57,4.88-3,2.05-.37,4,0,5,1.35l0.09,0a7.29,7.29,0,0,1,4.93-3.28c2.36-.42,5.5-0.19,6.06,3.08a5.34,5.34,0,0,1,.09.81l0.39,9.14-2.77.38-0.55-8.54c-0.11-2-1.24-3.57-4-3.07a3.49,3.49,0,0,0-3.06,4.2l1.55,8.56-2.15.3-2.43-8.46c-0.46-1.63-1.21-3.15-3.87-2.67a3.57,3.57,0,0,0-3.15,4.22l2.46,8.08Z" transform="translate(0 1.97)"/><path class="cls-3" d="M660.9,469.7l-1.32-9.12c-0.19-1.41-.27-2-0.49-3.13l2.22-.11,0.42,1.68,0.21,0c0.69-1.16,2.41-2.15,5-2.36,2-.17,3.79.29,4.7,1.62h0.09a7.24,7.24,0,0,1,5-2.57c2.3-.19,5.29.27,5.51,3.27a4.56,4.56,0,0,1,0,.74l-0.5,8.3-2.69.12,0.28-7.77c0.08-1.8-.85-3.33-3.57-3.1-2.25.19-3.47,1.7-3.33,3.55l0.67,7.86-2.09.1-1.52-7.84c-0.28-1.51-.86-2.94-3.45-2.73-2.38.2-3.7,2-3.42,3.56l1.58,7.51Z" transform="translate(0 1.97)"/><path class="cls-3" d="M691.13,467l-1.39-9.1c-0.2-1.41-.29-2-0.51-3.12l2.22-.13,0.44,1.67,0.21,0c0.68-1.16,2.39-2.17,4.94-2.41,2-.19,3.79.26,4.71,1.58h0.08a7.25,7.25,0,0,1,5-2.62c2.29-.22,5.29.22,5.53,3.22a4.43,4.43,0,0,1,0,.74L712,465.1l-2.69.15,0.22-7.77c0.07-1.8-.87-3.32-3.59-3.07-2.25.21-3.46,1.73-3.3,3.58l0.73,7.86-2.09.12-1.58-7.83c-0.3-1.51-.88-2.94-3.48-2.69-2.38.22-3.68,2.06-3.39,3.59l1.64,7.49Z" transform="translate(0 1.97)"/><path class="cls-3" d="M720.49,465.19l0-9.77c0-1.51,0-2.11,0-3.36l2.29,0.23,0.18,1.83h0.22c0.88-1.11,2.79-1.88,5.44-1.71,2.08,0.13,3.84.89,4.57,2.43h0.09a7.38,7.38,0,0,1,5.54-1.92c2.38,0.15,5.38,1.1,5.15,4.28a4.82,4.82,0,0,1-.1.78l-1.76,8.63-2.77-.28,1.46-8.11c0.35-1.88-.37-3.63-3.19-3.81a3.42,3.42,0,0,0-3.95,3.22l-0.5,8.36-2.16-.22-0.38-8.47c-0.06-1.63-.44-3.22-3.13-3.4-2.47-.16-4.1,1.55-4,3.21l0.49,8.13Z" transform="translate(0 1.97)"/><path class="cls-3" d="M751.58,467.61l-0.12-9.43c0-1.46,0-2-.08-3.24l2.22,0.19,0.2,1.76H754c0.83-1.08,2.68-1.85,5.25-1.73,2,0.1,3.73.81,4.47,2.28h0.09a7.17,7.17,0,0,1,5.35-1.93c2.31,0.11,5.23,1,5.06,4.06a4.63,4.63,0,0,1-.08.75l-1.58,8.36-2.69-.24,1.29-7.85c0.32-1.81-.41-3.49-3.15-3.63a3.3,3.3,0,0,0-3.78,3.16l-0.36,8.08-2.09-.18-0.49-8.17c-0.08-1.57-.47-3.11-3.08-3.23-2.4-.12-3.95,1.55-3.87,3.15l0.59,7.84h-3.35Z" transform="translate(0 1.97)"/><path class="cls-3" d="M629.72,593.1L618.5,513.61l-9.93,3.74-2.77-9.56,33-4.59-0.64,4.89-11,3L634,593.64Z" transform="translate(0 1.97)"/><path class="cls-3" d="M668.36,557.89l-16.49.24-6.43,23.74-5.56,1.26L653,507.28l6.79,1.52,22.73,71.42-10,1.56ZM652.64,554l14.06-2.17-5.54-20c-1.4-5.18-2.82-10.69-4-16l-0.7.49Z" transform="translate(0 1.97)"/><path class="cls-3" d="M689.17,578.68c2.4,1.9,5.95,3.59,9.26,3.33,6.88-.54,10.34-8.13,9.69-16.45-0.67-8.58-4.93-13.6-10.23-19.2-6.68-7.19-13-11.14-14.05-24.4s4.76-23.12,14.33-23.87c4-.31,7.52.72,9.25,2.15l-1,9.23a11.42,11.42,0,0,0-8-2.51c-6.53.51-9.37,6.75-8.88,13,0.72,9.23,4.84,13.61,11.09,17.57,7.4,4.91,13.6,10.57,14.64,23.83,1.15,14.68-6.36,25.73-16.37,26.51a17.06,17.06,0,0,1-11.64-3.93Z" transform="translate(0 1.97)"/><path class="cls-3" d="M727.3,586.75l2-77.25-10.08,2L718.05,502l32.24,0.91-1.39,4.54-11,1.15-6.63,79.39Z" transform="translate(0 1.97)"/><path class="cls-3" d="M767.31,588.9L762,587.47l3.32-35-9.48-50.88,4.7,2.13,11.08,40.08h0.19l10.93-36.46,9.74-1.12-20.23,46.4Z" transform="translate(0 1.97)"/><text class="cls-4" transform="matrix(0.72, -0.51, 0.58, 0.82, 124.56, 274.98)">C</text><text class="cls-4" transform="matrix(0.78, -0.42, 0.48, 0.88, 197.79, 222.01)">H</text><text class="cls-4" transform="matrix(0.83, -0.31, 0.35, 0.94, 298.88, 167.38)">A</text><text class="cls-4" transform="translate(398.77 129.59) rotate(-13.39) scale(0.89 1)">R</text><text class="cls-4" transform="translate(496.58 106.47) rotate(-6.52) scale(0.89 1)">C</text><text class="cls-4" transform="matrix(0.89, 0.01, -0.01, 1, 586.16, 95.54)">U</text><text class="cls-4" transform="translate(693.69 96.94) rotate(8.09) scale(0.89 1)">T</text><text class="cls-4" transform="translate(790.47 110.56) rotate(15.12) scale(0.89 1)">E</text><text class="cls-4" transform="matrix(0.82, 0.33, -0.38, 0.93, 885.11, 135.94)">R</text><text class="cls-4" transform="translate(978.18 174.86) rotate(27.64) scale(0.89 1)">I</text><text class="cls-4" transform="translate(1029.79 200.75) rotate(32.91) scale(0.89 1)">E</text><text class="cls-5" transform="matrix(0.86, 0.51, -0.51, 0.86, 182.32, 816.61)">o</text><text class="cls-5" transform="translate(261.11 864.01) rotate(24.26)">n</text><text class="cls-5" transform="matrix(0.94, 0.33, -0.33, 0.94, 355.54, 904.88)"> </text><text class="cls-5" transform="matrix(0.96, 0.27, -0.27, 0.96, 391.1, 917.83)">t</text><text class="cls-5" transform="translate(458.76 937.53) rotate(9.88)">h</text><text class="cls-5" transform="translate(560.26 954.5) rotate(3.36)">e</text><text class="cls-5" transform="matrix(1, -0.02, 0.02, 1, 647.52, 958.58)"> </text><text class="cls-5" transform="matrix(1, -0.1, 0.1, 1, 686.29, 959.07)">L</text><text class="cls-5" transform="matrix(0.98, -0.22, 0.22, 0.98, 787.68, 948.76)">a</text><text class="cls-5" transform="translate(888.82 927.4) rotate(-21.14)">w</text><text class="cls-5" transform="matrix(0.87, -0.5, 0.5, 0.87, 1025.88, 872.12)">n</text></svg>